<?xml version="1.0" encoding="UTF-8" standalone="no"?>
<!-- Created with Inkscape (http://www.inkscape.org/) -->

<svg
   xmlns:dc="http://purl.org/dc/elements/1.1/"
   xmlns:cc="http://creativecommons.org/ns#"
   xmlns:rdf="http://www.w3.org/1999/02/22-rdf-syntax-ns#"
   xmlns:svg="http://www.w3.org/2000/svg"
   xmlns="http://www.w3.org/2000/svg"
   xmlns:sodipodi="http://sodipodi.sourceforge.net/DTD/sodipodi-0.dtd"
   xmlns:inkscape="http://www.inkscape.org/namespaces/inkscape"
   width="55.5mm"
   height="55.5mm"
   viewBox="0 0 55.5 55.5"
   version="1.1"
   id="svg8"
   inkscape:version="0.92.2 (5c3e80d, 2017-08-06)"
   sodipodi:docname="foodbank-circle.svg">
  <defs
     id="defs2" />
  <sodipodi:namedview
     id="base"
     pagecolor="#ffffff"
     bordercolor="#666666"
     borderopacity="1.0"
     inkscape:pageopacity="0.0"
     inkscape:pageshadow="2"
     inkscape:zoom="2.8"
     inkscape:cx="138.50834"
     inkscape:cy="120.83655"
     inkscape:document-units="mm"
     inkscape:current-layer="layer1"
     showgrid="false"
     showguides="true"
     inkscape:guide-bbox="true"
     inkscape:window-width="1920"
     inkscape:window-height="1137"
     inkscape:window-x="-8"
     inkscape:window-y="-8"
     inkscape:window-maximized="1"
     fit-margin-top="0"
     fit-margin-left="0"
     fit-margin-right="0"
     fit-margin-bottom="0" />
  <metadata
     id="metadata5">
    <rdf:RDF>
      <cc:Work
         rdf:about="">
        <dc:format>image/svg+xml</dc:format>
        <dc:type
           rdf:resource="http://purl.org/dc/dcmitype/StillImage" />
        <dc:title></dc:title>
      </cc:Work>
    </rdf:RDF>
  </metadata>
  <g
     inkscape:label="Layer 1"
     inkscape:groupmode="layer"
     id="layer1"
     transform="translate(0,-241.5)">
    <path
       inkscape:connector-curvature="0"
       style="fill:#62a651;fill-opacity:1;stroke:none;stroke-width:1.43141961;stroke-linecap:butt;stroke-linejoin:round;stroke-miterlimit:4;stroke-dasharray:none;stroke-opacity:1;paint-order:markers stroke fill"
       d="M 55.5,269.25 A 27.75,27.75 0 0 1 27.75,297 27.75,27.75 0 0 1 0,269.25 27.75,27.75 0 0 1 27.75,241.5 27.75,27.75 0 0 1 55.5,269.25 Z"
       id="path914-3" />
    <path
       inkscape:connector-curvature="0"
       style="fill:#ffffff;fill-opacity:0.31372549;stroke:none;stroke-width:1.43141961;stroke-linecap:butt;stroke-linejoin:round;stroke-miterlimit:4;stroke-dasharray:none;stroke-opacity:1;paint-order:markers stroke fill"
       d="M 27.74985,241.50015 A 27.75,27.75 0 0 0 5.57186,252.62763 v 11.8768 l 22.17851,6.44612 22.17746,-6.44612 v -11.88868 a 27.75,27.75 0 0 0 -22.17798,-11.1156 z"
       id="path1048-4" />
    <g
       aria-label="Street Life"
       style="font-style:normal;font-variant:normal;font-weight:normal;font-stretch:normal;font-size:8.72687626px;line-height:1.25;font-family:'GillSans Light';-inkscape-font-specification:'GillSans Light, Normal';font-variant-ligatures:normal;font-variant-caps:normal;font-variant-numeric:normal;font-feature-settings:normal;text-align:start;letter-spacing:0px;word-spacing:0px;writing-mode:lr-tb;text-anchor:start;fill:#ffffff;fill-opacity:1;stroke:none;stroke-width:0.21817191"
       id="text862-1-7">
      <path
         d="m 10.649915,254.54462 q 0.515601,0.3835 0.856495,0.52412 0.345155,0.14062 0.660481,0.14062 0.541169,0 0.899107,-0.33663 0.357938,-0.34089 0.357938,-0.84371 0,-0.43038 -0.242886,-0.71162 -0.238626,-0.28124 -0.813884,-0.51134 l -0.575258,-0.21732 q -0.622131,-0.25141 -0.916151,-0.60508 -0.294021,-0.35368 -0.294021,-0.88207 0,-0.66048 0.494296,-1.12068 0.498556,-0.46447 1.218694,-0.46447 0.353677,0 0.703093,0.10653 0.349416,0.10653 0.651959,0.26845 v 0.51134 q -0.191752,-0.10227 -0.592302,-0.28124 -0.40055,-0.17896 -0.732922,-0.17896 -0.566735,0 -0.907629,0.34941 -0.336632,0.34516 -0.336632,0.78406 0,0.40055 0.238625,0.66048 0.238626,0.25567 0.745705,0.44742 l 0.579519,0.2301 q 1.278351,0.47726 1.278351,1.5809 0,0.70735 -0.51134,1.17608 -0.507079,0.46447 -1.214434,0.46447 -0.732921,0 -1.546804,-0.54117 z m 1.691684,-5.36908 v 0 z m -0.102268,6.36619 v 0 z"
         style="font-style:normal;font-variant:normal;font-weight:normal;font-stretch:normal;font-size:8.72687626px;font-family:'GillSans Light';-inkscape-font-specification:'GillSans Light, Normal';font-variant-ligatures:normal;font-variant-caps:normal;font-variant-numeric:normal;font-feature-settings:normal;text-align:start;writing-mode:lr-tb;text-anchor:start;fill:#ffffff;fill-opacity:1;stroke-width:0.21817191"
         id="path897" />
      <path
         d="m 14.105723,251.99644 v -0.34089 h 1.052509 v -0.92894 l 0.285499,-0.36646 h 0.132096 v 1.2954 h 1.090859 v 0.34089 h -1.090859 v 2.48852 0 0 0 0 0.20028 q 0,0.29828 0.14488,0.41333 0.14488,0.11505 0.430378,0.11505 0.289759,0 0.720138,-0.19175 v 0.40055 q -0.357939,0.20028 -0.809623,0.20028 -0.417594,0 -0.660481,-0.21306 -0.242887,-0.21732 -0.242887,-0.60509 v -0.0298 -2.77828 z m 1.900482,3.54529 v 0 z"
         style="font-style:normal;font-variant:normal;font-weight:normal;font-stretch:normal;font-size:8.72687626px;font-family:'GillSans Light';-inkscape-font-specification:'GillSans Light, Normal';font-variant-ligatures:normal;font-variant-caps:normal;font-variant-numeric:normal;font-feature-settings:normal;text-align:start;writing-mode:lr-tb;text-anchor:start;fill:#ffffff;fill-opacity:1;stroke-width:0.21817191"
         id="path899" />
      <path
         d="m 17.459264,255.54173 v -3.88618 h 0.417595 v 1.04824 q 0.720137,-1.12921 1.401925,-1.12921 0.370721,0 0.916151,0.46021 l -0.242887,0.39629 q -0.490034,-0.44742 -0.788316,-0.44742 -0.605086,0 -1.286873,1.11216 v 2.44591 z m 1.389141,-4.51258 v 0 z m -1.141993,4.51258 v 0 z"
         style="font-style:normal;font-variant:normal;font-weight:normal;font-stretch:normal;font-size:8.72687626px;font-family:'GillSans Light';-inkscape-font-specification:'GillSans Light, Normal';font-variant-ligatures:normal;font-variant-caps:normal;font-variant-numeric:normal;font-feature-settings:normal;text-align:start;writing-mode:lr-tb;text-anchor:start;fill:#ffffff;fill-opacity:1;stroke-width:0.21817191"
         id="path901" />
      <path
         d="m 20.621053,253.45802 q -0.0085,0.0895 -0.0085,0.17045 0,0.68178 0.451684,1.13347 0.455946,0.45168 1.107905,0.45168 0.396288,0 0.698832,-0.12357 0.306804,-0.12784 0.741443,-0.46021 v 0 0.46873 q -0.651959,0.52413 -1.508454,0.52413 -0.865018,0 -1.401925,-0.61361 -0.532646,-0.61361 -0.532646,-1.45732 0,-0.83093 0.498557,-1.40193 0.502818,-0.57526 1.282612,-0.57526 0.749966,0 1.24,0.51134 0.490035,0.50708 0.490035,1.3721 v 0 z m 0.05113,-0.34089 h 2.509829 v 0 q -0.238626,-1.13347 -1.227217,-1.13347 -0.507079,0 -0.843712,0.31106 -0.332371,0.30681 -0.4389,0.82241 z m 1.278351,-2.08798 v 0 z m 0.196014,4.51258 v 0 z"
         style="font-style:normal;font-variant:normal;font-weight:normal;font-stretch:normal;font-size:8.72687626px;font-family:'GillSans Light';-inkscape-font-specification:'GillSans Light, Normal';font-variant-ligatures:normal;font-variant-caps:normal;font-variant-numeric:normal;font-feature-settings:normal;text-align:start;writing-mode:lr-tb;text-anchor:start;fill:#ffffff;fill-opacity:1;stroke-width:0.21817191"
         id="path903" />
      <path
         d="m 24.796999,253.45802 q -0.0085,0.0895 -0.0085,0.17045 0,0.68178 0.451684,1.13347 0.455945,0.45168 1.107904,0.45168 0.396289,0 0.698832,-0.12357 0.306804,-0.12784 0.741443,-0.46021 v 0 0.46873 q -0.651959,0.52413 -1.508454,0.52413 -0.865017,0 -1.401925,-0.61361 -0.532646,-0.61361 -0.532646,-1.45732 0,-0.83093 0.498557,-1.40193 0.502818,-0.57526 1.282612,-0.57526 0.749966,0 1.240001,0.51134 0.490034,0.50708 0.490034,1.3721 v 0 z m 0.05113,-0.34089 h 2.509829 v 0 q -0.238625,-1.13347 -1.227217,-1.13347 -0.507079,0 -0.843711,0.31106 -0.332372,0.30681 -0.438901,0.82241 z m 1.278351,-2.08798 v 0 z m 0.196014,4.51258 v 0 z"
         style="font-style:normal;font-variant:normal;font-weight:normal;font-stretch:normal;font-size:8.72687626px;font-family:'GillSans Light';-inkscape-font-specification:'GillSans Light, Normal';font-variant-ligatures:normal;font-variant-caps:normal;font-variant-numeric:normal;font-feature-settings:normal;text-align:start;writing-mode:lr-tb;text-anchor:start;fill:#ffffff;fill-opacity:1;stroke-width:0.21817191"
         id="path905" />
      <path
         d="m 28.014182,251.99644 v -0.34089 h 1.052509 v -0.92894 l 0.285498,-0.36646 h 0.132097 v 1.2954 h 1.090859 v 0.34089 h -1.090859 v 2.48852 0 0 0 0 0.20028 q 0,0.29828 0.144879,0.41333 0.14488,0.11505 0.430379,0.11505 0.289759,0 0.720137,-0.19175 v 0.40055 q -0.357938,0.20028 -0.809622,0.20028 -0.417595,0 -0.660481,-0.21306 -0.242887,-0.21732 -0.242887,-0.60509 v -0.0298 -2.77828 z m 1.900482,3.54529 v 0 z"
         style="font-style:normal;font-variant:normal;font-weight:normal;font-stretch:normal;font-size:8.72687626px;font-family:'GillSans Light';-inkscape-font-specification:'GillSans Light, Normal';font-variant-ligatures:normal;font-variant-caps:normal;font-variant-numeric:normal;font-feature-settings:normal;text-align:start;writing-mode:lr-tb;text-anchor:start;fill:#ffffff;fill-opacity:1;stroke-width:0.21817191"
         id="path907" />
      <path
         d="m 33.924426,249.61018 h 0.464467 v 5.54805 h 2.931685 v 0.3835 h -3.396152 z m 0.703093,-0.43464 v 0 z m 1.205911,6.36619 v 0 z m -2.595052,-6.02529 v 0 z"
         style="font-style:normal;font-variant:normal;font-weight:normal;font-stretch:normal;font-size:8.72687626px;font-family:'GillSans Light';-inkscape-font-specification:'GillSans Light, Normal';font-variant-ligatures:normal;font-variant-caps:normal;font-variant-numeric:normal;font-feature-settings:normal;text-align:start;writing-mode:lr-tb;text-anchor:start;fill:#ffffff;fill-opacity:1;stroke-width:0.21817191"
         id="path909" />
      <path
         d="m 37.938448,251.65555 h 0.417595 v 3.88618 h -0.417595 z m 0,-2.01128 h 0.417595 v 0.71588 h -0.417595 z m 0.18323,5.89746 v 0 z"
         style="font-style:normal;font-variant:normal;font-weight:normal;font-stretch:normal;font-size:8.72687626px;font-family:'GillSans Light';-inkscape-font-specification:'GillSans Light, Normal';font-variant-ligatures:normal;font-variant-caps:normal;font-variant-numeric:normal;font-feature-settings:normal;text-align:start;writing-mode:lr-tb;text-anchor:start;fill:#ffffff;fill-opacity:1;stroke-width:0.21817191"
         id="path911" />
      <path
         d="m 39.033567,251.65555 h 0.749966 v -0.66049 q 0,-0.66474 0.383505,-1.06103 0.383506,-0.40055 0.950241,-0.40055 v 0 0 q 0.323849,0 0.720138,0.16619 v 0.39203 q -0.392028,-0.14914 -0.715877,-0.14914 -0.920412,0 -0.920412,1.1846 v 0.52839 h 0.749966 v 0.34089 h -0.749966 v 3.54529 h -0.417595 v -3.54529 h -0.749966 z"
         style="font-style:normal;font-variant:normal;font-weight:normal;font-stretch:normal;font-size:8.72687626px;font-family:'GillSans Light';-inkscape-font-specification:'GillSans Light, Normal';font-variant-ligatures:normal;font-variant-caps:normal;font-variant-numeric:normal;font-feature-settings:normal;text-align:start;writing-mode:lr-tb;text-anchor:start;fill:#ffffff;fill-opacity:1;stroke-width:0.21817191"
         id="path913" />
      <path
         d="m 41.858724,253.45802 q -0.0085,0.0895 -0.0085,0.17045 0,0.68178 0.451684,1.13347 0.455946,0.45168 1.107905,0.45168 0.396288,0 0.698831,-0.12357 0.306805,-0.12784 0.741444,-0.46021 v 0 0.46873 q -0.651959,0.52413 -1.508454,0.52413 -0.865018,0 -1.401925,-0.61361 -0.532646,-0.61361 -0.532646,-1.45732 0,-0.83093 0.498557,-1.40193 0.502818,-0.57526 1.282612,-0.57526 0.749966,0 1.24,0.51134 0.490035,0.50708 0.490035,1.3721 v 0 z m 0.05113,-0.34089 h 2.509829 v 0 q -0.238626,-1.13347 -1.227217,-1.13347 -0.507079,0 -0.843712,0.31106 -0.332371,0.30681 -0.4389,0.82241 z m 1.278351,-2.08798 v 0 z m 0.196014,4.51258 v 0 z"
         style="font-style:normal;font-variant:normal;font-weight:normal;font-stretch:normal;font-size:8.72687626px;font-family:'GillSans Light';-inkscape-font-specification:'GillSans Light, Normal';font-variant-ligatures:normal;font-variant-caps:normal;font-variant-numeric:normal;font-feature-settings:normal;text-align:start;writing-mode:lr-tb;text-anchor:start;fill:#ffffff;fill-opacity:1;stroke-width:0.21817191"
         id="path915" />
    </g>
    <g
       aria-label="Providing food for families &amp; 
individuals in West Limerick"
       style="font-style:normal;font-variant:normal;font-weight:normal;font-stretch:normal;font-size:3.10482645px;line-height:1.25;font-family:'GillSans Light';-inkscape-font-specification:'GillSans Light, Normal';font-variant-ligatures:normal;font-variant-caps:normal;font-variant-numeric:normal;font-feature-settings:normal;text-align:start;letter-spacing:0px;word-spacing:0px;writing-mode:lr-tb;text-anchor:start;fill:#ffffff;fill-opacity:1;stroke:none;stroke-width:0.0776207"
       id="text862-2-5-1">
      <path
         d="m 10.605993,258.08164 h 0.585187 0.04245 q 0.307754,0 0.480581,0.15009 0.172827,0.15009 0.172827,0.4063 0,0.26985 -0.183439,0.41691 -0.18344,0.14705 -0.498774,0.14705 h -0.03335 -0.400232 v 0.98997 h -0.165247 z m 0.165247,0.13645 v 0.84746 h 0.377491 q 0.560931,0 0.560931,-0.42449 0,-0.1986 -0.140991,-0.31079 -0.140991,-0.11218 -0.383555,-0.11218 z"
         style="font-style:normal;font-variant:normal;font-weight:normal;font-stretch:normal;font-size:3.10482645px;line-height:1;font-family:'GillSans Light';-inkscape-font-specification:'GillSans Light, Normal';font-variant-ligatures:normal;font-variant-caps:normal;font-variant-numeric:normal;font-feature-settings:normal;text-align:start;writing-mode:lr-tb;text-anchor:start;fill:#ffffff;fill-opacity:1;stroke-width:0.0776207"
         id="path918" />
      <path
         d="m 12.143246,260.19196 v -1.38262 h 0.148571 v 0.37294 q 0.256209,-0.40175 0.498773,-0.40175 0.131895,0 0.325946,0.16374 l -0.08641,0.14099 q -0.174344,-0.15919 -0.280466,-0.15919 -0.215276,0 -0.45784,0.39569 v 0.8702 z m 0.494225,-1.60548 v 0 z m -0.406295,1.60548 v 0 z"
         style="font-style:normal;font-variant:normal;font-weight:normal;font-stretch:normal;font-size:3.10482645px;line-height:1;font-family:'GillSans Light';-inkscape-font-specification:'GillSans Light, Normal';font-variant-ligatures:normal;font-variant-caps:normal;font-variant-numeric:normal;font-feature-settings:normal;text-align:start;writing-mode:lr-tb;text-anchor:start;fill:#ffffff;fill-opacity:1;stroke-width:0.0776207"
         id="path920" />
      <path
         d="m 13.11502,259.50671 q 0,-0.31078 0.201632,-0.51848 0.201632,-0.2077 0.507869,-0.2077 0.298658,0 0.503322,0.20315 0.20618,0.20163 0.20618,0.5109 0,0.30776 -0.200116,0.51697 -0.200116,0.20921 -0.509386,0.20921 -0.300173,0 -0.504837,-0.20315 -0.204664,-0.20314 -0.204664,-0.5109 z m 0.157667,-0.006 q 0,0.25014 0.162215,0.41236 0.163731,0.16221 0.394167,0.16221 0.238017,0 0.392652,-0.16221 0.154635,-0.16222 0.154635,-0.40327 0,-0.25469 -0.160699,-0.41842 -0.159183,-0.16525 -0.391136,-0.16525 -0.22892,0 -0.391135,0.1607 -0.160699,0.15918 -0.160699,0.41388 z m 0.557898,-0.91417 v 0 z"
         style="font-style:normal;font-variant:normal;font-weight:normal;font-stretch:normal;font-size:3.10482645px;line-height:1;font-family:'GillSans Light';-inkscape-font-specification:'GillSans Light, Normal';font-variant-ligatures:normal;font-variant-caps:normal;font-variant-numeric:normal;font-feature-settings:normal;text-align:start;writing-mode:lr-tb;text-anchor:start;fill:#ffffff;fill-opacity:1;stroke-width:0.0776207"
         id="path922" />
      <path
         d="m 15.345098,259.97213 v 0 l 0.50787,-1.16279 h 0.147054 l -0.606411,1.41142 h -0.09248 l -0.630668,-1.41142 h 0.151603 z"
         style="font-style:normal;font-variant:normal;font-weight:normal;font-stretch:normal;font-size:3.10482645px;line-height:1;font-family:'GillSans Light';-inkscape-font-specification:'GillSans Light, Normal';font-variant-ligatures:normal;font-variant-caps:normal;font-variant-numeric:normal;font-feature-settings:normal;text-align:start;writing-mode:lr-tb;text-anchor:start;fill:#ffffff;fill-opacity:1;stroke-width:0.0776207"
         id="path924" />
      <path
         d="m 16.215299,258.80934 h 0.14857 v 1.38262 h -0.14857 z m 0,-0.71557 h 0.14857 v 0.2547 h -0.14857 z m 0.06519,2.09819 v 0 z"
         style="font-style:normal;font-variant:normal;font-weight:normal;font-stretch:normal;font-size:3.10482645px;line-height:1;font-family:'GillSans Light';-inkscape-font-specification:'GillSans Light, Normal';font-variant-ligatures:normal;font-variant-caps:normal;font-variant-numeric:normal;font-feature-settings:normal;text-align:start;writing-mode:lr-tb;text-anchor:start;fill:#ffffff;fill-opacity:1;stroke-width:0.0776207"
         id="path926" />
      <path
         d="m 17.823805,258.90182 v -0.82018 h 0.14857 v 2.11032 h -0.14857 v -0.11674 q -0.186472,0.14554 -0.40478,0.14554 -0.306238,0 -0.509386,-0.20769 -0.201631,-0.20922 -0.201631,-0.51849 0,-0.3032 0.198599,-0.50787 0.200116,-0.20618 0.50787,-0.20618 0.184955,0 0.409328,0.12129 z m -0.95813,0.58518 q 0,0.26228 0.169795,0.42601 0.169795,0.16221 0.418424,0.16221 0.178891,0 0.369911,-0.13644 v -0.86868 q -0.20618,-0.14403 -0.400232,-0.14403 -0.257725,0 -0.407812,0.16677 -0.150086,0.16524 -0.150086,0.39416 z"
         style="font-style:normal;font-variant:normal;font-weight:normal;font-stretch:normal;font-size:3.10482645px;line-height:1;font-family:'GillSans Light';-inkscape-font-specification:'GillSans Light, Normal';font-variant-ligatures:normal;font-variant-caps:normal;font-variant-numeric:normal;font-feature-settings:normal;text-align:start;writing-mode:lr-tb;text-anchor:start;fill:#ffffff;fill-opacity:1;stroke-width:0.0776207"
         id="path928" />
      <path
         d="m 18.380187,258.80934 h 0.148571 v 1.38262 h -0.148571 z m 0,-0.71557 h 0.148571 v 0.2547 h -0.148571 z m 0.06519,2.09819 v 0 z"
         style="font-style:normal;font-variant:normal;font-weight:normal;font-stretch:normal;font-size:3.10482645px;line-height:1;font-family:'GillSans Light';-inkscape-font-specification:'GillSans Light, Normal';font-variant-ligatures:normal;font-variant-caps:normal;font-variant-numeric:normal;font-feature-settings:normal;text-align:start;writing-mode:lr-tb;text-anchor:start;fill:#ffffff;fill-opacity:1;stroke-width:0.0776207"
         id="path930" />
      <path
         d="m 18.938086,260.19196 v -1.38262 h 0.148571 v 0.26227 q 0.08945,-0.14099 0.204663,-0.21527 0.115219,-0.0758 0.269854,-0.0758 0.22892,0 0.374459,0.14403 0.145538,0.1425 0.145538,0.42448 v 0.84292 h -0.14857 v -0.80047 q 0,-0.46542 -0.380524,-0.46542 -0.280465,0 -0.46542,0.29714 v 0.96875 z m 0.598831,-1.60548 v 0 z m -0.02274,1.60548 v 0 z"
         style="font-style:normal;font-variant:normal;font-weight:normal;font-stretch:normal;font-size:3.10482645px;line-height:1;font-family:'GillSans Light';-inkscape-font-specification:'GillSans Light, Normal';font-variant-ligatures:normal;font-variant-caps:normal;font-variant-numeric:normal;font-feature-settings:normal;text-align:start;writing-mode:lr-tb;text-anchor:start;fill:#ffffff;fill-opacity:1;stroke-width:0.0776207"
         id="path932" />
      <path
         d="m 20.736096,260.19044 q -0.233469,-0.0546 -0.233469,-0.19708 0,-0.0758 0.06671,-0.13341 0.0667,-0.0576 0.200115,-0.0986 -0.136442,-0.0242 -0.248628,-0.15008 -0.11067,-0.12735 -0.11067,-0.31534 0,-0.21376 0.14857,-0.3502 0.148571,-0.13644 0.438133,-0.13644 v 0 0 h 0.551834 v 0.12128 0 0 h -0.31685 v 0 q 0.08641,0.0531 0.139475,0.15767 0.05458,0.1046 0.05458,0.20769 0,0.18193 -0.100058,0.30624 -0.09854,0.12432 -0.33959,0.17889 v 0 l -0.16828,0.047 q -0.172827,0.0485 -0.172827,0.15009 0,0.0621 0.05913,0.097 0.05912,0.0349 0.271369,0.05 l 0.159183,0.009 v 0 0 q 0.41236,0.0318 0.41236,0.35626 0,0.20315 -0.171311,0.30473 -0.171311,0.10005 -0.454809,0.10005 -0.262273,0 -0.422972,-0.091 -0.174343,-0.097 -0.174343,-0.27288 0,-0.11977 0.08793,-0.20618 0.08793,-0.0879 0.32443,-0.13493 z m -0.269853,0.32746 q 0,0.25318 0.469969,0.25318 0.200115,0 0.333526,-0.0682 0.134926,-0.0682 0.134926,-0.20012 0,-0.23801 -0.447228,-0.23801 -0.491193,0 -0.491193,0.25317 z m 0.08641,-1.22646 q 0,0.15463 0.100058,0.2653 0.100058,0.10915 0.262273,0.10915 0.159183,0 0.263789,-0.094 0.104606,-0.0955 0.104606,-0.2744 0,-0.15615 -0.115218,-0.25924 -0.113702,-0.10461 -0.256209,-0.10461 -0.156151,0 -0.257725,0.10461 -0.101574,0.1046 -0.101574,0.25318 z m 0.421456,-0.67615 v 0 z"
         style="font-style:normal;font-variant:normal;font-weight:normal;font-stretch:normal;font-size:3.10482645px;line-height:1;font-family:'GillSans Light';-inkscape-font-specification:'GillSans Light, Normal';font-variant-ligatures:normal;font-variant-caps:normal;font-variant-numeric:normal;font-feature-settings:normal;text-align:start;writing-mode:lr-tb;text-anchor:start;fill:#ffffff;fill-opacity:1;stroke-width:0.0776207"
         id="path934" />
      <path
         d="m 22.481045,258.80934 h 0.266821 v -0.23499 q 0,-0.2365 0.136442,-0.37749 0.136443,-0.1425 0.338074,-0.1425 v 0 0 q 0.115219,0 0.256209,0.0591 v 0.13948 q -0.139474,-0.0531 -0.254692,-0.0531 -0.327463,0 -0.327463,0.42145 v 0.18799 h 0.266821 v 0.12128 h -0.266821 v 1.26134 h -0.14857 v -1.26134 h -0.266821 z"
         style="font-style:normal;font-variant:normal;font-weight:normal;font-stretch:normal;font-size:3.10482645px;line-height:1;font-family:'GillSans Light';-inkscape-font-specification:'GillSans Light, Normal';font-variant-ligatures:normal;font-variant-caps:normal;font-variant-numeric:normal;font-feature-settings:normal;text-align:start;writing-mode:lr-tb;text-anchor:start;fill:#ffffff;fill-opacity:1;stroke-width:0.0776207"
         id="path936" />
      <path
         d="m 23.333052,259.50671 q 0,-0.31078 0.201632,-0.51848 0.201632,-0.2077 0.50787,-0.2077 0.298657,0 0.503321,0.20315 0.20618,0.20163 0.20618,0.5109 0,0.30776 -0.200116,0.51697 -0.200115,0.20921 -0.509385,0.20921 -0.300174,0 -0.504838,-0.20315 -0.204664,-0.20314 -0.204664,-0.5109 z m 0.157667,-0.006 q 0,0.25014 0.162215,0.41236 0.163731,0.16221 0.394168,0.16221 0.238016,0 0.392651,-0.16221 0.154635,-0.16222 0.154635,-0.40327 0,-0.25469 -0.160699,-0.41842 -0.159183,-0.16525 -0.391135,-0.16525 -0.228921,0 -0.391136,0.1607 -0.160699,0.15918 -0.160699,0.41388 z m 0.557899,-0.91417 v 0 z"
         style="font-style:normal;font-variant:normal;font-weight:normal;font-stretch:normal;font-size:3.10482645px;line-height:1;font-family:'GillSans Light';-inkscape-font-specification:'GillSans Light, Normal';font-variant-ligatures:normal;font-variant-caps:normal;font-variant-numeric:normal;font-feature-settings:normal;text-align:start;writing-mode:lr-tb;text-anchor:start;fill:#ffffff;fill-opacity:1;stroke-width:0.0776207"
         id="path938" />
      <path
         d="m 25.018876,259.50671 q 0,-0.31078 0.201632,-0.51848 0.201631,-0.2077 0.507869,-0.2077 0.298658,0 0.503322,0.20315 0.20618,0.20163 0.20618,0.5109 0,0.30776 -0.200116,0.51697 -0.200116,0.20921 -0.509386,0.20921 -0.300173,0 -0.504837,-0.20315 -0.204664,-0.20314 -0.204664,-0.5109 z m 0.157667,-0.006 q 0,0.25014 0.162215,0.41236 0.163731,0.16221 0.394167,0.16221 0.238017,0 0.392652,-0.16221 0.154635,-0.16222 0.154635,-0.40327 0,-0.25469 -0.160699,-0.41842 -0.159183,-0.16525 -0.391136,-0.16525 -0.22892,0 -0.391135,0.1607 -0.160699,0.15918 -0.160699,0.41388 z m 0.557898,-0.91417 v 0 z"
         style="font-style:normal;font-variant:normal;font-weight:normal;font-stretch:normal;font-size:3.10482645px;line-height:1;font-family:'GillSans Light';-inkscape-font-specification:'GillSans Light, Normal';font-variant-ligatures:normal;font-variant-caps:normal;font-variant-numeric:normal;font-feature-settings:normal;text-align:start;writing-mode:lr-tb;text-anchor:start;fill:#ffffff;fill-opacity:1;stroke-width:0.0776207"
         id="path940" />
      <path
         d="m 27.817465,258.90182 v -0.82018 h 0.148571 v 2.11032 h -0.148571 v -0.11674 q -0.186471,0.14554 -0.404779,0.14554 -0.306238,0 -0.509386,-0.20769 -0.201632,-0.20922 -0.201632,-0.51849 0,-0.3032 0.1986,-0.50787 0.200116,-0.20618 0.507869,-0.20618 0.184956,0 0.409328,0.12129 z m -0.95813,0.58518 q 0,0.26228 0.169795,0.42601 0.169796,0.16221 0.418424,0.16221 0.178892,0 0.369911,-0.13644 v -0.86868 q -0.20618,-0.14403 -0.400231,-0.14403 -0.257725,0 -0.407812,0.16677 -0.150087,0.16524 -0.150087,0.39416 z"
         style="font-style:normal;font-variant:normal;font-weight:normal;font-stretch:normal;font-size:3.10482645px;line-height:1;font-family:'GillSans Light';-inkscape-font-specification:'GillSans Light, Normal';font-variant-ligatures:normal;font-variant-caps:normal;font-variant-numeric:normal;font-feature-settings:normal;text-align:start;writing-mode:lr-tb;text-anchor:start;fill:#ffffff;fill-opacity:1;stroke-width:0.0776207"
         id="path942" />
      <path
         d="m 29.042416,258.80934 h 0.266821 v -0.23499 q 0,-0.2365 0.136443,-0.37749 0.136442,-0.1425 0.338074,-0.1425 v 0 0 q 0.115218,0 0.256209,0.0591 v 0.13948 q -0.139475,-0.0531 -0.254693,-0.0531 -0.327462,0 -0.327462,0.42145 v 0.18799 h 0.266821 v 0.12128 h -0.266821 v 1.26134 h -0.148571 v -1.26134 h -0.266821 z"
         style="font-style:normal;font-variant:normal;font-weight:normal;font-stretch:normal;font-size:3.10482645px;line-height:1;font-family:'GillSans Light';-inkscape-font-specification:'GillSans Light, Normal';font-variant-ligatures:normal;font-variant-caps:normal;font-variant-numeric:normal;font-feature-settings:normal;text-align:start;writing-mode:lr-tb;text-anchor:start;fill:#ffffff;fill-opacity:1;stroke-width:0.0776207"
         id="path944" />
      <path
         d="m 29.894424,259.50671 q 0,-0.31078 0.201632,-0.51848 0.201632,-0.2077 0.50787,-0.2077 0.298657,0 0.503321,0.20315 0.20618,0.20163 0.20618,0.5109 0,0.30776 -0.200116,0.51697 -0.200116,0.20921 -0.509385,0.20921 -0.300174,0 -0.504838,-0.20315 -0.204664,-0.20314 -0.204664,-0.5109 z m 0.157667,-0.006 q 0,0.25014 0.162215,0.41236 0.163731,0.16221 0.394168,0.16221 0.238016,0 0.392651,-0.16221 0.154635,-0.16222 0.154635,-0.40327 0,-0.25469 -0.160699,-0.41842 -0.159183,-0.16525 -0.391135,-0.16525 -0.228921,0 -0.391136,0.1607 -0.160699,0.15918 -0.160699,0.41388 z m 0.557899,-0.91417 v 0 z"
         style="font-style:normal;font-variant:normal;font-weight:normal;font-stretch:normal;font-size:3.10482645px;line-height:1;font-family:'GillSans Light';-inkscape-font-specification:'GillSans Light, Normal';font-variant-ligatures:normal;font-variant-caps:normal;font-variant-numeric:normal;font-feature-settings:normal;text-align:start;writing-mode:lr-tb;text-anchor:start;fill:#ffffff;fill-opacity:1;stroke-width:0.0776207"
         id="path946" />
      <path
         d="m 31.645437,260.19196 v -1.38262 h 0.148571 v 0.37294 q 0.256208,-0.40175 0.498773,-0.40175 0.131895,0 0.325946,0.16374 l -0.08641,0.14099 q -0.174344,-0.15919 -0.280466,-0.15919 -0.215276,0 -0.45784,0.39569 v 0.8702 z m 0.494225,-1.60548 v 0 z m -0.406296,1.60548 v 0 z"
         style="font-style:normal;font-variant:normal;font-weight:normal;font-stretch:normal;font-size:3.10482645px;line-height:1;font-family:'GillSans Light';-inkscape-font-specification:'GillSans Light, Normal';font-variant-ligatures:normal;font-variant-caps:normal;font-variant-numeric:normal;font-feature-settings:normal;text-align:start;writing-mode:lr-tb;text-anchor:start;fill:#ffffff;fill-opacity:1;stroke-width:0.0776207"
         id="path948" />
      <path
         d="m 33.372193,258.80934 h 0.266821 v -0.23499 q 0,-0.2365 0.136443,-0.37749 0.136442,-0.1425 0.338074,-0.1425 v 0 0 q 0.115218,0 0.256209,0.0591 v 0.13948 q -0.139475,-0.0531 -0.254693,-0.0531 -0.327462,0 -0.327462,0.42145 v 0.18799 h 0.266821 v 0.12128 h -0.266821 v 1.26134 h -0.148571 v -1.26134 h -0.266821 z"
         style="font-style:normal;font-variant:normal;font-weight:normal;font-stretch:normal;font-size:3.10482645px;line-height:1;font-family:'GillSans Light';-inkscape-font-specification:'GillSans Light, Normal';font-variant-ligatures:normal;font-variant-caps:normal;font-variant-numeric:normal;font-feature-settings:normal;text-align:start;writing-mode:lr-tb;text-anchor:start;fill:#ffffff;fill-opacity:1;stroke-width:0.0776207"
         id="path950" />
      <path
         d="m 35.030728,259.3642 v -0.17282 q 0,-0.28653 -0.321398,-0.28653 -0.1986,0 -0.426004,0.16676 v 0 0 -0.14554 q 0.253177,-0.14554 0.448744,-0.14554 0.207696,0 0.327463,0.094 0.119766,0.094 0.119766,0.26985 v 0.85504 q 0,0.0758 0.0288,0.0758 0.05154,0 0.204664,-0.12128 v 0.12431 q -0.08035,0.0576 -0.150087,0.10006 -0.06822,0.0424 -0.122798,0.0424 h -0.01213 q -0.08793,0 -0.09703,-0.16979 -0.201632,0.16979 -0.447228,0.16979 -0.151603,0 -0.265305,-0.10006 -0.112186,-0.10005 -0.112186,-0.25166 0,-0.23347 0.22892,-0.36536 0.230436,-0.13341 0.595799,-0.13948 z m 0,0.12432 q -0.04548,-0.003 -0.06064,-0.003 -0.256209,0 -0.436616,0.10309 -0.178892,0.10309 -0.178892,0.27895 0,0.1046 0.08338,0.16676 0.0849,0.0622 0.212244,0.0622 0.184955,0 0.380523,-0.17586 z m -0.268337,-0.90204 v 0 z m 0.476033,1.60548 v 0 z"
         style="font-style:normal;font-variant:normal;font-weight:normal;font-stretch:normal;font-size:3.10482645px;line-height:1;font-family:'GillSans Light';-inkscape-font-specification:'GillSans Light, Normal';font-variant-ligatures:normal;font-variant-caps:normal;font-variant-numeric:normal;font-feature-settings:normal;text-align:start;writing-mode:lr-tb;text-anchor:start;fill:#ffffff;fill-opacity:1;stroke-width:0.0776207"
         id="path952" />
      <path
         d="m 35.608335,258.80934 h 0.148571 v 0.26227 q 0.100058,-0.15918 0.209212,-0.22437 0.109154,-0.0667 0.234984,-0.0667 0.330494,0 0.466937,0.33959 0.113702,-0.1804 0.233468,-0.25924 0.119767,-0.0804 0.260757,-0.0804 0.20618,0 0.345655,0.15009 0.14099,0.14857 0.14099,0.4063 v 0.85504 h -0.14857 v -0.79137 q 0,-0.22286 -0.101574,-0.34869 -0.101574,-0.12583 -0.272885,-0.12583 -0.115219,0 -0.212244,0.0713 -0.09703,0.0697 -0.210728,0.25014 v 0.94449 h -0.148571 v -0.79592 q 0,-0.2365 -0.10309,-0.35323 -0.10309,-0.11674 -0.277433,-0.11674 -0.234985,0 -0.416908,0.29714 v 0.96875 h -0.148571 z"
         style="font-style:normal;font-variant:normal;font-weight:normal;font-stretch:normal;font-size:3.10482645px;line-height:1;font-family:'GillSans Light';-inkscape-font-specification:'GillSans Light, Normal';font-variant-ligatures:normal;font-variant-caps:normal;font-variant-numeric:normal;font-feature-settings:normal;text-align:start;writing-mode:lr-tb;text-anchor:start;fill:#ffffff;fill-opacity:1;stroke-width:0.0776207"
         id="path954" />
      <path
         d="m 38.03398,258.80934 h 0.148571 v 1.38262 H 38.03398 Z m 0,-0.71557 h 0.148571 v 0.2547 H 38.03398 Z m 0.06519,2.09819 v 0 z"
         style="font-style:normal;font-variant:normal;font-weight:normal;font-stretch:normal;font-size:3.10482645px;line-height:1;font-family:'GillSans Light';-inkscape-font-specification:'GillSans Light, Normal';font-variant-ligatures:normal;font-variant-caps:normal;font-variant-numeric:normal;font-feature-settings:normal;text-align:start;writing-mode:lr-tb;text-anchor:start;fill:#ffffff;fill-opacity:1;stroke-width:0.0776207"
         id="path956" />
      <path
         d="m 38.616136,260.19196 v -2.11032 h 0.14857 v 2.11032 z m 0.08035,-2.2316 v 0 z m -0.0091,2.2316 v 0 z"
         style="font-style:normal;font-variant:normal;font-weight:normal;font-stretch:normal;font-size:3.10482645px;line-height:1;font-family:'GillSans Light';-inkscape-font-specification:'GillSans Light, Normal';font-variant-ligatures:normal;font-variant-caps:normal;font-variant-numeric:normal;font-feature-settings:normal;text-align:start;writing-mode:lr-tb;text-anchor:start;fill:#ffffff;fill-opacity:1;stroke-width:0.0776207"
         id="path958" />
      <path
         d="m 39.198291,258.80934 h 0.148571 v 1.38262 h -0.148571 z m 0,-0.71557 h 0.148571 v 0.2547 h -0.148571 z m 0.06519,2.09819 v 0 z"
         style="font-style:normal;font-variant:normal;font-weight:normal;font-stretch:normal;font-size:3.10482645px;line-height:1;font-family:'GillSans Light';-inkscape-font-specification:'GillSans Light, Normal';font-variant-ligatures:normal;font-variant-caps:normal;font-variant-numeric:normal;font-feature-settings:normal;text-align:start;writing-mode:lr-tb;text-anchor:start;fill:#ffffff;fill-opacity:1;stroke-width:0.0776207"
         id="path960" />
      <path
         d="m 39.847151,259.45062 q -0.003,0.0318 -0.003,0.0606 0,0.24256 0.160699,0.40326 0.162215,0.1607 0.394168,0.1607 0.14099,0 0.248628,-0.044 0.109154,-0.0455 0.263789,-0.16373 v 0 0.16676 q -0.231952,0.18647 -0.536674,0.18647 -0.307754,0 -0.498773,-0.21831 -0.189504,-0.21831 -0.189504,-0.51848 0,-0.29562 0.177376,-0.49877 0.178891,-0.20467 0.456324,-0.20467 0.266821,0 0.441164,0.18193 0.174344,0.1804 0.174344,0.48816 v 0 z m 0.01819,-0.12128 h 0.89294 v 0 q -0.0849,-0.40327 -0.436616,-0.40327 -0.180407,0 -0.300173,0.11067 -0.118251,0.10916 -0.156151,0.2926 z m 0.454808,-0.74286 v 0 z m 0.06974,1.60548 v 0 z"
         style="font-style:normal;font-variant:normal;font-weight:normal;font-stretch:normal;font-size:3.10482645px;line-height:1;font-family:'GillSans Light';-inkscape-font-specification:'GillSans Light, Normal';font-variant-ligatures:normal;font-variant-caps:normal;font-variant-numeric:normal;font-feature-settings:normal;text-align:start;writing-mode:lr-tb;text-anchor:start;fill:#ffffff;fill-opacity:1;stroke-width:0.0776207"
         id="path962" />
      <path
         d="m 41.178225,259.95394 q 0.224372,0.12128 0.439648,0.12128 0.13341,0 0.215276,-0.0697 0.08187,-0.0697 0.08187,-0.17283 0,-0.14706 -0.222856,-0.2365 l -0.169795,-0.0713 q -0.335042,-0.13492 -0.335042,-0.36687 0,-0.15919 0.131894,-0.26834 0.131895,-0.10916 0.319882,-0.10916 0.156151,0 0.374459,0.12432 v 0.16676 q -0.231952,-0.15463 -0.385071,-0.15463 -0.134926,0 -0.216792,0.0712 -0.08187,0.0713 -0.08187,0.16373 0,0.0834 0.06519,0.14099 0.06519,0.0561 0.195567,0.10916 l 0.127347,0.0546 q 0.177375,0.0667 0.257725,0.15312 0.08187,0.0864 0.08187,0.23044 0,0.17283 -0.139474,0.27743 -0.137959,0.10309 -0.31685,0.10309 -0.216793,0 -0.422972,-0.12431 z m 0.474517,-1.36746 v 0 z m -0.05458,1.60548 v 0 z"
         style="font-style:normal;font-variant:normal;font-weight:normal;font-stretch:normal;font-size:3.10482645px;line-height:1;font-family:'GillSans Light';-inkscape-font-specification:'GillSans Light, Normal';font-variant-ligatures:normal;font-variant-caps:normal;font-variant-numeric:normal;font-feature-settings:normal;text-align:start;writing-mode:lr-tb;text-anchor:start;fill:#ffffff;fill-opacity:1;stroke-width:0.0776207"
         id="path964" />
      <path
         d="m 43.608419,259.07768 v 0 q -0.260757,-0.25925 -0.260757,-0.48665 0,-0.1986 0.144023,-0.33201 0.145539,-0.13341 0.351719,-0.13341 v 0 q 0.209212,0 0.333526,0.13189 0.12583,0.13038 0.12583,0.30169 0,0.33959 -0.432068,0.567 v 0 l 0.488161,0.49119 v 0 q 0.147055,-0.1986 0.236501,-0.48058 h 0.174343 q -0.115218,0.36991 -0.291077,0.60186 v 0 l 0.436616,0.4533 H 44.70754 l -0.327462,-0.32898 v 0 q -0.315334,0.36233 -0.733758,0.36233 -0.256209,0 -0.407812,-0.14402 -0.150087,-0.14554 -0.150087,-0.35779 0,-0.20921 0.140991,-0.37597 0.140991,-0.16828 0.379007,-0.26985 z m 0.112186,0.1137 v 0 q -0.454808,0.19253 -0.454808,0.50635 0,0.16222 0.104606,0.26985 0.106122,0.10613 0.300173,0.10613 0.327463,0 0.5958,-0.32747 v 0 z m 0.03639,-0.18041 v 0 q 0.391135,-0.1607 0.391135,-0.4351 0,-0.13341 -0.08944,-0.21528 -0.08793,-0.0834 -0.228921,-0.0834 -0.14857,0 -0.238016,0.0894 -0.08945,0.0879 -0.08945,0.20921 0,0.19102 0.254693,0.4351 z"
         style="font-style:normal;font-variant:normal;font-weight:normal;font-stretch:normal;font-size:3.10482645px;line-height:1;font-family:'GillSans Light';-inkscape-font-specification:'GillSans Light, Normal';font-variant-ligatures:normal;font-variant-caps:normal;font-variant-numeric:normal;font-feature-settings:normal;text-align:start;writing-mode:lr-tb;text-anchor:start;fill:#ffffff;fill-opacity:1;stroke-width:0.0776207"
         id="path966" />
      <path
         d="m 10.581737,261.87284 h 0.14857 v 1.38261 h -0.14857 z m 0,-0.71557 h 0.14857 v 0.25469 h -0.14857 z m 0.06519,2.09818 v 0 z"
         style="font-style:normal;font-variant:normal;font-weight:normal;font-stretch:normal;font-size:3.10482645px;line-height:1;font-family:'GillSans Light';-inkscape-font-specification:'GillSans Light, Normal';font-variant-ligatures:normal;font-variant-caps:normal;font-variant-numeric:normal;font-feature-settings:normal;text-align:start;writing-mode:lr-tb;text-anchor:start;fill:#ffffff;fill-opacity:1;stroke-width:0.0776207"
         id="path968" />
      <path
         d="m 11.139635,263.25545 v -1.38261 h 0.148571 v 0.26227 q 0.08945,-0.14099 0.204664,-0.21528 0.115218,-0.0758 0.269853,-0.0758 0.22892,0 0.374459,0.14402 0.145539,0.14251 0.145539,0.42449 v 0.84291 H 12.13415 v -0.80046 q 0,-0.46542 -0.380523,-0.46542 -0.280466,0 -0.465421,0.29714 v 0.96874 z m 0.598831,-1.60547 v 0 z m -0.02274,1.60547 v 0 z"
         style="font-style:normal;font-variant:normal;font-weight:normal;font-stretch:normal;font-size:3.10482645px;line-height:1;font-family:'GillSans Light';-inkscape-font-specification:'GillSans Light, Normal';font-variant-ligatures:normal;font-variant-caps:normal;font-variant-numeric:normal;font-feature-settings:normal;text-align:start;writing-mode:lr-tb;text-anchor:start;fill:#ffffff;fill-opacity:1;stroke-width:0.0776207"
         id="path970" />
      <path
         d="m 13.712335,261.96531 v -0.82017 h 0.148571 v 2.11031 h -0.148571 v -0.11673 q -0.186471,0.14554 -0.404779,0.14554 -0.306238,0 -0.509386,-0.2077 -0.201632,-0.20921 -0.201632,-0.51848 0,-0.30321 0.1986,-0.50787 0.200116,-0.20618 0.50787,-0.20618 0.184955,0 0.409327,0.12128 z m -0.95813,0.58519 q 0,0.26227 0.169796,0.426 0.169795,0.16222 0.418423,0.16222 0.178892,0 0.369911,-0.13644 v -0.86869 q -0.206179,-0.14402 -0.400231,-0.14402 -0.257725,0 -0.407812,0.16676 -0.150087,0.16525 -0.150087,0.39417 z"
         style="font-style:normal;font-variant:normal;font-weight:normal;font-stretch:normal;font-size:3.10482645px;line-height:1;font-family:'GillSans Light';-inkscape-font-specification:'GillSans Light, Normal';font-variant-ligatures:normal;font-variant-caps:normal;font-variant-numeric:normal;font-feature-settings:normal;text-align:start;writing-mode:lr-tb;text-anchor:start;fill:#ffffff;fill-opacity:1;stroke-width:0.0776207"
         id="path972" />
      <path
         d="m 14.268718,261.87284 h 0.148571 v 1.38261 h -0.148571 z m 0,-0.71557 h 0.148571 v 0.25469 h -0.148571 z m 0.06519,2.09818 v 0 z"
         style="font-style:normal;font-variant:normal;font-weight:normal;font-stretch:normal;font-size:3.10482645px;line-height:1;font-family:'GillSans Light';-inkscape-font-specification:'GillSans Light, Normal';font-variant-ligatures:normal;font-variant-caps:normal;font-variant-numeric:normal;font-feature-settings:normal;text-align:start;writing-mode:lr-tb;text-anchor:start;fill:#ffffff;fill-opacity:1;stroke-width:0.0776207"
         id="path974" />
      <path
         d="m 15.308714,263.03563 v 0 l 0.507869,-1.16279 h 0.147055 l -0.606411,1.41142 h -0.09248 l -0.630668,-1.41142 h 0.151603 z"
         style="font-style:normal;font-variant:normal;font-weight:normal;font-stretch:normal;font-size:3.10482645px;line-height:1;font-family:'GillSans Light';-inkscape-font-specification:'GillSans Light, Normal';font-variant-ligatures:normal;font-variant-caps:normal;font-variant-numeric:normal;font-feature-settings:normal;text-align:start;writing-mode:lr-tb;text-anchor:start;fill:#ffffff;fill-opacity:1;stroke-width:0.0776207"
         id="path976" />
      <path
         d="m 16.178914,261.87284 h 0.148571 v 1.38261 h -0.148571 z m 0,-0.71557 h 0.148571 v 0.25469 h -0.148571 z m 0.06519,2.09818 v 0 z"
         style="font-style:normal;font-variant:normal;font-weight:normal;font-stretch:normal;font-size:3.10482645px;line-height:1;font-family:'GillSans Light';-inkscape-font-specification:'GillSans Light, Normal';font-variant-ligatures:normal;font-variant-caps:normal;font-variant-numeric:normal;font-feature-settings:normal;text-align:start;writing-mode:lr-tb;text-anchor:start;fill:#ffffff;fill-opacity:1;stroke-width:0.0776207"
         id="path978" />
      <path
         d="m 17.78742,261.96531 v -0.82017 h 0.148571 v 2.11031 H 17.78742 v -0.11673 q -0.186471,0.14554 -0.40478,0.14554 -0.306237,0 -0.509385,-0.2077 -0.201632,-0.20921 -0.201632,-0.51848 0,-0.30321 0.1986,-0.50787 0.200116,-0.20618 0.507869,-0.20618 0.184956,0 0.409328,0.12128 z m -0.95813,0.58519 q 0,0.26227 0.169795,0.426 0.169795,0.16222 0.418424,0.16222 0.178892,0 0.369911,-0.13644 v -0.86869 q -0.20618,-0.14402 -0.400231,-0.14402 -0.257725,0 -0.407812,0.16676 -0.150087,0.16525 -0.150087,0.39417 z"
         style="font-style:normal;font-variant:normal;font-weight:normal;font-stretch:normal;font-size:3.10482645px;line-height:1;font-family:'GillSans Light';-inkscape-font-specification:'GillSans Light, Normal';font-variant-ligatures:normal;font-variant-caps:normal;font-variant-numeric:normal;font-feature-settings:normal;text-align:start;writing-mode:lr-tb;text-anchor:start;fill:#ffffff;fill-opacity:1;stroke-width:0.0776207"
         id="path980" />
      <path
         d="m 18.319546,261.87284 h 0.148571 v 0.85049 q 0,0.18495 0.101574,0.30017 0.101574,0.11522 0.285013,0.11522 0.274401,0 0.459357,-0.29714 v -0.96874 h 0.14857 v 1.38261 h -0.14857 v -0.23801 q -0.10309,0.14402 -0.212244,0.20618 -0.107638,0.0606 -0.257725,0.0606 -0.212244,0 -0.368395,-0.13796 -0.156151,-0.13796 -0.156151,-0.41842 z m 0.576091,-0.22286 v 0 z m 0.52303,1.60547 v 0 z m -1.291657,-1.41142 v 0 z"
         style="font-style:normal;font-variant:normal;font-weight:normal;font-stretch:normal;font-size:3.10482645px;line-height:1;font-family:'GillSans Light';-inkscape-font-specification:'GillSans Light, Normal';font-variant-ligatures:normal;font-variant-caps:normal;font-variant-numeric:normal;font-feature-settings:normal;text-align:start;writing-mode:lr-tb;text-anchor:start;fill:#ffffff;fill-opacity:1;stroke-width:0.0776207"
         id="path982" />
      <path
         d="m 20.586009,262.4277 v -0.17283 q 0,-0.28653 -0.321398,-0.28653 -0.1986,0 -0.426004,0.16677 v 0 0 -0.14554 q 0.253176,-0.14554 0.448744,-0.14554 0.207696,0 0.327462,0.094 0.119767,0.094 0.119767,0.26986 v 0.85504 q 0,0.0758 0.0288,0.0758 0.05155,0 0.204664,-0.12128 v 0.12431 q -0.08035,0.0576 -0.150087,0.10006 -0.06822,0.0425 -0.122798,0.0425 h -0.01213 q -0.08793,0 -0.09703,-0.1698 -0.201632,0.1698 -0.447229,0.1698 -0.151602,0 -0.265305,-0.10006 -0.112186,-0.10006 -0.112186,-0.25166 0,-0.23347 0.228921,-0.36536 0.230436,-0.13341 0.595799,-0.13948 z m 0,0.12432 q -0.04548,-0.003 -0.06064,-0.003 -0.256209,0 -0.436617,0.10309 -0.178891,0.10309 -0.178891,0.27895 0,0.10461 0.08338,0.16677 0.0849,0.0622 0.212244,0.0622 0.184955,0 0.380523,-0.17586 z m -0.268337,-0.90204 v 0 z m 0.476033,1.60547 v 0 z"
         style="font-style:normal;font-variant:normal;font-weight:normal;font-stretch:normal;font-size:3.10482645px;line-height:1;font-family:'GillSans Light';-inkscape-font-specification:'GillSans Light, Normal';font-variant-ligatures:normal;font-variant-caps:normal;font-variant-numeric:normal;font-feature-settings:normal;text-align:start;writing-mode:lr-tb;text-anchor:start;fill:#ffffff;fill-opacity:1;stroke-width:0.0776207"
         id="path984" />
      <path
         d="m 21.193936,263.25545 v -2.11031 h 0.148571 v 2.11031 z m 0.08035,-2.23159 v 0 z m -0.0091,2.23159 v 0 z"
         style="font-style:normal;font-variant:normal;font-weight:normal;font-stretch:normal;font-size:3.10482645px;line-height:1;font-family:'GillSans Light';-inkscape-font-specification:'GillSans Light, Normal';font-variant-ligatures:normal;font-variant-caps:normal;font-variant-numeric:normal;font-feature-settings:normal;text-align:start;writing-mode:lr-tb;text-anchor:start;fill:#ffffff;fill-opacity:1;stroke-width:0.0776207"
         id="path986" />
      <path
         d="m 21.688162,263.01744 q 0.224372,0.12128 0.439648,0.12128 0.133411,0 0.215276,-0.0697 0.08187,-0.0697 0.08187,-0.17283 0,-0.14705 -0.222856,-0.2365 L 22.0323,262.5884 q -0.335042,-0.13493 -0.335042,-0.36688 0,-0.15918 0.131895,-0.26834 0.131894,-0.10915 0.319882,-0.10915 0.156151,0 0.374459,0.12431 v 0.16677 q -0.231953,-0.15464 -0.385072,-0.15464 -0.134926,0 -0.216792,0.0713 -0.08187,0.0712 -0.08187,0.16373 0,0.0834 0.06519,0.14099 0.06519,0.0561 0.195568,0.10915 l 0.127346,0.0546 q 0.177375,0.0667 0.257725,0.15312 0.08186,0.0864 0.08186,0.23043 0,0.17283 -0.139474,0.27744 -0.137959,0.10309 -0.31685,0.10309 -0.216792,0 -0.422972,-0.12432 z m 0.474517,-1.36746 v 0 z m -0.05458,1.60547 v 0 z"
         style="font-style:normal;font-variant:normal;font-weight:normal;font-stretch:normal;font-size:3.10482645px;line-height:1;font-family:'GillSans Light';-inkscape-font-specification:'GillSans Light, Normal';font-variant-ligatures:normal;font-variant-caps:normal;font-variant-numeric:normal;font-feature-settings:normal;text-align:start;writing-mode:lr-tb;text-anchor:start;fill:#ffffff;fill-opacity:1;stroke-width:0.0776207"
         id="path988" />
      <path
         d="m 23.7348,261.87284 h 0.148571 v 1.38261 H 23.7348 Z m 0,-0.71557 h 0.148571 v 0.25469 H 23.7348 Z m 0.06519,2.09818 v 0 z"
         style="font-style:normal;font-variant:normal;font-weight:normal;font-stretch:normal;font-size:3.10482645px;line-height:1;font-family:'GillSans Light';-inkscape-font-specification:'GillSans Light, Normal';font-variant-ligatures:normal;font-variant-caps:normal;font-variant-numeric:normal;font-feature-settings:normal;text-align:start;writing-mode:lr-tb;text-anchor:start;fill:#ffffff;fill-opacity:1;stroke-width:0.0776207"
         id="path990" />
      <path
         d="m 24.292699,263.25545 v -1.38261 h 0.148571 v 0.26227 q 0.08945,-0.14099 0.204664,-0.21528 0.115218,-0.0758 0.269853,-0.0758 0.22892,0 0.374459,0.14402 0.145539,0.14251 0.145539,0.42449 v 0.84291 h -0.148571 v -0.80046 q 0,-0.46542 -0.380523,-0.46542 -0.280466,0 -0.465421,0.29714 v 0.96874 z m 0.598831,-1.60547 v 0 z m -0.02274,1.60547 v 0 z"
         style="font-style:normal;font-variant:normal;font-weight:normal;font-stretch:normal;font-size:3.10482645px;line-height:1;font-family:'GillSans Light';-inkscape-font-specification:'GillSans Light, Normal';font-variant-ligatures:normal;font-variant-caps:normal;font-variant-numeric:normal;font-feature-settings:normal;text-align:start;writing-mode:lr-tb;text-anchor:start;fill:#ffffff;fill-opacity:1;stroke-width:0.0776207"
         id="path992" />
      <path
         d="m 26.48336,261.14514 h 0.166763 l 0.700406,1.7495 v 0 l 0.709501,-1.7495 h 0.04851 l 0.707985,1.7495 v 0 l 0.701921,-1.7495 h 0.166764 l -0.848976,2.13305 h -0.04093 l -0.711018,-1.78285 v 0 l -0.711017,1.78285 h -0.04093 z"
         style="font-style:normal;font-variant:normal;font-weight:normal;font-stretch:normal;font-size:3.10482645px;line-height:1;font-family:'GillSans Light';-inkscape-font-specification:'GillSans Light, Normal';font-variant-ligatures:normal;font-variant-caps:normal;font-variant-numeric:normal;font-feature-settings:normal;text-align:start;writing-mode:lr-tb;text-anchor:start;fill:#ffffff;fill-opacity:1;stroke-width:0.0776207"
         id="path994" />
      <path
         d="m 29.96871,262.51412 q -0.003,0.0318 -0.003,0.0606 0,0.24256 0.160699,0.40326 0.162215,0.1607 0.394168,0.1607 0.14099,0 0.248628,-0.044 0.109155,-0.0455 0.263789,-0.16373 v 0 0.16677 q -0.231952,0.18647 -0.536674,0.18647 -0.307753,0 -0.498773,-0.21831 -0.189504,-0.21831 -0.189504,-0.51848 0,-0.29563 0.177376,-0.49878 0.178891,-0.20466 0.456324,-0.20466 0.266821,0 0.441165,0.18192 0.174343,0.18041 0.174343,0.48817 v 0 z m 0.01819,-0.12129 h 0.892941 v 0 q -0.0849,-0.40326 -0.436617,-0.40326 -0.180407,0 -0.300173,0.11067 -0.118251,0.10915 -0.156151,0.29259 z m 0.454808,-0.74285 v 0 z m 0.06974,1.60547 v 0 z"
         style="font-style:normal;font-variant:normal;font-weight:normal;font-stretch:normal;font-size:3.10482645px;line-height:1;font-family:'GillSans Light';-inkscape-font-specification:'GillSans Light, Normal';font-variant-ligatures:normal;font-variant-caps:normal;font-variant-numeric:normal;font-feature-settings:normal;text-align:start;writing-mode:lr-tb;text-anchor:start;fill:#ffffff;fill-opacity:1;stroke-width:0.0776207"
         id="path996" />
      <path
         d="m 31.299782,263.01744 q 0.224372,0.12128 0.439648,0.12128 0.133411,0 0.215276,-0.0697 0.08187,-0.0697 0.08187,-0.17283 0,-0.14705 -0.222856,-0.2365 l -0.169796,-0.0713 q -0.335042,-0.13493 -0.335042,-0.36688 0,-0.15918 0.131894,-0.26834 0.131895,-0.10915 0.319883,-0.10915 0.15615,0 0.374459,0.12431 v 0.16677 q -0.231953,-0.15464 -0.385072,-0.15464 -0.134926,0 -0.216792,0.0713 -0.08187,0.0712 -0.08187,0.16373 0,0.0834 0.06519,0.14099 0.06519,0.0561 0.195568,0.10915 l 0.127346,0.0546 q 0.177375,0.0667 0.257725,0.15312 0.08186,0.0864 0.08186,0.23043 0,0.17283 -0.139474,0.27744 -0.137959,0.10309 -0.31685,0.10309 -0.216792,0 -0.422972,-0.12432 z m 0.474517,-1.36746 v 0 z m -0.05458,1.60547 v 0 z"
         style="font-style:normal;font-variant:normal;font-weight:normal;font-stretch:normal;font-size:3.10482645px;line-height:1;font-family:'GillSans Light';-inkscape-font-specification:'GillSans Light, Normal';font-variant-ligatures:normal;font-variant-caps:normal;font-variant-numeric:normal;font-feature-settings:normal;text-align:start;writing-mode:lr-tb;text-anchor:start;fill:#ffffff;fill-opacity:1;stroke-width:0.0776207"
         id="path998" />
      <path
         d="m 32.210915,261.99412 v -0.12128 h 0.374459 v -0.3305 l 0.101574,-0.13038 h 0.047 v 0.46088 h 0.388103 v 0.12128 h -0.388103 v 0.88536 0 0 0 0 0.0713 q 0,0.10612 0.05155,0.14706 0.05154,0.0409 0.153119,0.0409 0.10309,0 0.256209,-0.0682 v 0.1425 q -0.127347,0.0713 -0.288046,0.0713 -0.148571,0 -0.234984,-0.0758 -0.08641,-0.0773 -0.08641,-0.21528 v -0.0106 -0.98845 z m 0.676149,1.26133 v 0 z"
         style="font-style:normal;font-variant:normal;font-weight:normal;font-stretch:normal;font-size:3.10482645px;line-height:1;font-family:'GillSans Light';-inkscape-font-specification:'GillSans Light, Normal';font-variant-ligatures:normal;font-variant-caps:normal;font-variant-numeric:normal;font-feature-settings:normal;text-align:start;writing-mode:lr-tb;text-anchor:start;fill:#ffffff;fill-opacity:1;stroke-width:0.0776207"
         id="path1000" />
      <path
         d="m 34.313647,261.14514 h 0.165247 v 1.97387 h 1.043028 v 0.13644 h -1.208275 z m 0.250145,-0.15463 v 0 z m 0.429036,2.26494 v 0 z m -0.923261,-2.14366 v 0 z"
         style="font-style:normal;font-variant:normal;font-weight:normal;font-stretch:normal;font-size:3.10482645px;line-height:1;font-family:'GillSans Light';-inkscape-font-specification:'GillSans Light, Normal';font-variant-ligatures:normal;font-variant-caps:normal;font-variant-numeric:normal;font-feature-settings:normal;text-align:start;writing-mode:lr-tb;text-anchor:start;fill:#ffffff;fill-opacity:1;stroke-width:0.0776207"
         id="path1002" />
      <path
         d="m 35.741746,261.87284 h 0.148571 v 1.38261 h -0.148571 z m 0,-0.71557 h 0.148571 v 0.25469 h -0.148571 z m 0.06519,2.09818 v 0 z"
         style="font-style:normal;font-variant:normal;font-weight:normal;font-stretch:normal;font-size:3.10482645px;line-height:1;font-family:'GillSans Light';-inkscape-font-specification:'GillSans Light, Normal';font-variant-ligatures:normal;font-variant-caps:normal;font-variant-numeric:normal;font-feature-settings:normal;text-align:start;writing-mode:lr-tb;text-anchor:start;fill:#ffffff;fill-opacity:1;stroke-width:0.0776207"
         id="path1004" />
      <path
         d="m 36.293581,261.87284 h 0.14857 v 0.26227 q 0.100058,-0.15918 0.209212,-0.22437 0.109154,-0.0667 0.234985,-0.0667 0.330494,0 0.466937,0.33959 0.113702,-0.18041 0.233468,-0.25924 0.119766,-0.0804 0.260757,-0.0804 0.20618,0 0.345654,0.15009 0.140991,0.14857 0.140991,0.40629 v 0.85504 h -0.148571 v -0.79136 q 0,-0.22286 -0.101574,-0.34869 -0.101574,-0.12583 -0.272885,-0.12583 -0.115218,0 -0.212244,0.0712 -0.09703,0.0697 -0.210728,0.25015 v 0.94448 h -0.148571 v -0.79591 q 0,-0.2365 -0.10309,-0.35324 -0.103089,-0.11673 -0.277433,-0.11673 -0.234984,0 -0.416908,0.29714 v 0.96874 h -0.14857 z"
         style="font-style:normal;font-variant:normal;font-weight:normal;font-stretch:normal;font-size:3.10482645px;line-height:1;font-family:'GillSans Light';-inkscape-font-specification:'GillSans Light, Normal';font-variant-ligatures:normal;font-variant-caps:normal;font-variant-numeric:normal;font-feature-settings:normal;text-align:start;writing-mode:lr-tb;text-anchor:start;fill:#ffffff;fill-opacity:1;stroke-width:0.0776207"
         id="path1006" />
      <path
         d="m 38.785931,262.51412 q -0.003,0.0318 -0.003,0.0606 0,0.24256 0.160699,0.40326 0.162215,0.1607 0.394168,0.1607 0.14099,0 0.248628,-0.044 0.109154,-0.0455 0.263789,-0.16373 v 0 0.16677 q -0.231952,0.18647 -0.536674,0.18647 -0.307754,0 -0.498773,-0.21831 -0.189504,-0.21831 -0.189504,-0.51848 0,-0.29563 0.177375,-0.49878 0.178892,-0.20466 0.456325,-0.20466 0.266821,0 0.441164,0.18192 0.174344,0.18041 0.174344,0.48817 v 0 z m 0.01819,-0.12129 h 0.892941 v 0 q -0.0849,-0.40326 -0.436616,-0.40326 -0.180407,0 -0.300174,0.11067 -0.11825,0.10915 -0.156151,0.29259 z m 0.454809,-0.74285 v 0 z m 0.06974,1.60547 v 0 z"
         style="font-style:normal;font-variant:normal;font-weight:normal;font-stretch:normal;font-size:3.10482645px;line-height:1;font-family:'GillSans Light';-inkscape-font-specification:'GillSans Light, Normal';font-variant-ligatures:normal;font-variant-caps:normal;font-variant-numeric:normal;font-feature-settings:normal;text-align:start;writing-mode:lr-tb;text-anchor:start;fill:#ffffff;fill-opacity:1;stroke-width:0.0776207"
         id="path1008" />
      <path
         d="m 40.18371,263.25545 v -1.38261 h 0.14857 v 0.37294 q 0.256209,-0.40175 0.498774,-0.40175 0.131894,0 0.325946,0.16373 l -0.08641,0.14099 q -0.174343,-0.15918 -0.280465,-0.15918 -0.215276,0 -0.457841,0.39568 v 0.8702 z m 0.494225,-1.60547 v 0 z m -0.406296,1.60547 v 0 z"
         style="font-style:normal;font-variant:normal;font-weight:normal;font-stretch:normal;font-size:3.10482645px;line-height:1;font-family:'GillSans Light';-inkscape-font-specification:'GillSans Light, Normal';font-variant-ligatures:normal;font-variant-caps:normal;font-variant-numeric:normal;font-feature-settings:normal;text-align:start;writing-mode:lr-tb;text-anchor:start;fill:#ffffff;fill-opacity:1;stroke-width:0.0776207"
         id="path1010" />
      <path
         d="m 41.241899,261.87284 h 0.14857 v 1.38261 h -0.14857 z m 0,-0.71557 h 0.14857 v 0.25469 h -0.14857 z m 0.06519,2.09818 v 0 z"
         style="font-style:normal;font-variant:normal;font-weight:normal;font-stretch:normal;font-size:3.10482645px;line-height:1;font-family:'GillSans Light';-inkscape-font-specification:'GillSans Light, Normal';font-variant-ligatures:normal;font-variant-caps:normal;font-variant-numeric:normal;font-feature-settings:normal;text-align:start;writing-mode:lr-tb;text-anchor:start;fill:#ffffff;fill-opacity:1;stroke-width:0.0776207"
         id="path1012" />
      <path
         d="m 42.818568,263.05685 v 0.15615 q -0.186471,0.0713 -0.371427,0.0713 -0.32443,0 -0.516965,-0.19102 -0.192536,-0.19254 -0.192536,-0.50636 0,-0.32443 0.189504,-0.53364 0.189503,-0.20921 0.494225,-0.20921 0.08641,0 0.168279,0.0167 0.08338,0.0152 0.203148,0.0515 v 0.16373 q -0.209212,-0.0864 -0.365363,-0.0864 -0.24408,0 -0.388103,0.16373 -0.144023,0.16222 -0.144023,0.41539 0,0.25924 0.145539,0.41539 0.147055,0.15464 0.403263,0.15464 0.166764,0 0.374459,-0.0819 z m -0.404779,-1.40687 v 0 z m -0.03335,1.60547 v 0 z"
         style="font-style:normal;font-variant:normal;font-weight:normal;font-stretch:normal;font-size:3.10482645px;line-height:1;font-family:'GillSans Light';-inkscape-font-specification:'GillSans Light, Normal';font-variant-ligatures:normal;font-variant-caps:normal;font-variant-numeric:normal;font-feature-settings:normal;text-align:start;writing-mode:lr-tb;text-anchor:start;fill:#ffffff;fill-opacity:1;stroke-width:0.0776207"
         id="path1014" />
      <path
         d="m 43.088419,261.14514 h 0.148571 v 2.11031 h -0.148571 z m 0.169795,1.3811 0.777723,-0.6534 h 0.195568 l -0.770143,0.6534 0.888393,0.72921 h -0.204664 z m 0.372943,0.72921 v 0 z"
         style="font-style:normal;font-variant:normal;font-weight:normal;font-stretch:normal;font-size:3.10482645px;line-height:1;font-family:'GillSans Light';-inkscape-font-specification:'GillSans Light, Normal';font-variant-ligatures:normal;font-variant-caps:normal;font-variant-numeric:normal;font-feature-settings:normal;text-align:start;writing-mode:lr-tb;text-anchor:start;fill:#ffffff;fill-opacity:1;stroke-width:0.0776207"
         id="path1016" />
    </g>
    <g
       aria-label="FOOD BANK"
       style="font-style:normal;font-variant:normal;font-weight:normal;font-stretch:normal;font-size:8.15484142px;line-height:1.25;font-family:'Bauhaus 93';-inkscape-font-specification:'Bauhaus 93, Normal';font-variant-ligatures:normal;font-variant-caps:normal;font-variant-numeric:normal;font-feature-settings:normal;text-align:start;letter-spacing:0px;word-spacing:0px;writing-mode:lr-tb;text-anchor:start;fill:#ffffff;fill-opacity:1;stroke:none;stroke-width:0.20386778"
       id="text862-1-6-0">
      <path
         d="m 8.2249701,276.085 v 1.45736 H 7.6874195 v 1.41754 H 6.0707859 v -3.37263 q 0,-0.95167 0.5853329,-1.57284 0.5893147,-0.62515 1.4812504,-0.62515 0.9835185,0 1.6445066,0.84814 l -1.3259581,0.96759 q -0.1114919,-0.31059 -0.3942037,-0.31059 -0.3742945,0 -0.3742945,0.51765 v 0.67293 z"
         style="font-style:normal;font-variant:normal;font-weight:normal;font-stretch:normal;font-size:8.15484142px;font-family:'Bauhaus 93';-inkscape-font-specification:'Bauhaus 93, Normal';font-variant-ligatures:normal;font-variant-caps:normal;font-variant-numeric:normal;font-feature-settings:normal;text-align:start;writing-mode:lr-tb;text-anchor:start;fill:#ffffff;fill-opacity:1;stroke-width:0.20386778"
         id="path1019" />
      <path
         d="m 12.692613,273.38928 q 1.154738,0 1.978982,0.84017 0.828226,0.84018 0.828226,2.01084 0,1.19058 -0.832208,2.02279 -0.832208,0.8322 -2.022783,0.8322 -1.182611,0 -2.018801,-0.83619 -0.8361894,-0.83619 -0.8361894,-2.0188 0,-1.19455 0.8401714,-2.02278 0.844154,-0.82823 2.062602,-0.82823 z m -0.04778,1.60071 q -0.497732,0 -0.848135,0.36633 -0.350403,0.36633 -0.350403,0.88397 0,0.51764 0.350403,0.88397 0.354385,0.36633 0.848135,0.36633 0.501714,0 0.848136,-0.36234 0.350403,-0.36633 0.350403,-0.88796 0,-0.52162 -0.350403,-0.88397 -0.346422,-0.36633 -0.848136,-0.36633 z"
         style="font-style:normal;font-variant:normal;font-weight:normal;font-stretch:normal;font-size:8.15484142px;font-family:'Bauhaus 93';-inkscape-font-specification:'Bauhaus 93, Normal';font-variant-ligatures:normal;font-variant-caps:normal;font-variant-numeric:normal;font-feature-settings:normal;text-align:start;writing-mode:lr-tb;text-anchor:start;fill:#ffffff;fill-opacity:1;stroke-width:0.20386778"
         id="path1021" />
      <path
         d="m 18.840599,273.38928 q 1.154738,0 1.978982,0.84017 0.828226,0.84018 0.828226,2.01084 0,1.19058 -0.832208,2.02279 -0.832208,0.8322 -2.022783,0.8322 -1.182611,0 -2.018801,-0.83619 -0.836189,-0.83619 -0.836189,-2.0188 0,-1.19455 0.840171,-2.02278 0.844154,-0.82823 2.062602,-0.82823 z m -0.04778,1.60071 q -0.497732,0 -0.848135,0.36633 -0.350403,0.36633 -0.350403,0.88397 0,0.51764 0.350403,0.88397 0.354385,0.36633 0.848135,0.36633 0.501714,0 0.848136,-0.36234 0.350403,-0.36633 0.350403,-0.88796 0,-0.52162 -0.350403,-0.88397 -0.346422,-0.36633 -0.848136,-0.36633 z"
         style="font-style:normal;font-variant:normal;font-weight:normal;font-stretch:normal;font-size:8.15484142px;font-family:'Bauhaus 93';-inkscape-font-specification:'Bauhaus 93, Normal';font-variant-ligatures:normal;font-variant-caps:normal;font-variant-numeric:normal;font-feature-settings:normal;text-align:start;writing-mode:lr-tb;text-anchor:start;fill:#ffffff;fill-opacity:1;stroke-width:0.20386778"
         id="path1023" />
      <path
         d="m 24.028957,275.08555 v 3.87435 h -1.616634 v -5.43523 h 2.106402 q 1.385686,0 2.170112,0.62913 0.931754,0.75257 0.931754,2.04269 0,1.23438 -0.796371,2.01482 -0.796371,0.78044 -2.050656,0.78044 -0.147329,0 -0.481805,-0.0159 v -1.59673 h 0.258821 q 1.413559,0 1.413559,-1.18261 0,-1.11094 -1.389668,-1.11094 z"
         style="font-style:normal;font-variant:normal;font-weight:normal;font-stretch:normal;font-size:8.15484142px;font-family:'Bauhaus 93';-inkscape-font-specification:'Bauhaus 93, Normal';font-variant-ligatures:normal;font-variant-caps:normal;font-variant-numeric:normal;font-feature-settings:normal;text-align:start;writing-mode:lr-tb;text-anchor:start;fill:#ffffff;fill-opacity:1;stroke-width:0.20386778"
         id="path1025" />
      <path
         d="m 30.423819,273.52467 h 1.975 q 1.755999,0 1.755999,1.3817 0,0.68488 -0.60126,1.13881 0.872026,0.37828 0.872026,1.34985 0,0.74461 -0.513659,1.18659 -0.250857,0.21104 -0.537551,0.29466 -0.286693,0.0836 -0.77248,0.0836 h -0.306603 v -1.39763 h 0.274748 q 0.242893,0 0.34244,-0.0597 0.09955,-0.0637 0.09955,-0.219 0,-0.2628 -0.406149,-0.2628 h -0.310585 v -1.4494 q 0.445968,0 0.445968,-0.3066 0,-0.28271 -0.402167,-0.28271 h -0.29864 v 3.97787 h -1.616633 z"
         style="font-style:normal;font-variant:normal;font-weight:normal;font-stretch:normal;font-size:8.15484142px;font-family:'Bauhaus 93';-inkscape-font-specification:'Bauhaus 93, Normal';font-variant-ligatures:normal;font-variant-caps:normal;font-variant-numeric:normal;font-feature-settings:normal;text-align:start;writing-mode:lr-tb;text-anchor:start;fill:#ffffff;fill-opacity:1;stroke-width:0.20386778"
         id="path1027" />
      <path
         d="m 37.045644,276.23233 v 1.43347 h -0.465877 v 1.2941 h -1.616634 v -3.45625 q 0,-1.00343 0.545515,-1.55691 0.549496,-0.55746 1.540978,-0.55746 0.955645,0 1.413559,0.5057 0.457913,0.50171 0.457913,1.55292 v 3.512 h -1.616633 v -3.40449 q 0,-0.31855 -0.07566,-0.44198 -0.07565,-0.12344 -0.270766,-0.12344 -0.378276,0 -0.378276,0.56542 v 0.67692 z"
         style="font-style:normal;font-variant:normal;font-weight:normal;font-stretch:normal;font-size:8.15484142px;font-family:'Bauhaus 93';-inkscape-font-specification:'Bauhaus 93, Normal';font-variant-ligatures:normal;font-variant-caps:normal;font-variant-numeric:normal;font-feature-settings:normal;text-align:start;writing-mode:lr-tb;text-anchor:start;fill:#ffffff;fill-opacity:1;stroke-width:0.20386778"
         id="path1029" />
      <path
         d="m 39.789143,278.9599 v -3.52792 q 0,-0.92778 0.553478,-1.48524 0.55746,-0.55746 1.48125,-0.55746 0.919809,0 1.405596,0.54154 0.489768,0.54153 0.489768,1.5569 v 3.47218 h -1.616634 v -3.47218 q 0,-0.49773 -0.354385,-0.49773 -0.342439,0 -0.342439,0.49773 v 3.47218 z"
         style="font-style:normal;font-variant:normal;font-weight:normal;font-stretch:normal;font-size:8.15484142px;font-family:'Bauhaus 93';-inkscape-font-specification:'Bauhaus 93, Normal';font-variant-ligatures:normal;font-variant-caps:normal;font-variant-numeric:normal;font-feature-settings:normal;text-align:start;writing-mode:lr-tb;text-anchor:start;fill:#ffffff;fill-opacity:1;stroke-width:0.20386778"
         id="path1031" />
      <path
         d="m 49.429216,273.52467 -1.433468,2.46477 1.425504,2.97046 h -1.815726 l -1.230394,-3.00232 1.39365,-2.43291 z m -3.101866,0 v 5.43523 h -1.616634 v -5.43523 z"
         style="font-style:normal;font-variant:normal;font-weight:normal;font-stretch:normal;font-size:8.15484142px;font-family:'Bauhaus 93';-inkscape-font-specification:'Bauhaus 93, Normal';font-variant-ligatures:normal;font-variant-caps:normal;font-variant-numeric:normal;font-feature-settings:normal;text-align:start;writing-mode:lr-tb;text-anchor:start;fill:#ffffff;fill-opacity:1;stroke-width:0.20386778"
         id="path1033" />
    </g>
    <g
       aria-label="Friday Mornings 10AM
North Quay, NCW"
       style="font-style:normal;font-variant:normal;font-weight:normal;font-stretch:normal;font-size:3.29864955px;line-height:1.25;font-family:'GillSans Light';-inkscape-font-specification:'GillSans Light, Normal';font-variant-ligatures:normal;font-variant-caps:normal;font-variant-numeric:normal;font-feature-settings:normal;text-align:center;letter-spacing:0px;word-spacing:0px;writing-mode:lr-tb;text-anchor:middle;fill:#ffffff;fill-opacity:1;stroke:none;stroke-width:0.08246632"
       id="text862-2-5-0-0">
      <path
         d="m 13.287007,283.23355 v -2.24205 h 1.154849 v 0.14496 h -0.979287 v 0.85365 h 0.884258 v 0.14496 h -0.884258 v 1.09848 z"
         style="font-style:normal;font-variant:normal;font-weight:normal;font-stretch:normal;font-size:3.29864955px;line-height:1;font-family:'GillSans Light';-inkscape-font-specification:'GillSans Light, Normal';font-variant-ligatures:normal;font-variant-caps:normal;font-variant-numeric:normal;font-feature-settings:normal;text-align:center;writing-mode:lr-tb;text-anchor:middle;fill:#ffffff;fill-opacity:1;stroke-width:0.08246632"
         id="path1036" />
      <path
         d="m 14.681846,283.23355 v -1.46893 h 0.157845 v 0.39623 q 0.272203,-0.42683 0.52991,-0.42683 0.140128,0 0.346294,0.17395 l -0.09181,0.14979 q -0.185227,-0.16912 -0.297974,-0.16912 -0.228715,0 -0.486422,0.42039 v 0.92452 z m 0.525078,-1.7057 v 0 z m -0.43166,1.7057 v 0 z"
         style="font-style:normal;font-variant:normal;font-weight:normal;font-stretch:normal;font-size:3.29864955px;line-height:1;font-family:'GillSans Light';-inkscape-font-specification:'GillSans Light, Normal';font-variant-ligatures:normal;font-variant-caps:normal;font-variant-numeric:normal;font-feature-settings:normal;text-align:center;writing-mode:lr-tb;text-anchor:middle;fill:#ffffff;fill-opacity:1;stroke-width:0.08246632"
         id="path1038" />
      <path
         d="m 15.806092,281.76462 h 0.157846 v 1.46893 h -0.157846 z m 0,-0.76023 h 0.157846 v 0.27059 h -0.157846 z m 0.06926,2.22916 v 0 z"
         style="font-style:normal;font-variant:normal;font-weight:normal;font-stretch:normal;font-size:3.29864955px;line-height:1;font-family:'GillSans Light';-inkscape-font-specification:'GillSans Light, Normal';font-variant-ligatures:normal;font-variant-caps:normal;font-variant-numeric:normal;font-feature-settings:normal;text-align:center;writing-mode:lr-tb;text-anchor:middle;fill:#ffffff;fill-opacity:1;stroke-width:0.08246632"
         id="path1040" />
      <path
         d="m 17.515012,281.86287 v -0.87137 h 0.157846 v 2.24205 h -0.157846 v -0.12402 q -0.198112,0.15462 -0.430049,0.15462 -0.325355,0 -0.541184,-0.22066 -0.214219,-0.22227 -0.214219,-0.55085 0,-0.32213 0.210997,-0.53957 0.212609,-0.21905 0.539574,-0.21905 0.196502,0 0.434881,0.12885 z m -1.017943,0.62172 q 0,0.27865 0.180395,0.4526 0.180395,0.17234 0.444545,0.17234 0.190059,0 0.393003,-0.14496 v -0.92291 q -0.219051,-0.15302 -0.425217,-0.15302 -0.273813,0 -0.433269,0.17718 -0.159457,0.17556 -0.159457,0.41877 z"
         style="font-style:normal;font-variant:normal;font-weight:normal;font-stretch:normal;font-size:3.29864955px;line-height:1;font-family:'GillSans Light';-inkscape-font-specification:'GillSans Light, Normal';font-variant-ligatures:normal;font-variant-caps:normal;font-variant-numeric:normal;font-feature-settings:normal;text-align:center;writing-mode:lr-tb;text-anchor:middle;fill:#ffffff;fill-opacity:1;stroke-width:0.08246632"
         id="path1042" />
      <path
         d="m 18.871195,282.35413 v -0.18362 q 0,-0.30442 -0.341462,-0.30442 -0.210997,0 -0.452598,0.17718 v 0 0 -0.15463 q 0.268982,-0.15462 0.476758,-0.15462 0.220662,0 0.347905,0.0999 0.127243,0.0999 0.127243,0.2867 v 0.90842 q 0,0.0805 0.0306,0.0805 0.05476,0 0.217441,-0.12885 v 0.13207 q -0.08537,0.0612 -0.159457,0.10631 -0.07248,0.0451 -0.130464,0.0451 h -0.01288 q -0.09342,0 -0.103083,-0.18039 -0.214219,0.18039 -0.475147,0.18039 -0.161067,0 -0.281867,-0.1063 -0.11919,-0.1063 -0.11919,-0.26737 0,-0.24804 0.243211,-0.38817 0.244822,-0.14174 0.632993,-0.14818 z m 0,0.13207 q -0.04832,-0.003 -0.06443,-0.003 -0.272203,0 -0.463872,0.10952 -0.190059,0.10953 -0.190059,0.29637 0,0.11113 0.08859,0.17717 0.0902,0.066 0.225493,0.066 0.196502,0 0.404278,-0.18684 z m -0.285088,-0.95835 v 0 z m 0.50575,1.7057 v 0 z"
         style="font-style:normal;font-variant:normal;font-weight:normal;font-stretch:normal;font-size:3.29864955px;line-height:1;font-family:'GillSans Light';-inkscape-font-specification:'GillSans Light, Normal';font-variant-ligatures:normal;font-variant-caps:normal;font-variant-numeric:normal;font-feature-settings:normal;text-align:center;writing-mode:lr-tb;text-anchor:middle;fill:#ffffff;fill-opacity:1;stroke-width:0.08246632"
         id="path1044" />
      <path
         d="m 19.306076,281.76462 h 0.165899 l 0.533131,1.02117 v 0 l 0.515414,-1.02117 h 0.161067 l -1.10814,2.21628 H 19.41238 l 0.518635,-1.03888 v 0 z m 0.671649,-0.23677 v 0 z m -0.690977,0.20617 v 0 z"
         style="font-style:normal;font-variant:normal;font-weight:normal;font-stretch:normal;font-size:3.29864955px;line-height:1;font-family:'GillSans Light';-inkscape-font-specification:'GillSans Light, Normal';font-variant-ligatures:normal;font-variant-caps:normal;font-variant-numeric:normal;font-feature-settings:normal;text-align:center;writing-mode:lr-tb;text-anchor:middle;fill:#ffffff;fill-opacity:1;stroke-width:0.08246632"
         id="path1046" />
      <path
         d="m 21.834826,280.9915 h 0.175563 l 0.855265,1.03888 v 0 l 0.855265,-1.03888 h 0.175563 v 2.24205 h -0.175563 v -1.99884 0 l -0.855265,1.05338 v 0 l -0.855265,-1.05338 v 0 1.99884 h -0.175563 z"
         style="font-style:normal;font-variant:normal;font-weight:normal;font-stretch:normal;font-size:3.29864955px;line-height:1;font-family:'GillSans Light';-inkscape-font-specification:'GillSans Light, Normal';font-variant-ligatures:normal;font-variant-caps:normal;font-variant-numeric:normal;font-feature-settings:normal;text-align:center;writing-mode:lr-tb;text-anchor:middle;fill:#ffffff;fill-opacity:1;stroke-width:0.08246632"
         id="path1048" />
      <path
         d="m 24.295927,282.50553 q 0,-0.33019 0.214219,-0.55085 0.214219,-0.22066 0.539574,-0.22066 0.317302,0 0.534742,0.21583 0.219051,0.21422 0.219051,0.54279 0,0.32697 -0.212608,0.54924 -0.212609,0.22227 -0.541185,0.22227 -0.318913,0 -0.536353,-0.21583 -0.21744,-0.21583 -0.21744,-0.54279 z m 0.167509,-0.006 q 0,0.26576 0.172342,0.4381 0.173952,0.17234 0.418774,0.17234 0.252875,0 0.417163,-0.17234 0.164288,-0.17234 0.164288,-0.42844 0,-0.27059 -0.170731,-0.44454 -0.16912,-0.17557 -0.415552,-0.17557 -0.243211,0 -0.415553,0.17073 -0.170731,0.16912 -0.170731,0.43972 z m 0.592727,-0.97124 v 0 z"
         style="font-style:normal;font-variant:normal;font-weight:normal;font-stretch:normal;font-size:3.29864955px;line-height:1;font-family:'GillSans Light';-inkscape-font-specification:'GillSans Light, Normal';font-variant-ligatures:normal;font-variant-caps:normal;font-variant-numeric:normal;font-feature-settings:normal;text-align:center;writing-mode:lr-tb;text-anchor:middle;fill:#ffffff;fill-opacity:1;stroke-width:0.08246632"
         id="path1050" />
      <path
         d="m 26.15625,283.23355 v -1.46893 h 0.157845 v 0.39623 q 0.272203,-0.42683 0.52991,-0.42683 0.140129,0 0.346294,0.17395 l -0.09181,0.14979 q -0.185227,-0.16912 -0.297974,-0.16912 -0.228715,0 -0.486422,0.42039 v 0.92452 z m 0.525078,-1.7057 v 0 z m -0.431659,1.7057 v 0 z"
         style="font-style:normal;font-variant:normal;font-weight:normal;font-stretch:normal;font-size:3.29864955px;line-height:1;font-family:'GillSans Light';-inkscape-font-specification:'GillSans Light, Normal';font-variant-ligatures:normal;font-variant-caps:normal;font-variant-numeric:normal;font-feature-settings:normal;text-align:center;writing-mode:lr-tb;text-anchor:middle;fill:#ffffff;fill-opacity:1;stroke-width:0.08246632"
         id="path1052" />
      <path
         d="m 27.254726,283.23355 v -1.46893 h 0.157845 v 0.27865 q 0.09503,-0.1498 0.21744,-0.22872 0.122411,-0.0805 0.286699,-0.0805 0.243211,0 0.397836,0.15301 0.154624,0.1514 0.154624,0.45099 v 0.89553 h -0.157846 v -0.85043 q 0,-0.49448 -0.404278,-0.49448 -0.297973,0 -0.494475,0.31569 v 1.02922 z m 0.636214,-1.7057 v 0 z m -0.02416,1.7057 v 0 z"
         style="font-style:normal;font-variant:normal;font-weight:normal;font-stretch:normal;font-size:3.29864955px;line-height:1;font-family:'GillSans Light';-inkscape-font-specification:'GillSans Light, Normal';font-variant-ligatures:normal;font-variant-caps:normal;font-variant-numeric:normal;font-feature-settings:normal;text-align:center;writing-mode:lr-tb;text-anchor:middle;fill:#ffffff;fill-opacity:1;stroke-width:0.08246632"
         id="path1054" />
      <path
         d="m 28.897608,281.76462 h 0.157846 v 1.46893 h -0.157846 z m 0,-0.76023 h 0.157846 v 0.27059 h -0.157846 z m 0.06926,2.22916 v 0 z"
         style="font-style:normal;font-variant:normal;font-weight:normal;font-stretch:normal;font-size:3.29864955px;line-height:1;font-family:'GillSans Light';-inkscape-font-specification:'GillSans Light, Normal';font-variant-ligatures:normal;font-variant-caps:normal;font-variant-numeric:normal;font-feature-settings:normal;text-align:center;writing-mode:lr-tb;text-anchor:middle;fill:#ffffff;fill-opacity:1;stroke-width:0.08246632"
         id="path1056" />
      <path
         d="m 29.490335,283.23355 v -1.46893 h 0.157845 v 0.27865 q 0.09503,-0.1498 0.21744,-0.22872 0.122411,-0.0805 0.286699,-0.0805 0.243211,0 0.397836,0.15301 0.154624,0.1514 0.154624,0.45099 v 0.89553 h -0.157846 v -0.85043 q 0,-0.49448 -0.404278,-0.49448 -0.297973,0 -0.494475,0.31569 v 1.02922 z m 0.636214,-1.7057 v 0 z m -0.02416,1.7057 v 0 z"
         style="font-style:normal;font-variant:normal;font-weight:normal;font-stretch:normal;font-size:3.29864955px;line-height:1;font-family:'GillSans Light';-inkscape-font-specification:'GillSans Light, Normal';font-variant-ligatures:normal;font-variant-caps:normal;font-variant-numeric:normal;font-feature-settings:normal;text-align:center;writing-mode:lr-tb;text-anchor:middle;fill:#ffffff;fill-opacity:1;stroke-width:0.08246632"
         id="path1058" />
      <path
         d="m 31.400587,283.23194 q -0.248042,-0.058 -0.248042,-0.20939 0,-0.0805 0.07087,-0.14174 0.07087,-0.0612 0.212608,-0.10469 -0.14496,-0.0258 -0.264149,-0.15946 -0.117579,-0.13529 -0.117579,-0.33501 0,-0.22711 0.157845,-0.37207 0.157846,-0.14496 0.465484,-0.14496 v 0 0 h 0.586283 v 0.12885 0 0 h -0.33663 v 0 q 0.09181,0.0564 0.148182,0.16751 0.05798,0.11114 0.05798,0.22067 0,0.19328 -0.106304,0.32535 -0.104694,0.13208 -0.36079,0.19006 v 0 l -0.178784,0.0499 q -0.183617,0.0515 -0.183617,0.15946 0,0.066 0.06282,0.10308 0.06282,0.037 0.28831,0.0532 l 0.16912,0.01 v 0 0 q 0.438102,0.0338 0.438102,0.3785 0,0.21583 -0.182005,0.32375 -0.182006,0.1063 -0.483201,0.1063 -0.278646,0 -0.449377,-0.0966 -0.185226,-0.10308 -0.185226,-0.28992 0,-0.12724 0.09342,-0.21905 0.09342,-0.0934 0.344683,-0.14335 z m -0.286699,0.3479 q 0,0.26899 0.499308,0.26899 0.212608,0 0.354347,-0.0725 0.143349,-0.0725 0.143349,-0.21261 0,-0.25288 -0.475147,-0.25288 -0.521857,0 -0.521857,0.26898 z m 0.09181,-1.30303 q 0,0.16429 0.106304,0.28187 0.106304,0.11597 0.278645,0.11597 0.169121,0 0.280257,-0.0999 0.111136,-0.10147 0.111136,-0.29153 0,-0.1659 -0.122411,-0.27543 -0.1208,-0.11113 -0.272203,-0.11113 -0.165899,0 -0.273814,0.11113 -0.107914,0.11114 -0.107914,0.26898 z m 0.447765,-0.71835 v 0 z"
         style="font-style:normal;font-variant:normal;font-weight:normal;font-stretch:normal;font-size:3.29864955px;line-height:1;font-family:'GillSans Light';-inkscape-font-specification:'GillSans Light, Normal';font-variant-ligatures:normal;font-variant-caps:normal;font-variant-numeric:normal;font-feature-settings:normal;text-align:center;writing-mode:lr-tb;text-anchor:middle;fill:#ffffff;fill-opacity:1;stroke-width:0.08246632"
         id="path1060" />
      <path
         d="m 32.450744,282.98068 q 0.238379,0.12885 0.467094,0.12885 0.141738,0 0.228714,-0.0741 0.08698,-0.0741 0.08698,-0.18362 0,-0.15623 -0.236769,-0.25126 l -0.180395,-0.0757 q -0.355957,-0.14335 -0.355957,-0.38979 0,-0.16912 0.140128,-0.28508 0.140128,-0.11597 0.339851,-0.11597 0.165899,0 0.397835,0.13207 v 0.17718 q -0.246432,-0.16429 -0.40911,-0.16429 -0.143349,0 -0.230325,0.0757 -0.08698,0.0757 -0.08698,0.17395 0,0.0886 0.06926,0.14979 0.06926,0.0596 0.207776,0.11597 l 0.135297,0.058 q 0.188448,0.0709 0.273813,0.16267 0.08698,0.0918 0.08698,0.24483 0,0.18361 -0.148181,0.29475 -0.146571,0.10952 -0.33663,0.10952 -0.230325,0 -0.449376,-0.13207 z m 0.504139,-1.45283 v 0 z m -0.05798,1.7057 v 0 z"
         style="font-style:normal;font-variant:normal;font-weight:normal;font-stretch:normal;font-size:3.29864955px;line-height:1;font-family:'GillSans Light';-inkscape-font-specification:'GillSans Light, Normal';font-variant-ligatures:normal;font-variant-caps:normal;font-variant-numeric:normal;font-feature-settings:normal;text-align:center;writing-mode:lr-tb;text-anchor:middle;fill:#ffffff;fill-opacity:1;stroke-width:0.08246632"
         id="path1062" />
      <path
         d="m 35.311291,283.23355 h -0.16912 v -2.24205 h 0.16912 z"
         style="font-style:normal;font-variant:normal;font-weight:normal;font-stretch:normal;font-size:3.29864955px;line-height:1;font-family:'GillSans Light';-inkscape-font-specification:'GillSans Light, Normal';font-variant-ligatures:normal;font-variant-caps:normal;font-variant-numeric:normal;font-feature-settings:normal;text-align:center;writing-mode:lr-tb;text-anchor:middle;fill:#ffffff;fill-opacity:1;stroke-width:0.08246632"
         id="path1064" />
      <path
         d="m 36.148839,282.13991 q 0,-0.58145 0.209387,-0.88265 0.209387,-0.30119 0.50736,-0.30119 0.293142,0 0.50414,0.29475 0.210997,0.29314 0.210997,0.86171 0,0.51058 -0.196501,0.83432 -0.196502,0.32214 -0.520246,0.32214 -0.296363,0 -0.50575,-0.29476 -0.209387,-0.29475 -0.209387,-0.83432 z m 0.16912,-0.0274 q 0,0.41072 0.141739,0.70547 0.141739,0.29314 0.401056,0.29314 0.257707,0 0.404278,-0.29153 0.146571,-0.29314 0.146571,-0.71514 0,-0.39783 -0.143349,-0.6942 -0.141739,-0.29636 -0.399446,-0.29636 -0.265761,0 -0.40911,0.3012 -0.141739,0.29958 -0.141739,0.69742 z"
         style="font-style:normal;font-variant:normal;font-weight:normal;font-stretch:normal;font-size:3.29864955px;line-height:1;font-family:'GillSans Light';-inkscape-font-specification:'GillSans Light, Normal';font-variant-ligatures:normal;font-variant-caps:normal;font-variant-numeric:normal;font-feature-settings:normal;text-align:center;writing-mode:lr-tb;text-anchor:middle;fill:#ffffff;fill-opacity:1;stroke-width:0.08246632"
         id="path1066" />
      <path
         d="m 37.706355,283.23355 1.030828,-2.25332 h 0.09503 l 1.030828,2.25332 h -0.180394 l -0.355958,-0.77151 v 0 h -1.085591 v 0 l -0.354347,0.77151 z m 0.600779,-0.91647 v 0 h 0.956738 v 0 l -0.48159,-1.05499 v 0 z m 0.478369,-1.48987 v 0 z m 0.993783,2.40634 v 0 z m -2.085816,-2.27748 v 0 z"
         style="font-style:normal;font-variant:normal;font-weight:normal;font-stretch:normal;font-size:3.29864955px;line-height:1;font-family:'GillSans Light';-inkscape-font-specification:'GillSans Light, Normal';font-variant-ligatures:normal;font-variant-caps:normal;font-variant-numeric:normal;font-feature-settings:normal;text-align:center;writing-mode:lr-tb;text-anchor:middle;fill:#ffffff;fill-opacity:1;stroke-width:0.08246632"
         id="path1068" />
      <path
         d="m 40.151351,280.9915 h 0.175563 l 0.855265,1.03888 v 0 l 0.855265,-1.03888 h 0.175563 v 2.24205 h -0.175563 v -1.99884 0 l -0.855265,1.05338 v 0 l -0.855265,-1.05338 v 0 1.99884 h -0.175563 z"
         style="font-style:normal;font-variant:normal;font-weight:normal;font-stretch:normal;font-size:3.29864955px;line-height:1;font-family:'GillSans Light';-inkscape-font-specification:'GillSans Light, Normal';font-variant-ligatures:normal;font-variant-caps:normal;font-variant-numeric:normal;font-feature-settings:normal;text-align:center;writing-mode:lr-tb;text-anchor:middle;fill:#ffffff;fill-opacity:1;stroke-width:0.08246632"
         id="path1070" />
      <path
         d="m 15.119948,285.11481 h 0.148181 l 1.707309,1.9618 v 0 -1.9618 h 0.175563 v 2.24205 h -0.14496 l -1.710531,-1.96179 v 0 1.96179 h -0.175562 z m 1.079148,-0.16429 v 0 z m -0.09503,2.40634 v 0 z m -1.240215,-2.27748 v 0 z"
         style="font-style:normal;font-variant:normal;font-weight:normal;font-stretch:normal;font-size:3.29864955px;line-height:1;font-family:'GillSans Light';-inkscape-font-specification:'GillSans Light, Normal';font-variant-ligatures:normal;font-variant-caps:normal;font-variant-numeric:normal;font-feature-settings:normal;text-align:center;writing-mode:lr-tb;text-anchor:middle;fill:#ffffff;fill-opacity:1;stroke-width:0.08246632"
         id="path1072" />
      <path
         d="m 17.547225,286.62884 q 0,-0.33019 0.214219,-0.55085 0.214219,-0.22066 0.539574,-0.22066 0.317302,0 0.534742,0.21583 0.219051,0.21422 0.219051,0.5428 0,0.32696 -0.212608,0.54923 -0.212608,0.22228 -0.541185,0.22228 -0.318912,0 -0.536352,-0.21583 -0.217441,-0.21583 -0.217441,-0.5428 z m 0.16751,-0.006 q 0,0.26576 0.172341,0.4381 0.173953,0.17234 0.418774,0.17234 0.252875,0 0.417163,-0.17234 0.164289,-0.17234 0.164289,-0.42844 0,-0.27059 -0.170731,-0.44454 -0.16912,-0.17557 -0.415553,-0.17557 -0.243211,0 -0.415552,0.17074 -0.170731,0.16912 -0.170731,0.43971 z m 0.592726,-0.97124 v 0 z"
         style="font-style:normal;font-variant:normal;font-weight:normal;font-stretch:normal;font-size:3.29864955px;line-height:1;font-family:'GillSans Light';-inkscape-font-specification:'GillSans Light, Normal';font-variant-ligatures:normal;font-variant-caps:normal;font-variant-numeric:normal;font-feature-settings:normal;text-align:center;writing-mode:lr-tb;text-anchor:middle;fill:#ffffff;fill-opacity:1;stroke-width:0.08246632"
         id="path1074" />
      <path
         d="m 19.407548,287.35686 v -1.46893 h 0.157845 v 0.39623 q 0.272203,-0.42683 0.52991,-0.42683 0.140129,0 0.346294,0.17395 l -0.09181,0.14979 q -0.185227,-0.16912 -0.297974,-0.16912 -0.228715,0 -0.486422,0.42039 v 0.92452 z m 0.525078,-1.7057 v 0 z m -0.431659,1.7057 v 0 z"
         style="font-style:normal;font-variant:normal;font-weight:normal;font-stretch:normal;font-size:3.29864955px;line-height:1;font-family:'GillSans Light';-inkscape-font-specification:'GillSans Light, Normal';font-variant-ligatures:normal;font-variant-caps:normal;font-variant-numeric:normal;font-feature-settings:normal;text-align:center;writing-mode:lr-tb;text-anchor:middle;fill:#ffffff;fill-opacity:1;stroke-width:0.08246632"
         id="path1076" />
      <path
         d="m 20.240264,286.01679 v -0.12886 h 0.397835 v -0.35112 l 0.107915,-0.13852 h 0.04993 v 0.48964 h 0.412331 v 0.12886 h -0.412331 v 0.94063 0 0 0 0 0.0757 q 0,0.11275 0.05476,0.15623 0.05476,0.0435 0.162678,0.0435 0.109525,0 0.272203,-0.0725 v 0.1514 q -0.135297,0.0757 -0.306027,0.0757 -0.157846,0 -0.249654,-0.0805 -0.09181,-0.0821 -0.09181,-0.22871 v -0.0113 -1.05015 z m 0.718358,1.34007 v 0 z"
         style="font-style:normal;font-variant:normal;font-weight:normal;font-stretch:normal;font-size:3.29864955px;line-height:1;font-family:'GillSans Light';-inkscape-font-specification:'GillSans Light, Normal';font-variant-ligatures:normal;font-variant-caps:normal;font-variant-numeric:normal;font-feature-settings:normal;text-align:center;writing-mode:lr-tb;text-anchor:middle;fill:#ffffff;fill-opacity:1;stroke-width:0.08246632"
         id="path1078" />
      <path
         d="m 21.504638,285.11481 h 0.157846 v 1.05177 q 0.103083,-0.15463 0.225493,-0.23194 0.124022,-0.0773 0.278646,-0.0773 0.251264,0 0.401057,0.15624 0.151402,0.15462 0.151402,0.41555 v 0.008 0.91969 h -0.157845 v -0.83593 q 0,-0.50898 -0.404278,-0.50898 -0.148181,0 -0.257707,0.0628 -0.109525,0.0628 -0.236768,0.25288 v 1.02921 h -0.157846 z"
         style="font-style:normal;font-variant:normal;font-weight:normal;font-stretch:normal;font-size:3.29864955px;line-height:1;font-family:'GillSans Light';-inkscape-font-specification:'GillSans Light, Normal';font-variant-ligatures:normal;font-variant-caps:normal;font-variant-numeric:normal;font-feature-settings:normal;text-align:center;writing-mode:lr-tb;text-anchor:middle;fill:#ffffff;fill-opacity:1;stroke-width:0.08246632"
         id="path1080" />
      <path
         d="m 25.057774,287.38102 q -0.124022,0 -0.339851,-0.0709 -0.214219,-0.0725 -0.396225,-0.25609 -0.320523,-0.32858 -0.320523,-0.82467 0,-0.48481 0.346294,-0.8166 0.346294,-0.33341 0.84399,-0.33341 0.510582,0 0.848823,0.32535 0.339851,0.32375 0.339851,0.82628 0,0.4687 -0.307638,0.79244 -0.306027,0.32214 -0.758625,0.35757 v 0 q 0.146571,0.11114 0.352736,0.18523 0.206166,0.0741 0.357569,0.0741 0.114357,0 0.21744,-0.0773 l 0.03543,0.0242 -0.194891,0.23193 q -0.584673,-0.0693 -1.024385,-0.4381 z m 0.132074,-2.14058 q -0.418773,0 -0.710304,0.28831 -0.289921,0.2867 -0.289921,0.70548 0,0.41877 0.273814,0.70547 0.273814,0.2867 0.728022,0.2867 0.417163,0 0.708694,-0.28187 0.291531,-0.28348 0.291531,-0.71191 0,-0.43005 -0.285088,-0.71031 -0.283478,-0.28187 -0.716748,-0.28187 z"
         style="font-style:normal;font-variant:normal;font-weight:normal;font-stretch:normal;font-size:3.29864955px;line-height:1;font-family:'GillSans Light';-inkscape-font-specification:'GillSans Light, Normal';font-variant-ligatures:normal;font-variant-caps:normal;font-variant-numeric:normal;font-feature-settings:normal;text-align:center;writing-mode:lr-tb;text-anchor:middle;fill:#ffffff;fill-opacity:1;stroke-width:0.08246632"
         id="path1082" />
      <path
         d="m 26.755419,285.88793 h 0.157845 v 0.90359 q 0,0.1965 0.107915,0.31891 0.107915,0.12241 0.302806,0.12241 0.291531,0 0.488032,-0.31569 v -1.02922 h 0.157846 v 1.46893 h -0.157846 v -0.25287 q -0.109525,0.15301 -0.225493,0.21905 -0.114358,0.0644 -0.273814,0.0644 -0.225493,0 -0.391392,-0.14658 -0.165899,-0.14657 -0.165899,-0.44454 z m 0.612054,-0.23677 v 0 z m 0.555681,1.7057 v 0 z m -1.37229,-1.49953 v 0 z"
         style="font-style:normal;font-variant:normal;font-weight:normal;font-stretch:normal;font-size:3.29864955px;line-height:1;font-family:'GillSans Light';-inkscape-font-specification:'GillSans Light, Normal';font-variant-ligatures:normal;font-variant-caps:normal;font-variant-numeric:normal;font-feature-settings:normal;text-align:center;writing-mode:lr-tb;text-anchor:middle;fill:#ffffff;fill-opacity:1;stroke-width:0.08246632"
         id="path1084" />
      <path
         d="m 29.163368,286.47744 v -0.18362 q 0,-0.30441 -0.341461,-0.30441 -0.210998,0 -0.452598,0.17717 v 0 0 -0.15463 q 0.268981,-0.15462 0.476758,-0.15462 0.220661,0 0.347904,0.0999 0.127243,0.0999 0.127243,0.2867 v 0.90842 q 0,0.0805 0.0306,0.0805 0.05476,0 0.21744,-0.12885 v 0.13207 q -0.08537,0.0612 -0.159456,0.10631 -0.07248,0.0451 -0.130465,0.0451 h -0.01289 q -0.09342,0 -0.103083,-0.1804 -0.214219,0.1804 -0.475147,0.1804 -0.161067,0 -0.281867,-0.10631 -0.119189,-0.1063 -0.119189,-0.26737 0,-0.24804 0.243211,-0.38817 0.244821,-0.14174 0.632992,-0.14818 z m 0,0.13207 q -0.04832,-0.003 -0.06443,-0.003 -0.272203,0 -0.463873,0.10953 -0.190059,0.10952 -0.190059,0.29636 0,0.11114 0.08859,0.17717 0.0902,0.066 0.225493,0.066 0.196502,0 0.404278,-0.18684 z m -0.285088,-0.95835 v 0 z m 0.50575,1.7057 v 0 z"
         style="font-style:normal;font-variant:normal;font-weight:normal;font-stretch:normal;font-size:3.29864955px;line-height:1;font-family:'GillSans Light';-inkscape-font-specification:'GillSans Light, Normal';font-variant-ligatures:normal;font-variant-caps:normal;font-variant-numeric:normal;font-feature-settings:normal;text-align:center;writing-mode:lr-tb;text-anchor:middle;fill:#ffffff;fill-opacity:1;stroke-width:0.08246632"
         id="path1086" />
      <path
         d="m 29.598249,285.88793 h 0.165899 l 0.533131,1.02117 v 0 l 0.515414,-1.02117 h 0.161067 l -1.10814,2.21628 h -0.161067 l 0.518635,-1.03888 v 0 z m 0.671649,-0.23677 v 0 z m -0.690977,0.20617 v 0 z"
         style="font-style:normal;font-variant:normal;font-weight:normal;font-stretch:normal;font-size:3.29864955px;line-height:1;font-family:'GillSans Light';-inkscape-font-specification:'GillSans Light, Normal';font-variant-ligatures:normal;font-variant-caps:normal;font-variant-numeric:normal;font-feature-settings:normal;text-align:center;writing-mode:lr-tb;text-anchor:middle;fill:#ffffff;fill-opacity:1;stroke-width:0.08246632"
         id="path1088" />
      <path
         d="m 31.141269,287.62907 v 0 q 0.07087,-0.11114 0.07087,-0.27221 h -0.07087 v -0.30925 h 0.214219 v 0.21422 q 0,0.32214 -0.214219,0.48159 v 0 z"
         style="font-style:normal;font-variant:normal;font-weight:normal;font-stretch:normal;font-size:3.29864955px;line-height:1;font-family:'GillSans Light';-inkscape-font-specification:'GillSans Light, Normal';font-variant-ligatures:normal;font-variant-caps:normal;font-variant-numeric:normal;font-feature-settings:normal;text-align:center;writing-mode:lr-tb;text-anchor:middle;fill:#ffffff;fill-opacity:1;stroke-width:0.08246632"
         id="path1090" />
      <path
         d="m 32.714893,285.11481 h 0.148182 l 1.707309,1.9618 v 0 -1.9618 h 0.175563 v 2.24205 h -0.14496 l -1.710531,-1.96179 v 0 1.96179 h -0.175563 z m 1.079148,-0.16429 v 0 z m -0.09503,2.40634 v 0 z m -1.240215,-2.27748 v 0 z"
         style="font-style:normal;font-variant:normal;font-weight:normal;font-stretch:normal;font-size:3.29864955px;line-height:1;font-family:'GillSans Light';-inkscape-font-specification:'GillSans Light, Normal';font-variant-ligatures:normal;font-variant-caps:normal;font-variant-numeric:normal;font-feature-settings:normal;text-align:center;writing-mode:lr-tb;text-anchor:middle;fill:#ffffff;fill-opacity:1;stroke-width:0.08246632"
         id="path1092" />
      <path
         d="m 37.131346,285.27105 v 0.19489 q -0.421996,-0.2255 -0.798892,-0.2255 -0.425217,0 -0.702252,0.28509 -0.277035,0.28348 -0.277035,0.71031 0,0.40589 0.265761,0.70064 0.26576,0.29475 0.728022,0.29475 0.354347,0 0.810166,-0.22549 v 0.17878 q -0.196501,0.095 -0.399446,0.1514 -0.202944,0.0564 -0.41072,0.0564 -0.513803,0 -0.848822,-0.3318 -0.333409,-0.3318 -0.333409,-0.82466 0,-0.49126 0.341462,-0.82305 0.341462,-0.33341 0.834326,-0.33341 0.36079,0 0.790839,0.19167 z m -0.790839,-0.32053 v 0 z m 0.0306,2.40634 v 0 z"
         style="font-style:normal;font-variant:normal;font-weight:normal;font-stretch:normal;font-size:3.29864955px;line-height:1;font-family:'GillSans Light';-inkscape-font-specification:'GillSans Light, Normal';font-variant-ligatures:normal;font-variant-caps:normal;font-variant-numeric:normal;font-feature-settings:normal;text-align:center;writing-mode:lr-tb;text-anchor:middle;fill:#ffffff;fill-opacity:1;stroke-width:0.08246632"
         id="path1094" />
      <path
         d="m 37.239261,285.11481 h 0.177174 l 0.744129,1.85871 v 0 l 0.753793,-1.85871 h 0.05154 l 0.752182,1.85871 v 0 l 0.74574,-1.85871 h 0.177174 l -0.901975,2.26621 h -0.04349 l -0.755404,-1.89414 v 0 l -0.755403,1.89414 h -0.04349 z"
         style="font-style:normal;font-variant:normal;font-weight:normal;font-stretch:normal;font-size:3.29864955px;line-height:1;font-family:'GillSans Light';-inkscape-font-specification:'GillSans Light, Normal';font-variant-ligatures:normal;font-variant-caps:normal;font-variant-numeric:normal;font-feature-settings:normal;text-align:center;writing-mode:lr-tb;text-anchor:middle;fill:#ffffff;fill-opacity:1;stroke-width:0.08246632"
         id="path1096" />
    </g>
  </g>
</svg>
