<?xml version="1.0" encoding="UTF-8" standalone="no"?>
<!-- Created with Inkscape (http://www.inkscape.org/) -->

<svg
   xmlns:dc="http://purl.org/dc/elements/1.1/"
   xmlns:cc="http://creativecommons.org/ns#"
   xmlns:rdf="http://www.w3.org/1999/02/22-rdf-syntax-ns#"
   xmlns:svg="http://www.w3.org/2000/svg"
   xmlns="http://www.w3.org/2000/svg"
   xmlns:sodipodi="http://sodipodi.sourceforge.net/DTD/sodipodi-0.dtd"
   xmlns:inkscape="http://www.inkscape.org/namespaces/inkscape"
   width="150mm"
   height="224.71286mm"
   viewBox="0 0 150 224.71286"
   version="1.1"
   id="svg8"
   inkscape:version="0.92.0 r15299"
   sodipodi:docname="JESUS.svg">
  <defs
     id="defs2" />
  <sodipodi:namedview
     id="base"
     pagecolor="#ffffff"
     bordercolor="#666666"
     borderopacity="1.0"
     inkscape:pageopacity="0.0"
     inkscape:pageshadow="2"
     inkscape:zoom="0.83"
     inkscape:cx="48.918509"
     inkscape:cy="491.08186"
     inkscape:document-units="mm"
     inkscape:current-layer="layer1"
     showgrid="false"
     inkscape:window-width="1920"
     inkscape:window-height="1137"
     inkscape:window-x="-8"
     inkscape:window-y="-8"
     inkscape:window-maximized="1"
     showguides="true"
     inkscape:guide-bbox="true"
     fit-margin-top="0"
     fit-margin-left="0"
     fit-margin-right="0"
     fit-margin-bottom="0" />
  <metadata
     id="metadata5">
    <rdf:RDF>
      <cc:Work
         rdf:about="">
        <dc:format>image/svg+xml</dc:format>
        <dc:type
           rdf:resource="http://purl.org/dc/dcmitype/StillImage" />
        <dc:title></dc:title>
      </cc:Work>
    </rdf:RDF>
  </metadata>
  <g
     inkscape:label="Layer 1"
     inkscape:groupmode="layer"
     id="layer1"
     transform="translate(0,-72.287138)"
	 style="fill:#ffffff;fill-opacity:0.85;"
	 >
    <g id="g4815">
		<g id="JESUS">
			<path d="m 47.762339,104.3581 -8.010232,4.51704 q -2.650003,4.48692 -5.330118,8.46191 -2.650002,4.00511 -4.727843,6.59488 -2.047729,2.61988 -3.553412,3.97499 -1.505683,1.38522 -2.228411,1.38522 -0.963637,0 -1.56591,-0.66249 -0.602273,-0.63239 -0.602273,-1.50568 0,-3.25227 3.643752,-8.16078 3.673867,-4.8784 11.593758,-10.38919 3.432957,-6.59487 5.661367,-11.9852 2.228411,-5.39033 3.402844,-9.214754 1.174432,-3.824425 1.626137,-6.14317 0.481819,-2.318746 0.481819,-2.951131 0,-1.294884 -0.993752,-1.294884 -0.813068,0 -2.409092,0.933521 -1.56591,0.933521 -3.402843,2.800562 -1.836933,1.836929 -3.432957,4.276129 -1.596024,2.409086 -2.921025,5.420444 -1.294886,2.981244 -2.017614,5.510784 -0.692614,2.529541 -0.692614,4.065333 0,0.391476 0.120454,1.716476 0.271023,-0.42159 0.662501,-1.02386 0.391477,-0.60228 0.99375,-1.23466 0.602273,-0.632385 1.264774,-1.053976 0.391477,-0.301135 0.933523,-0.481817 0.542046,-0.210795 0.542046,0.03011 0,0.180682 -1.716478,2.288633 -1.716479,2.07784 -2.981252,3.7642 -0.722728,0.96363 -1.927274,1.80681 -1.204546,0.84318 -1.957388,0.84318 -0.903409,0 -1.204546,-0.84318 -0.271023,-0.84318 -0.271023,-2.68011 0,-4.426693 1.505683,-9.847138 1.535796,-5.420444 4.095457,-9.51589 2.077842,-3.252266 5.089208,-5.872148 3.011366,-2.649995 5.842049,-4.12556 2.860797,-1.475566 4.486935,-1.475566 1.987502,0 3.071593,1.264771 1.084091,1.234657 1.084091,3.432948 0,1.084089 -0.271023,2.4392 -0.240909,1.35511 -0.632387,2.740335 -0.391477,1.385225 -1.355113,4.45681 -0.963638,3.071585 -1.264774,4.065332 -0.933523,3.101699 -2.46932,6.384079 -1.505683,3.252267 -4.306253,8.642597 l 6.143186,-3.31249 z" />
			<path d="m 52.640751,103.30413 v 0.75284 q 0,1.7767 0.873297,2.77045 0.873296,0.99374 2.288638,0.99374 1.475568,0 3.041478,-0.69261 1.596025,-0.69261 3.161935,-1.83693 1.56591,-1.14431 3.824434,-3.07158 v 1.83693 q -3.402843,4.09544 -6.384095,6.29373 -2.981252,2.16818 -6.052845,2.16818 -2.680115,0 -4.246025,-2.07783 -1.56591,-2.07784 -1.56591,-5.69147 0,-3.16193 1.475569,-5.721581 1.475569,-2.589767 4.818185,-5.450557 2.288637,-1.957382 4.547162,-2.951131 2.258524,-0.993747 4.035229,-0.993747 1.415342,0 2.228411,0.662498 0.843182,0.632385 0.843182,1.927269 0,1.897156 -1.415342,3.794311 -1.415341,1.867042 -4.336366,3.734083 -2.890911,1.836925 -7.136937,3.553405 z m 0.301137,-1.95738 q 2.710229,-1.05398 4.637503,-2.619886 1.927274,-1.565906 2.830684,-2.981244 0.933524,-1.445452 0.933524,-2.107951 0,-0.692612 -0.632387,-0.692612 -0.542047,0 -1.776706,0.692612 -1.204546,0.692612 -2.46932,1.806815 -1.23466,1.114203 -2.22841,2.619882 -0.993751,1.505678 -1.294888,3.282384 z" />
			<path d="m 65.770305,103.06322 v -0.72273 q 7.769319,-8.19089 10.690342,-11.47327 0.662501,-3.70397 3.192055,-3.70397 0.63238,0 1.355111,0.361363 l 0.180681,0.572158 q -0.120451,0.361363 -0.120451,1.023861 0,0.572159 0.421591,2.138065 0.451701,1.535792 0.692611,2.589767 0.24091,1.053976 0.24091,2.378973 0,1.987496 -0.903411,3.824423 -0.903411,1.80682 -2.619883,3.49318 -1.716483,1.65624 -4.426706,3.40283 1.084091,0.18068 1.716472,0.18068 1.234662,0 2.650003,-0.60227 1.445452,-0.63238 2.921024,-1.65625 1.505682,-1.05397 3.493185,-2.71022 v 2.01761 q -3.854545,3.7642 -6.896029,5.72158 -3.041474,1.92727 -5.239777,1.92727 -2.830684,0 -5.239773,-2.40909 -1.415342,-1.44545 -1.776706,-2.77045 -0.331249,-1.32499 -0.331249,-3.58351 z M 77.002698,98.455842 76.460647,94.05926 q -1.867042,2.10795 -7.980114,8.10055 1.806816,0.39148 2.469317,1.05398 0.662501,0.6625 1.867053,2.55965 2.047722,-0.84318 3.131814,-2.28863 1.114211,-1.47557 1.114211,-4.005106 0,-0.301137 -0.0301,-0.542046 0,-0.240907 -0.0301,-0.481816 z" />
			<path d="m 99.347037,100.17232 q -4.366486,5.7818 -6.655119,8.221 -2.258532,2.4392 -3.703984,2.4392 -1.144322,0 -2.107953,-0.93352 -0.963641,-0.96363 -1.505682,-2.55965 -0.511931,-1.62614 -0.511931,-3.46306 0,-1.20455 0.210791,-2.16818 0.24091,-0.96364 0.873301,-2.107952 0.632381,-1.17443 1.656242,-2.529541 1.053981,-1.355111 2.559663,-3.071585 0.903411,-1.053975 1.505682,-1.776701 0.632391,-0.722726 1.204552,-0.963634 0.602271,-0.271022 1.927272,-0.271022 0.963631,0 1.836933,0.271022 0.873291,0.240908 0.873291,0.511931 0,0.542044 -0.903401,1.957382 -0.873302,1.415338 -2.860804,3.463062 -1.957383,2.017609 -4.547156,3.974988 -0.572161,1.77671 -0.572161,2.71023 0,1.29488 0.993752,1.29488 0.36136,0 1.204541,-0.60227 0.843181,-0.63239 2.830684,-2.37897 2.017612,-1.77671 3.613644,-3.131817 1.174432,-1.023861 2.710224,-3.041471 1.565912,-2.047723 2.529552,-3.071585 2.2284,-2.348859 3.04148,-3.041472 0.81307,-0.722725 1.56591,-0.722725 0.72273,0 0.96363,0.451704 0.27103,0.451703 0.27103,1.836927 0,0.632385 -0.12046,1.023862 -0.12045,0.391476 -0.51193,1.023862 -0.36136,0.602272 -1.50568,2.258519 -1.14433,1.656246 -2.71024,3.914764 -0.84318,1.204542 -1.47556,2.649992 -0.63239,1.41534 -0.63239,2.13807 0,1.5659 1.23466,1.5659 1.02386,0 2.37898,-0.84318 1.35512,-0.84318 4.15568,-3.04147 v 2.01761 q -3.52329,3.25227 -5.20966,4.72783 -1.68636,1.47557 -2.92102,2.22841 -1.234662,0.75284 -2.348864,0.75284 -2.529553,0 -2.529553,-3.01136 0,-1.14432 0.752841,-3.07159 0.752841,-1.95738 2.439213,-5.63123 z" />
			<path d="m 108.77261,103.06322 v -0.72273 q 7.76932,-8.19089 10.69035,-11.47327 0.66249,-3.70397 3.19205,-3.70397 0.63238,0 1.35511,0.361363 l 0.18068,0.572158 q -0.12045,0.361363 -0.12045,1.023861 0,0.572159 0.42159,2.138065 0.4517,1.535792 0.69261,2.589767 0.24091,1.053976 0.24091,2.378973 0,1.987496 -0.90341,3.824423 -0.90341,1.80682 -2.61988,3.49318 -1.71649,1.65624 -4.42671,3.40283 1.08409,0.18068 1.71647,0.18068 1.23466,0 2.65001,-0.60227 1.44545,-0.63238 2.92102,-1.65625 1.50568,-1.05397 3.49318,-2.71022 v 2.01761 q -3.85454,3.7642 -6.89602,5.72158 -3.04148,1.92727 -5.23978,1.92727 -2.83068,0 -5.23978,-2.40909 -1.41534,-1.44545 -1.7767,-2.77045 -0.33125,-1.32499 -0.33125,-3.58351 z M 120.005,98.455842 119.46296,94.05926 q -1.86705,2.10795 -7.98012,8.10055 1.80682,0.39148 2.46932,1.05398 0.6625,0.6625 1.86705,2.55965 2.04772,-0.84318 3.13181,-2.28863 1.11421,-1.47557 1.11421,-4.005106 0,-0.301137 -0.0301,-0.542046 0,-0.240907 -0.0301,-0.481816 z" />
		</g>
		
		<path id="ANSWERED" d="m 65.298745,116.98216 c -0.787315,0 -1.464703,0.27329 -1.968966,0.80516 -0.50441,0.53202 -0.75684,1.23234 -0.75684,2.05354 0,0.55091 0.09731,1.03942 0.297612,1.45741 0.193482,0.40375 0.484497,0.8355 0.873124,1.30257 l 0.977585,1.17677 c 0.362548,0.43271 0.607158,0.77456 0.727277,1.00064 v 0.002 l 0.002,0.002 c 0.121811,0.2201 0.181325,0.45403 0.181325,0.71613 0,0.38193 -0.111328,0.6621 -0.342943,0.89419 h -0.002 v 0.002 c -0.226392,0.23158 -0.494563,0.34064 -0.863271,0.34064 -0.21898,0 -0.447373,-0.0502 -0.689827,-0.15871 l -0.0039,-0.002 c -0.263488,-0.12421 -0.442061,-0.22428 -0.490764,-0.25935 l -0.0059,-0.002 -0.0039,-0.004 c -0.03314,-0.0217 -0.06945,-0.0408 -0.110372,-0.0542 l -0.333088,-0.10839 v 1.78644 l 0.157675,0.0639 c 0.641838,0.25785 1.195072,0.39291 1.675296,0.39291 0.835198,0 1.546595,-0.27142 2.075396,-0.80903 0.533657,-0.54234 0.802171,-1.26022 0.802171,-2.09999 0,-0.67243 -0.161811,-1.28361 -0.486821,-1.81354 -0.304773,-0.50614 -0.742188,-1.08867 -1.312644,-1.75548 l -0.002,-0.002 c -0.553958,-0.65957 -0.908519,-1.14429 -1.046567,-1.40515 -0.145118,-0.27993 -0.210891,-0.52831 -0.210891,-0.74709 0,-0.32112 0.102653,-0.56837 0.327176,-0.79355 0.229776,-0.22479 0.477996,-0.32709 0.796259,-0.32709 0.322979,0 0.713694,0.10912 1.164823,0.34645 l 0.370537,0.19548 v -0.41419 -1.31419 l -0.141908,-0.0677 c -0.550216,-0.26428 -1.103819,-0.40064 -1.655587,-0.40064 z m -14.748521,0.16645 -2.443962,11.12511 h 1.913779 l 0.4001,-2.10386 h 1.866478 l 0.398129,2.10386 h 1.93349 l -0.06701,-0.30194 -2.396659,-10.82317 z m 5.100784,0 v 11.12511 h 1.811291 v -6.25545 l 2.367096,6.25545 h 1.574778 v -0.24774 -10.87737 h -1.787639 v 6.26126 l -2.374979,-6.26126 z m 12.466177,0 1.894074,11.12511 h 1.57478 l 1.07613,-6.37739 1.10569,6.37739 h 1.58858 l 1.957145,-11.12511 h -0.29958 -1.505805 l -1.03868,6.16836 -1.03869,-6.16836 h -1.42104 l -1.09585,6.19933 -1.016998,-6.19933 z m 10.197639,0 v 11.12511 h 4.42278 v -0.24774 -1.42451 h -2.47353 v -3.16644 h 2.22716 v -1.70515 h -2.22716 v -2.86644 h 2.40454 v -1.71483 z m 5.60731,0 v 11.12511 h 1.967 v -4.08579 l 1.39147,4.08579 h 2.05176 l -0.12023,-0.33097 -1.80539,-4.95288 c 0.46321,-0.22455 0.88248,-0.4911 1.11555,-0.89031 0.27916,-0.47813 0.39813,-1.13674 0.39813,-1.98387 0,-0.9434 -0.21427,-1.69001 -0.68194,-2.2045 -0.46767,-0.51449 -1.17073,-0.76258 -2.04189,-0.76258 z m 6.38978,0 v 11.12511 h 4.42081 v -0.24774 -1.42451 h -2.47352 v -3.16644 h 2.22715 v -1.70515 h -2.22715 v -2.86644 h 2.40454 v -1.71483 z m 5.69206,0 v 0.24774 10.87737 h 2.10299 c 1.36108,0 2.379766,-0.43985 2.934726,-1.32774 0.5518,-0.88283 0.79232,-2.30105 0.79232,-4.28514 0,-2.05757 -0.27249,-3.4825 -0.91846,-4.30449 -0.61471,-0.7949 -1.492026,-1.20774 -2.552366,-1.20774 z m 1.96503,1.60064 c 0.73768,0.0146 1.17138,0.25048 1.41316,0.76258 v 0.002 c 0.25941,0.53888 0.41784,1.60089 0.41784,3.13159 0,1.20184 -0.0801,2.09748 -0.22863,2.66515 l -0.002,0.002 c -0.14486,0.57429 -0.36248,0.92974 -0.60704,1.10129 -0.20317,0.1425 -0.58461,0.19643 -0.99336,0.23032 z m -12.07987,0.06 c 0.36652,0.0335 0.67328,0.10107 0.80808,0.26322 h 0.002 v 0.002 c 0.16987,0.19937 0.28973,0.59952 0.28973,1.20968 0,0.63643 -0.13126,1.03274 -0.30944,1.2116 -0.13851,0.13911 -0.4614,0.1928 -0.79034,0.24 z m -34.542652,2.30708 0.650409,3.48192 h -1.273225 z" />
		
		<rect 
         y="133.39214"
         x="-3.5527137e-015"
         height="2"
         width="150"
         id="LINE"
		/>
		
		<g id="IAM">
			<path d="m 24.503564,141.35477 v 0.53156 57.54298 h 7.751055 v -58.07454 z" />
			<path d="m 66.126674,141.35477 -11.091045,58.07454 h 7.468129 l 1.859225,-11.27687 h 9.869323 c 0.596429,3.61426 1.19298,7.22864 1.789408,10.84291 l 0.07168,0.43396 h 7.54713 l -0.123092,-0.64576 -11.048786,-57.42878 z m 3.154439,16.18338 c 1.28883,7.92625 2.578422,15.85256 3.867252,23.77881 h -7.62429 c 1.114079,-7.17471 2.227753,-14.34913 3.341832,-21.52385 0.173688,-0.79364 0.308425,-1.44635 0.415206,-2.25496 z" />
			<path d="m 93.717414,141.35477 -0.04223,0.47965 c -1.649733,19.00341 -3.299626,38.00801 -4.949359,57.01142 l -0.04957,0.58347 H 95.9625 l 0.0349,-0.48796 c 0.776485,-10.67507 1.553055,-21.35115 2.32954,-32.02623 l -0.0056,0.054 c 0.08597,-0.52012 0.08579,-1.07181 0.102886,-1.61752 2.009294,11.21692 4.018484,22.43512 6.027774,33.65205 l 0.0771,0.42566 h 5.0008 l 6.05349,-32.04492 c 0.15038,-0.59469 0.26786,-1.06973 0.36928,-1.69226 0.76998,11.08197 1.53935,22.16518 2.30933,33.24715 l 0.0349,0.49003 h 7.24584 l -0.0478,-0.58139 C 123.91119,179.8445 122.32775,160.83991 120.744,141.8365 l -0.0404,-0.48173 h -6.67263 l -0.0771,0.42566 c -2.11013,11.70163 -4.21894,23.40389 -6.32907,35.10552 -0.21541,0.88201 -0.38314,1.62718 -0.52728,2.50828 -2.21104,-12.53677 -4.42117,-25.07495 -6.63221,-37.61172 l -0.0753,-0.42774 z" />
		</g>
	  
		<g id="THEWAY">
			<circle
				r="1.25"
				cy="206.44214"
				cx="54.75"
				id="DOT1"
			/>
			<circle
				r="1.25"
				cy="206.44214"
				cx="95.949997"
				id="DOT2"
			/>
			<path d="m 26.640915,203.22786 h -1.12975 v 7.05176 h -0.996497 v -7.05176 h -1.123957 v -0.91271 h 3.250204 z" />
			<path d="m 27.672173,202.31515 h 0.996498 v 3.10076 h 1.535301 v -3.10076 h 0.996497 v 7.96447 h -0.996497 v -3.95724 h -1.535301 v 3.95724 h -0.996498 z" />
			<path d="m 35.302329,210.27962 h -2.670845 v -7.96447 h 2.624497 v 0.91271 h -1.639586 v 2.51939 h 1.51792 v 0.90647 h -1.51792 v 2.74443 h 1.685934 z" />
			<path d="m 44.131758,202.31515 -1.274589,7.96447 h -0.793722 l -0.886418,-5.62014 h -0.02897 l -0.863245,5.62014 h -0.782135 l -1.234035,-7.96447 h 0.863245 l 0.822689,5.50761 h 0.02317 l 0.88642,-5.50761 h 0.677849 l 0.840071,5.4826 h 0.02897 l 0.840071,-5.4826 z" />
			<path d="m 48.494331,210.27962 h -0.961735 l -0.272299,-1.57539 h -1.558475 l -0.272299,1.57539 h -0.950148 l 1.593237,-7.96447 h 0.816895 z m -1.367286,-2.38184 -0.643089,-3.77594 h -0.02317 l -0.614121,3.77594 z" />
			<path d="m 52.457146,202.31515 -1.43681,4.56987 v 3.3946 h -0.996497 v -3.34458 l -1.402049,-4.61989 h 0.984911 l 0.915387,3.57587 h 0.02317 l 0.926975,-3.57587 z" />
			<path d="m 60.568172,203.22786 h -1.12975 v 7.05176 h -0.996497 v -7.05176 h -1.123957 v -0.91271 h 3.250204 z" />
			<path d="m 61.59943,202.31515 h 0.996497 v 3.10076 h 1.535301 v -3.10076 h 0.996497 v 7.96447 h -0.996497 v -3.95724 h -1.535301 v 3.95724 H 61.59943 Z" />
			<path d="m 69.229587,210.27962 h -2.670844 v -7.96447 h 2.624495 v 0.91271 h -1.639586 v 2.51939 h 1.51792 v 0.90647 h -1.51792 v 2.74443 h 1.685935 z" />
			<path d="m 75.376585,203.22786 h -1.12975 v 7.05176 h -0.996498 v -7.05176 h -1.123956 v -0.91271 h 3.250204 z" />
			<path d="m 79.658046,210.27962 h -1.03126 l -1.158716,-3.73843 h -0.0869 v 3.73843 h -0.996497 v -7.96447 h 1.378874 q 1.685934,0 1.685934,2.03799 0,0.92524 -0.249124,1.39411 -0.249124,0.46886 -0.811102,0.70641 z m -2.276881,-4.46986 q 0.579359,-0.0125 0.834277,-0.29383 0.260712,-0.28757 0.260712,-1.03775 0,-0.71893 -0.237538,-1.02526 -0.231744,-0.30632 -0.799515,-0.30632 h -0.05793 z" />
			<path d="m 84.148078,208.3979 q 0,1.99425 -1.656966,1.99425 -1.819187,0 -1.819187,-1.98175 v -6.08276 h 0.98491 v 5.63265 q 0,0.90647 0.144839,1.25656 0.144841,0.34384 0.631502,0.34384 0.486661,0 0.608326,-0.36259 0.121666,-0.36885 0.121666,-1.30032 v -5.57014 h 0.98491 z" />
			<path d="m 88.423747,203.22786 h -1.12975 v 7.05176 h -0.996498 v -7.05176 h -1.123955 v -0.91271 h 3.250203 z" />
			<path d="m 89.455005,202.31515 h 0.996497 v 3.10076 h 1.535301 v -3.10076 h 0.996498 v 7.96447 h -0.996498 v -3.95724 h -1.535301 v 3.95724 h -0.996497 z" />
			<path d="m 101.54043,203.22786 h -1.12975 v 7.05176 h -0.996497 v -7.05176 H 98.29023 v -0.91271 h 3.2502 z" />
			<path d="m 102.57169,202.31515 h 0.9965 v 3.10076 h 1.5353 v -3.10076 h 0.99649 v 7.96447 h -0.99649 v -3.95724 h -1.5353 v 3.95724 h -0.9965 z" />
			<path d="M 110.20185,210.27962 H 107.531 v -7.96447 h 2.6245 v 0.91271 h -1.63959 v 2.51939 h 1.51792 v 0.90647 h -1.51792 v 2.74443 h 1.68594 z" />
			<path d="m 116.18082,210.27962 h -2.67084 v -7.96447 h 0.9965 v 7.0705 h 1.67434 z" />
			<path d="m 117.52494,202.31515 h 0.99651 v 7.96447 h -0.99651 z" />
			<path d="m 122.76234,203.22786 h -1.69752 v 2.50688 h 1.51792 v 0.90647 h -1.51792 v 3.63841 h -0.98491 v -7.96447 h 2.68243 z" />
			<path d="m 126.60929,210.27962 h -2.67085 v -7.96447 h 2.62449 v 0.91271 h -1.63958 v 2.51939 h 1.51792 v 0.90647 h -1.51792 v 2.74443 h 1.68594 z" />
		</g>
	
		<g id="NOONECOMES">
			<path d="m 38.919942,214.02435 q 0.292976,0.41857 1.015651,1.29707 l 1.562542,1.9172 1.503946,1.83968 q 0.04883,-0.93534 0.04883,-2.4288 0,-1.12137 -0.04395,-1.49861 -0.04395,-0.3824 -0.327157,-0.64078 -0.278328,-0.25839 -0.698261,-0.25839 -0.195317,0 -0.195317,-0.0879 0,-0.0516 0.03907,-0.0723 0.04395,-0.0258 0.659198,-0.0465 0.61525,-0.0258 1.035183,-0.0258 l 0.659197,0.005 h 0.107425 q 0.151371,0 0.151371,0.093 0,0.0827 -0.131839,0.0982 -0.493177,0.0569 -0.71291,0.27388 -0.214849,0.21188 -0.258795,0.61495 -0.03907,0.40308 -0.03907,2.71301 l -0.04883,2.72852 q 0,0.2067 -0.09766,0.2067 -0.02442,0 -0.06837,-0.0207 -0.03907,-0.0258 -0.434581,-0.52193 -0.395519,-0.50126 -0.976589,-1.19889 -0.576187,-0.69763 -0.908227,-1.13172 -0.727558,-0.93534 -0.917993,-1.15238 -0.708027,-0.79581 -0.834983,-1.0232 -0.08301,-0.15502 -0.151372,-0.15502 -0.05372,0 -0.05372,0.20153 l 0.0098,0.80099 q 0,1.52446 0.07813,2.43396 0.07813,0.90951 0.161137,1.0697 0.08789,0.15503 0.29786,0.31523 0.214849,0.16019 0.454113,0.16019 0.322274,0 0.322274,0.12403 0,0.093 -0.180668,0.093 l -2.348695,-0.005 q -0.166021,0 -0.166021,-0.0879 0,-0.10335 0.161138,-0.10335 0.600602,0 0.800802,-0.27905 0.2002,-0.28423 0.2002,-1.1989 l -0.03907,-1.81384 q 0,-1.60714 -0.08301,-1.89136 -0.08301,-0.28938 -0.375986,-0.69763 -0.288094,-0.41341 -0.659197,-0.46509 -0.166021,-0.0207 -0.166021,-0.093 0,-0.0981 0.214849,-0.0981 z" />
			<path d="m 45.062682,217.32647 q 0,-0.69763 0.400402,-1.52963 0.400401,-0.83715 1.167023,-1.37975 0.771505,-0.54261 1.738328,-0.54261 1.352574,0 2.231504,1.02319 0.883813,1.0232 0.883813,2.33578 0,1.39527 -0.976588,2.50631 -0.97659,1.10587 -2.348696,1.10587 -1.313512,0 -2.20709,-0.97151 -0.888696,-0.97152 -0.888696,-2.54765 z m 1.088897,-0.16536 q 0,0.84232 0.244147,1.73116 0.244147,0.88367 0.766622,1.28674 0.522475,0.3979 1.118194,0.3979 0.961939,0 1.538127,-0.98701 0.58107,-0.99219 0.58107,-2.29444 0,-1.2609 -0.590837,-2.21175 -0.590835,-0.95602 -1.543009,-0.95602 -0.717793,0 -1.196321,0.51161 -0.478528,0.50642 -0.69826,1.21439 -0.219733,0.70797 -0.219733,1.30742 z" />
			<path d="m 54.848098,217.32647 q 0,-0.69763 0.400402,-1.52963 0.400401,-0.83715 1.167023,-1.37975 0.771505,-0.54261 1.738327,-0.54261 1.352575,0 2.231505,1.02319 0.883813,1.0232 0.883813,2.33578 0,1.39527 -0.976589,2.50631 -0.976588,1.10587 -2.348696,1.10587 -1.313511,0 -2.207089,-0.97151 -0.888696,-0.97152 -0.888696,-2.54765 z m 1.088897,-0.16536 q 0,0.84232 0.244147,1.73116 0.244146,0.88367 0.766622,1.28674 0.522475,0.3979 1.118193,0.3979 0.96194,0 1.538127,-0.98701 0.58107,-0.99219 0.58107,-2.29444 0,-1.2609 -0.590836,-2.21175 -0.590836,-0.95602 -1.54301,-0.95602 -0.717792,0 -1.19632,0.51161 -0.478528,0.50642 -0.698261,1.21439 -0.219732,0.70797 -0.219732,1.30742 z" />
			<path d="m 63.490906,214.02435 q 0.292977,0.41857 1.015652,1.29707 l 1.562541,1.9172 1.503946,1.83968 q 0.04883,-0.93534 0.04883,-2.4288 0,-1.12137 -0.04395,-1.49861 -0.04395,-0.3824 -0.327157,-0.64078 -0.278328,-0.25839 -0.698261,-0.25839 -0.195317,0 -0.195317,-0.0879 0,-0.0516 0.03907,-0.0723 0.04395,-0.0258 0.659197,-0.0465 0.615251,-0.0258 1.035183,-0.0258 l 0.659198,0.005 h 0.107424 q 0.151371,0 0.151371,0.093 0,0.0827 -0.131839,0.0982 -0.493177,0.0569 -0.712909,0.27388 -0.21485,0.21188 -0.258796,0.61495 -0.03907,0.40308 -0.03907,2.71301 l -0.04883,2.72852 q 0,0.2067 -0.09766,0.2067 -0.02442,0 -0.06837,-0.0207 -0.03907,-0.0258 -0.434582,-0.52193 -0.395518,-0.50126 -0.976588,-1.19889 -0.576188,-0.69763 -0.908228,-1.13172 -0.727558,-0.93534 -0.917993,-1.15238 -0.708027,-0.79581 -0.834983,-1.0232 -0.08301,-0.15502 -0.151372,-0.15502 -0.05372,0 -0.05372,0.20153 l 0.0098,0.80099 q 0,1.52446 0.07813,2.43396 0.07813,0.90951 0.161138,1.0697 0.08789,0.15503 0.297859,0.31523 0.21485,0.16019 0.454113,0.16019 0.322274,0 0.322274,0.12403 0,0.093 -0.180668,0.093 l -2.348695,-0.005 q -0.16602,0 -0.16602,-0.0879 0,-0.10335 0.161137,-0.10335 0.600602,0 0.800802,-0.27905 0.200201,-0.28423 0.200201,-1.1989 l -0.03907,-1.81384 q 0,-1.60714 -0.083,-1.89136 -0.08301,-0.28938 -0.375988,-0.69763 -0.288093,-0.41341 -0.659196,-0.46509 -0.16602,-0.0207 -0.16602,-0.093 0,-0.0981 0.214849,-0.0981 z" />
			<path d="m 74.775388,214.05019 q 0.141605,0.57877 0.278328,1.62263 -0.02442,0.0413 -0.05372,0.0413 -0.03418,0 -0.07325,-0.0413 -0.336923,-0.57361 -0.644548,-0.87333 -0.307626,-0.29972 -0.620134,-0.42375 -0.307625,-0.12919 -1.064482,-0.12919 -0.712909,0 -1.127958,0.0879 -0.03907,0.0516 -0.03907,0.1912 0,0.0362 -0.0098,0.12919 -0.04883,0.41341 -0.04883,2.24275 0,0.0775 0.0098,0.21705 0.371103,0.0155 0.507825,0.0155 0.615251,0 0.888696,-0.1912 0.278327,-0.19638 0.483411,-0.83716 0.03418,-0.10852 0.09766,-0.10852 0.09277,0 0.09277,0.14986 l -0.01953,0.2067 q -0.03907,0.40825 -0.03907,0.84233 0,0.7028 0.02442,1.26607 0,0.1757 -0.09277,0.1757 -0.06837,0 -0.09277,-0.12402 -0.102541,-0.60978 -0.429699,-0.87849 -0.327156,-0.26872 -1.420936,-0.26872 -0.01465,0.37723 -0.01465,1.21956 0,1.09037 0.07325,1.38493 0.07325,0.29455 0.351572,0.47026 0.278328,0.17052 0.942408,0.17052 1.899465,0 2.451237,-1.38492 0.06837,-0.17053 0.141605,-0.17053 0.07813,0 0.07813,0.11368 0,0.062 -0.02442,0.13436 -0.0293,0.0981 -0.141605,0.73381 -0.02442,0.13435 -0.185552,0.80615 l -2.045953,-0.005 q -0.439465,0 -1.29398,-0.0413 -0.849632,-0.0362 -1.508829,-0.0414 -0.654314,0 -0.683612,-0.0258 -0.0293,-0.0258 -0.0293,-0.0569 0,-0.10334 0.161137,-0.10334 0.542006,0 0.712909,-0.3049 0.170903,-0.30489 0.170903,-1.48312 l -0.0049,-1.05936 0.01465,-0.99219 q 0,-0.29972 -0.03418,-1.13171 -0.0293,-0.83716 -0.0586,-0.95601 -0.02442,-0.11886 -0.15137,-0.23255 -0.122074,-0.11885 -0.54689,-0.23771 -0.126957,-0.0362 -0.126957,-0.11369 0,-0.093 0.170903,-0.093 l 0.99612,0.0569 q 0.527358,0.0258 2.592843,0.0258 1.357458,0 1.386756,0.005 z" />
			<path d="m 83.696522,214.41709 q 0.268562,-0.25322 0.307625,-0.34107 0.04883,-0.12402 0.141606,-0.12402 0.09766,0 0.107424,0.18603 l 0.112309,1.80351 q 0,0.15503 -0.01465,0.19121 -0.0098,0.031 -0.06837,0.031 -0.07812,0 -0.166019,-0.22221 -0.322275,-0.82166 -0.898462,-1.34875 -0.58107,-0.52194 -1.259798,-0.52194 -0.59572,0 -1.09378,0.40825 -0.49806,0.40307 -0.776387,1.15755 -0.273446,0.74931 -0.273446,1.6123 0,1.46761 0.761739,2.38746 0.766623,0.91467 1.70903,0.91467 0.639665,0 1.17679,-0.42891 0.537123,-0.42892 0.810568,-0.99219 0.07325,-0.15503 0.151371,-0.15503 0.107424,0 0.107424,0.12402 0,0.14986 -0.371103,0.65629 -0.371104,0.50643 -0.976588,0.82165 -0.600602,0.31523 -1.29398,0.31523 -0.815451,0 -1.552775,-0.43925 -0.732442,-0.43924 -1.162141,-1.21439 -0.429698,-0.77515 -0.429698,-1.81902 0,-1.02319 0.415049,-1.84484 0.419933,-0.82166 1.17679,-1.27641 0.756856,-0.45476 1.562541,-0.45476 0.429699,0 0.878929,0.1447 0.449231,0.13952 0.917994,0.42892 z" />
			<path d="m 85.161405,217.32647 q 0,-0.69763 0.400401,-1.52963 0.400401,-0.83715 1.167023,-1.37975 0.771505,-0.54261 1.738328,-0.54261 1.352574,0 2.231504,1.02319 0.883813,1.0232 0.883813,2.33578 0,1.39527 -0.976589,2.50631 -0.976588,1.10587 -2.348695,1.10587 -1.313511,0 -2.20709,-0.97151 -0.888695,-0.97152 -0.888695,-2.54765 z m 1.088896,-0.16536 q 0,0.84232 0.244147,1.73116 0.244147,0.88367 0.766622,1.28674 0.522475,0.3979 1.118194,0.3979 0.961939,0 1.538127,-0.98701 0.58107,-0.99219 0.58107,-2.29444 0,-1.2609 -0.590837,-2.21175 -0.590835,-0.95602 -1.543009,-0.95602 -0.717793,0 -1.196321,0.51161 -0.478528,0.50642 -0.69826,1.21439 -0.219733,0.70797 -0.219733,1.30742 z" />
			<path d="m 94.346218,213.98818 q 0.493178,1.1317 0.917994,1.99987 0.512709,1.03869 0.795919,1.72599 0.288094,0.6873 0.668963,1.35909 1.010772,-1.77249 2.343811,-5.08495 l 1.943415,0.005 q 0.10253,0.0155 0.10253,0.093 0,0.0776 -0.11718,0.0879 -0.51759,0.0465 -0.69338,0.22221 -0.1709,0.17053 -0.21485,0.57878 -0.0391,0.40824 -0.0782,1.51929 -0.03908,1.11104 -0.03908,1.85002 0,1.4211 0.01954,1.65881 0.01954,0.23255 0.166017,0.37207 0.14649,0.13952 0.57131,0.20153 0.12207,0.0207 0.12207,0.0982 0,0.0775 -0.15137,0.0775 l -1.899466,-0.005 h -0.498056 q -0.166019,0 -0.166019,-0.0827 0,-0.0723 0.112303,-0.0878 0.410172,-0.0569 0.542013,-0.16019 0.13672,-0.10335 0.200196,-0.3669 0.06834,-0.26872 0.06834,-1.32809 l 0.09274,-2.48047 0.0488,-1.22473 q 0,-0.13953 -0.03908,-0.13953 -0.05862,0 -0.09765,0.0827 l -0.966824,2.02055 q -0.927759,1.93787 -1.137725,2.48048 l -0.302743,0.78031 q -0.141605,0.35657 -0.170902,0.39274 -0.0293,0.031 -0.06837,0.031 -0.0586,0 -0.09766,-0.13436 -0.08789,-0.32039 -0.903344,-2.03605 -0.424816,-0.96635 -1.020535,-2.20658 -0.590836,-1.24023 -0.639665,-1.29191 -0.04883,-0.0569 -0.07325,-0.0569 -0.04883,0 -0.04883,0.12919 l -0.05372,3.1316 -0.01465,1.03352 q 0,0.82166 0.209966,1.07487 0.21485,0.25322 0.610369,0.25322 0.253912,0 0.253912,0.11369 0,0.0827 -0.122074,0.0827 l -0.102541,-0.005 -0.317391,0.005 -0.688495,-0.005 q -0.449231,0 -1.157257,0.0516 -0.0586,-0.0413 -0.0586,-0.0827 0,-0.10336 0.170902,-0.10852 0.488294,-0.0155 0.717793,-0.34107 0.229498,-0.32556 0.229498,-1.45727 l -0.0098,-0.90951 0.06837,-2.30477 q 0,-0.80615 -0.224615,-1.10071 -0.224615,-0.29972 -0.659197,-0.35657 -0.185552,-0.0258 -0.185552,-0.10851 0,-0.093 0.136723,-0.093 0.07325,0 0.175786,0.005 z" />
			<path d="m 106.86608,214.05019 q 0.1416,0.57877 0.27833,1.62263 -0.0244,0.0413 -0.0537,0.0413 -0.0342,0 -0.0733,-0.0413 -0.33691,-0.57361 -0.64454,-0.87333 -0.30763,-0.29972 -0.62014,-0.42375 -0.30762,-0.12919 -1.06448,-0.12919 -0.71291,0 -1.12796,0.0879 -0.0391,0.0516 -0.0391,0.1912 0,0.0362 -0.01,0.12919 -0.0488,0.41341 -0.0488,2.24275 0,0.0775 0.01,0.21705 0.3711,0.0155 0.50782,0.0155 0.61526,0 0.8887,-0.1912 0.27833,-0.19638 0.48341,-0.83716 0.0342,-0.10852 0.0977,-0.10852 0.0927,0 0.0927,0.14986 l -0.0195,0.2067 q -0.0391,0.40825 -0.0391,0.84233 0,0.7028 0.0244,1.26607 0,0.1757 -0.0927,0.1757 -0.0683,0 -0.0927,-0.12402 -0.10253,-0.60978 -0.42969,-0.87849 -0.32716,-0.26872 -1.42094,-0.26872 -0.0147,0.37723 -0.0147,1.21956 0,1.09037 0.0733,1.38493 0.0733,0.29455 0.35158,0.47026 0.27832,0.17052 0.94241,0.17052 1.89946,0 2.45123,-1.38492 0.0683,-0.17053 0.14161,-0.17053 0.0781,0 0.0781,0.11368 0,0.062 -0.0244,0.13436 -0.0293,0.0981 -0.14161,0.73381 -0.0244,0.13435 -0.18554,0.80615 l -2.04596,-0.005 q -0.43946,0 -1.29398,-0.0413 -0.84963,-0.0362 -1.50883,-0.0414 -0.65432,0 -0.68362,-0.0258 -0.0293,-0.0258 -0.0293,-0.0569 0,-0.10334 0.16114,-0.10334 0.54202,0 0.71291,-0.3049 0.17091,-0.30489 0.17091,-1.48312 l -0.005,-1.05936 0.0147,-0.99219 q 0,-0.29972 -0.0342,-1.13171 -0.0292,-0.83716 -0.0586,-0.95601 -0.0244,-0.11886 -0.15137,-0.23255 -0.12207,-0.11885 -0.54689,-0.23771 -0.12695,-0.0362 -0.12695,-0.11369 0,-0.093 0.17089,-0.093 l 0.99613,0.0569 q 0.52735,0.0258 2.59284,0.0258 1.35746,0 1.38675,0.005 z" />
			<path d="m 111.73437,214.35508 q 0.13184,-0.13953 0.17579,-0.28939 0.0391,-0.12402 0.11231,-0.12402 0.0391,0 0.0879,0.0516 0.0342,0.18604 0.0977,0.7493 l 0.11719,0.97152 q 0,0.093 -0.10742,0.093 -0.0586,0 -0.10255,-0.10336 -0.25879,-0.67696 -0.76661,-1.12654 -0.50784,-0.44441 -1.10844,-0.44441 -0.59083,0 -0.89358,0.37724 -0.29786,0.37723 -0.29786,0.80097 0,0.51677 0.32716,0.79066 0.32716,0.27388 1.3477,0.62011 0.75197,0.24805 1.12307,0.48059 0.37599,0.23255 0.6299,0.65113 0.25391,0.41857 0.25391,0.89917 0,0.81648 -0.63967,1.46244 -0.63966,0.64595 -1.56742,0.64595 -0.83498,0 -1.67973,-0.55293 -0.16602,0.14469 -0.21485,0.34106 -0.0391,0.16536 -0.12695,0.16536 -0.0782,0 -0.11231,-0.21187 -0.0342,-0.21186 -0.1416,-2.00504 0.0195,-0.062 0.10253,-0.062 0.0733,0 0.11719,0.11368 0.75198,1.99988 2.09967,1.99988 0.66896,0 1.04495,-0.42374 0.38087,-0.42892 0.38087,-0.98185 0,-0.38241 -0.20508,-0.70281 -0.2002,-0.32039 -0.53713,-0.51676 -0.33204,-0.19637 -1.05472,-0.43925 -0.92775,-0.31522 -1.26468,-0.59428 -0.33204,-0.28422 -0.48829,-0.63562 -0.15626,-0.35657 -0.15626,-0.6873 0,-0.68729 0.58595,-1.21956 0.59084,-0.53227 1.44536,-0.53227 0.32227,0 0.67385,0.10852 0.35646,0.10853 0.7422,0.33073 z" />
		</g>
	
		<g id="TOTHEFATHER">
			<path d="m 43.03484,223.82915 q -0.328063,-0.0184 -0.462654,-0.0184 -0.908482,0 -1.316459,0.41483 -0.407976,0.41484 -0.475271,0.73749 -0.02103,0.11523 -0.11356,0.11523 -0.04206,0 -0.07992,-0.0415 0.02103,-0.54851 0.164031,-1.47957 0.201886,-0.004 0.256563,-0.004 0.328063,0 0.879041,0.0369 0.593038,0.0368 1.816967,0.0368 1.253371,0 1.631904,-0.0322 0.344888,-0.0369 0.946338,-0.0369 0.05047,0.33187 0.0673,0.6914 0.02524,0.41021 0.05047,0.57615 0.0042,0.0369 0.0042,0.0783 0,0.11062 -0.08832,0.11062 -0.05468,0 -0.09253,-0.0368 -0.03364,-0.0415 -0.159827,-0.26273 -0.218708,-0.37336 -0.45424,-0.56234 -0.235534,-0.19358 -0.525744,-0.2489 -0.290209,-0.0553 -1.173456,-0.0738 -0.05048,0.696 -0.05048,1.5902 0,2.95915 0.11356,3.48922 0.117767,0.53006 0.828571,0.53006 0.172444,0 0.172444,0.0783 0,0.0922 -0.164032,0.0922 h -2.586654 q -0.100942,0 -0.100942,-0.0876 0,-0.0875 0.197679,-0.0875 0.332269,0 0.534154,-0.20281 0.206091,-0.20742 0.235533,-0.55773 0.03364,-0.3503 0.03364,-2.02347 0,-1.42886 -0.08832,-2.82087 z" />
			<path d="m 46.853835,226.55324 q 0,-0.62225 0.344887,-1.36435 0.344887,-0.7467 1.00522,-1.23067 0.664538,-0.48398 1.497314,-0.48398 1.165046,0 1.922115,0.91263 0.761276,0.91265 0.761276,2.0834 0,1.2445 -0.841189,2.23549 -0.841188,0.98638 -2.023057,0.98638 -1.131398,0 -1.901086,-0.86654 -0.76548,-0.86654 -0.76548,-2.27236 z m 0.937924,-0.14751 q 0,0.75132 0.210297,1.54411 0.210298,0.78819 0.660333,1.14771 0.450035,0.35491 0.963161,0.35491 0.828569,0 1.324871,-0.88036 0.500507,-0.88499 0.500507,-2.04652 0,-1.12466 -0.508919,-1.97277 -0.508919,-0.85271 -1.329077,-0.85271 -0.618274,0 -1.030456,0.45632 -0.412182,0.45171 -0.60145,1.08318 -0.189267,0.63147 -0.189267,1.16613 z" />
			<path d="m 57.553747,223.82915 q -0.328063,-0.0184 -0.462654,-0.0184 -0.908482,0 -1.316459,0.41483 -0.407976,0.41484 -0.475271,0.73749 -0.02103,0.11523 -0.113561,0.11523 -0.04206,0 -0.07992,-0.0415 0.02104,-0.54851 0.164031,-1.47957 0.201886,-0.004 0.256563,-0.004 0.328064,0 0.879041,0.0369 0.593038,0.0368 1.816967,0.0368 1.25337,0 1.631904,-0.0322 0.344887,-0.0369 0.946338,-0.0369 0.05046,0.33187 0.0673,0.6914 0.02524,0.41021 0.05047,0.57615 0.0042,0.0369 0.0042,0.0783 0,0.11062 -0.08832,0.11062 -0.05468,0 -0.09254,-0.0368 -0.03364,-0.0415 -0.159826,-0.26273 -0.218708,-0.37336 -0.454241,-0.56234 -0.235533,-0.19358 -0.525743,-0.2489 -0.29021,-0.0553 -1.173458,-0.0738 -0.05047,0.696 -0.05047,1.5902 0,2.95915 0.113561,3.48922 0.117766,0.53006 0.82857,0.53006 0.172444,0 0.172444,0.0783 0,0.0922 -0.164032,0.0922 h -2.586653 q -0.100943,0 -0.100943,-0.0876 0,-0.0875 0.197679,-0.0875 0.33227,0 0.534154,-0.20281 0.206092,-0.20742 0.235534,-0.55773 0.03364,-0.3503 0.03364,-2.02347 0,-1.42886 -0.08832,-2.82087 z" />
			<path d="m 65.746919,226.44722 0.03786,-1.28137 q 0,-0.8435 -0.155619,-1.10623 -0.151414,-0.26734 -0.513125,-0.26734 -0.210297,0 -0.210297,-0.0968 0,-0.0876 0.126178,-0.0876 l 1.223929,0.0461 1.038867,-0.023 q 0.121973,0 0.121973,0.083 0,0.0737 -0.07992,0.0737 -0.319652,0 -0.496302,0.10144 -0.176649,0.10144 -0.235532,0.3457 -0.05468,0.24429 -0.09253,1.39661 -0.03364,1.14771 -0.03364,1.66855 l -0.01262,1.13388 q 0,0.53007 0.09253,0.6914 0.09253,0.15671 0.273386,0.2489 0.185062,0.0876 0.378535,0.11062 0.13459,0.0184 0.13459,0.0876 0,0.0737 -0.11356,0.0737 l -1.29543,-0.0369 -0.845394,0.0322 q -0.147207,0 -0.147207,-0.083 0,-0.0691 0.105147,-0.0737 0.336476,-0.023 0.437418,-0.0968 0.105149,-0.0737 0.168239,-0.28117 0.06309,-0.20741 0.0715,-0.70061 l 0.02103,-1.67315 q -0.361711,-0.0276 -0.736038,-0.0276 -1.6277,0 -2.065118,0.0645 -0.03364,0.88498 -0.03364,1.45653 0,0.64069 0.02524,0.78818 0.02524,0.1475 0.15562,0.27656 0.13459,0.12445 0.365917,0.17516 0.143001,0.0322 0.143001,0.10144 0,0.083 -0.09254,0.083 -0.02944,0 -0.08412,-0.009 -0.22712,-0.0276 -0.94213,-0.0276 -0.778099,0 -0.954749,0.0368 -0.03786,0.004 -0.0757,0.004 -0.09674,0 -0.09674,-0.0691 0,-0.0784 0.130383,-0.0968 0.323859,-0.0415 0.462654,-0.1982 0.138796,-0.15672 0.189268,-1.17537 0.05468,-1.01864 0.05468,-2.47517 0,-1.18458 -0.100942,-1.4934 -0.100943,-0.30882 -0.492095,-0.34109 -0.08832,-0.009 -0.08832,-0.0737 0,-0.0922 0.180856,-0.0922 l 1.694994,-0.0276 q 0.180855,0 0.214502,0.0138 0.03786,0.009 0.03786,0.0737 0,0.0737 -0.109354,0.0876 -0.416389,0.0461 -0.508919,0.16592 -0.08832,0.11985 -0.08832,1.49341 0,0.14288 0.01262,1.00021 0.429006,0.0368 1.009426,0.0368 0.748657,0 1.791731,-0.0368 z" />
			<path d="m 72.455394,223.63095 q 0.121973,0.51625 0.239739,1.44732 -0.02102,0.0368 -0.04626,0.0368 -0.02944,0 -0.0631,-0.0368 -0.290209,-0.51163 -0.555183,-0.77897 -0.264975,-0.26734 -0.534155,-0.37796 -0.264974,-0.11523 -0.916895,-0.11523 -0.614068,0 -0.971573,0.0783 -0.03364,0.0461 -0.03364,0.17054 0,0.0322 -0.0084,0.11523 -0.04206,0.36874 -0.04206,2.00042 0,0.0691 0.0084,0.1936 0.319651,0.0138 0.437417,0.0138 0.529949,0 0.765481,-0.17054 0.23974,-0.17516 0.416389,-0.74671 0.02944,-0.0968 0.08412,-0.0968 0.07992,0 0.07992,0.13366 l -0.01682,0.18437 q -0.03364,0.36414 -0.03364,0.75132 0,0.62686 0.02102,1.12927 0,0.15672 -0.07992,0.15672 -0.05888,0 -0.07992,-0.11063 -0.08832,-0.54389 -0.370123,-0.78357 -0.281798,-0.23969 -1.223928,-0.23969 -0.01262,0.33648 -0.01262,1.0878 0,0.97255 0.06309,1.23528 0.06309,0.26273 0.302828,0.41944 0.239738,0.15211 0.811746,0.15211 1.636111,0 2.111382,-1.23528 0.05888,-0.15211 0.121972,-0.15211 0.0673,0 0.0673,0.10144 0,0.0553 -0.02103,0.11984 -0.02524,0.0876 -0.121973,0.65451 -0.02102,0.11985 -0.159825,0.71905 l -1.762289,-0.004 q -0.378535,0 -1.114575,-0.0368 -0.731834,-0.0323 -1.299635,-0.0369 -0.563597,0 -0.588832,-0.023 -0.02524,-0.023 -0.02524,-0.0507 0,-0.0922 0.138796,-0.0922 0.46686,0 0.614067,-0.27194 0.147209,-0.27195 0.147209,-1.32286 l -0.0042,-0.9449 0.01262,-0.88498 q 0,-0.26734 -0.02944,-1.00943 -0.02524,-0.74671 -0.05047,-0.85271 -0.02103,-0.10602 -0.130385,-0.20742 -0.105148,-0.10602 -0.471065,-0.21203 -0.109354,-0.0323 -0.109354,-0.10144 0,-0.083 0.147207,-0.083 l 0.858012,0.0507 q 0.454242,0.023 2.233355,0.023 1.169251,0 1.194486,0.004 z" />
			<path d="m 77.363726,226.53941 -0.01262,1.13849 q 0,1.19379 0.03364,1.33668 0.03364,0.13828 0.143003,0.29038 0.11356,0.1475 0.466859,0.17055 0.189267,0.009 0.189267,0.10144 0,0.10144 -0.13459,0.10144 -0.05048,0 -0.264974,-0.023 -0.437418,-0.0461 -0.773893,-0.0461 -0.286004,0 -0.794923,0.0369 l -0.235533,0.0138 q -0.13459,0 -0.13459,-0.0922 0,-0.0922 0.19768,-0.0922 0.26918,0 0.386946,-0.16593 0.117766,-0.16594 0.151414,-0.8435 0.03786,-0.68217 0.03786,-1.79762 0,-1.05091 -0.03364,-1.65472 -0.03364,-0.60842 -0.09674,-0.79741 -0.05888,-0.18898 -0.180856,-0.26733 -0.121972,-0.083 -0.462653,-0.10602 -0.13459,-0.009 -0.13459,-0.0922 0,-0.0737 0.117766,-0.083 1.051486,-0.0922 3.974614,-0.0922 0.500507,0 0.542567,0.0184 0.04626,0.0138 0.06309,0.0599 0.02103,0.0414 0.113559,0.63607 0.09674,0.5946 0.09674,0.62226 0,0.0968 -0.0757,0.0968 -0.05468,0 -0.105149,-0.0922 -0.593037,-1.12927 -1.92632,-1.12927 -0.458448,0 -0.744452,0.0461 -0.281797,0.0415 -0.328063,0.106 -0.04626,0.0599 -0.06309,0.57617 -0.01262,0.51623 -0.01262,1.80223 0.332269,0.0184 0.458448,0.0184 0.605655,0 0.841188,-0.28116 0.239739,-0.28578 0.252357,-0.59 0.0084,-0.2028 0.09674,-0.2028 0.09253,0 0.09253,0.13828 0,0.0461 -0.0084,0.11523 -0.02944,0.26734 -0.02944,1.36895 v 0.53468 q 0,0.19359 -0.105148,0.19359 -0.08832,0 -0.09253,-0.1429 -0.01262,-0.41483 -0.239738,-0.67756 -0.227122,-0.26733 -0.895866,-0.26733 -0.109355,0 -0.370123,0.0138 z" />
			<path d="m 82.734715,223.45581 h 0.193473 q 0.471065,1.05552 1.299636,3.60905 0.534154,1.63629 0.731833,2.00964 0.197679,0.36874 0.635097,0.41023 0.138796,0.0138 0.138796,0.10144 0,0.0645 -0.0715,0.0645 l -0.05888,-0.004 q -0.386946,-0.0368 -0.984191,-0.0368 -0.916894,0 -1.177662,0.0322 -0.130385,0 -0.130385,-0.083 0,-0.0599 0.09674,-0.0737 0.357505,-0.0369 0.492094,-0.13367 0.138797,-0.0968 0.138797,-0.30421 0,-0.1982 -0.256562,-0.991 L 83.53385,227.2637 q -0.218709,0 -1.955762,0.0276 -0.437418,1.27677 -0.437418,1.60863 0,0.28116 0.214503,0.41944 0.218709,0.13367 0.429005,0.1475 0.155621,0.0138 0.155621,0.10602 0,0.0368 -0.05048,0.0691 -0.67295,-0.0322 -0.811746,-0.0322 -0.706598,0 -0.950543,0.0184 -0.13459,0 -0.13459,-0.083 0,-0.0737 0.117766,-0.0922 0.483684,-0.0691 0.740246,-0.71905 0.256562,-0.64991 0.799129,-2.3369 0.4963,-1.53489 1.085133,-2.94071 z m -0.168238,1.00481 q -0.391153,0.87577 -0.912689,2.54432 0.433212,-0.023 0.622479,-0.023 l 1.18187,0.023 q -0.155621,-0.47936 -0.437419,-1.27215 -0.344887,-0.94491 -0.454241,-1.27217 z" />
			<path d="m 87.853342,223.82915 q -0.328064,-0.0184 -0.462654,-0.0184 -0.908483,0 -1.316459,0.41483 -0.407976,0.41484 -0.475272,0.73749 -0.02102,0.11523 -0.11356,0.11523 -0.04206,0 -0.07992,-0.0415 0.02103,-0.54851 0.164032,-1.47957 0.201885,-0.004 0.256562,-0.004 0.328063,0 0.879042,0.0369 0.593037,0.0368 1.816967,0.0368 1.253369,0 1.631904,-0.0322 0.344887,-0.0369 0.946337,-0.0369 0.05048,0.33187 0.0673,0.6914 0.02524,0.41021 0.05048,0.57615 0.0042,0.0369 0.0042,0.0783 0,0.11062 -0.08832,0.11062 -0.05468,0 -0.09252,-0.0368 -0.03364,-0.0415 -0.159827,-0.26273 -0.218708,-0.37336 -0.454241,-0.56234 -0.235533,-0.19358 -0.525742,-0.2489 -0.29021,-0.0553 -1.173458,-0.0738 -0.05047,0.696 -0.05047,1.5902 0,2.95915 0.11356,3.48922 0.117767,0.53006 0.828571,0.53006 0.172443,0 0.172443,0.0783 0,0.0922 -0.164031,0.0922 h -2.586654 q -0.100943,0 -0.100943,-0.0876 0,-0.0875 0.19768,-0.0875 0.332269,0 0.534154,-0.20281 0.206091,-0.20742 0.235532,-0.55773 0.03364,-0.3503 0.03364,-2.02347 0,-1.42886 -0.08832,-2.82087 z" />
			<path d="m 96.046519,226.44722 0.03783,-1.28137 q 0,-0.8435 -0.155619,-1.10623 -0.151407,-0.26734 -0.513122,-0.26734 -0.210297,0 -0.210297,-0.0968 0,-0.0876 0.126178,-0.0876 l 1.22393,0.0461 1.03887,-0.023 q 0.121966,0 0.121966,0.083 0,0.0737 -0.07986,0.0737 -0.319654,0 -0.496308,0.10144 -0.176644,0.10144 -0.235526,0.3457 -0.05464,0.24429 -0.09256,1.39661 -0.03363,1.14771 -0.03363,1.66855 l -0.01261,1.13388 q 0,0.53007 0.09256,0.6914 0.09256,0.15671 0.273392,0.2489 0.18506,0.0876 0.378536,0.11062 0.134584,0.0184 0.134584,0.0876 0,0.0737 -0.113559,0.0737 l -1.29543,-0.0369 -0.845392,0.0322 q -0.147209,0 -0.147209,-0.083 0,-0.0691 0.105149,-0.0737 0.336475,-0.023 0.437416,-0.0968 0.105154,-0.0737 0.168238,-0.28117 0.06314,-0.20741 0.07145,-0.70061 l 0.02102,-1.67315 q -0.361714,-0.0276 -0.736042,-0.0276 -1.627699,0 -2.065117,0.0645 -0.03364,0.88498 -0.03364,1.45653 0,0.64069 0.02524,0.78818 0.02524,0.1475 0.15562,0.27656 0.13459,0.12445 0.365917,0.17516 0.143001,0.0322 0.143001,0.10144 0,0.083 -0.09253,0.083 -0.02944,0 -0.08412,-0.009 -0.227122,-0.0276 -0.942132,-0.0276 -0.778098,0 -0.954748,0.0368 -0.03786,0.004 -0.0757,0.004 -0.09674,0 -0.09674,-0.0691 0,-0.0784 0.130384,-0.0968 0.323858,-0.0415 0.462654,-0.1982 0.138796,-0.15672 0.189267,-1.17537 0.05468,-1.01864 0.05468,-2.47517 0,-1.18458 -0.100943,-1.4934 -0.100941,-0.30882 -0.492094,-0.34109 -0.08832,-0.009 -0.08832,-0.0737 0,-0.0922 0.180856,-0.0922 l 1.694994,-0.0276 q 0.180855,0 0.214502,0.0138 0.03786,0.009 0.03786,0.0737 0,0.0737 -0.109355,0.0876 -0.416387,0.0461 -0.508918,0.16592 -0.08832,0.11985 -0.08832,1.49341 0,0.14288 0.01262,1.00021 0.429006,0.0368 1.009426,0.0368 0.748657,0 1.791737,-0.0368 z" />
			<path d="m 102.75499,223.63095 q 0.12197,0.51625 0.23974,1.44732 -0.021,0.0368 -0.0462,0.0368 -0.0294,0 -0.0631,-0.0368 -0.2902,-0.51163 -0.55518,-0.77897 -0.26497,-0.26734 -0.53415,-0.37796 -0.26498,-0.11523 -0.9169,-0.11523 -0.61407,0 -0.971569,0.0783 -0.03363,0.0461 -0.03363,0.17054 0,0.0322 -0.0086,0.11523 -0.04203,0.36874 -0.04203,2.00042 0,0.0691 0.0086,0.1936 0.319659,0.0138 0.437429,0.0138 0.52994,0 0.76548,-0.17054 0.23974,-0.17516 0.41638,-0.74671 0.0294,-0.0968 0.0842,-0.0968 0.0799,0 0.0799,0.13366 l -0.0168,0.18437 q -0.0336,0.36414 -0.0336,0.75132 0,0.62686 0.021,1.12927 0,0.15672 -0.0799,0.15672 -0.0589,0 -0.0799,-0.11063 -0.0884,-0.54389 -0.37013,-0.78357 -0.2818,-0.23969 -1.223934,-0.23969 -0.01261,0.33648 -0.01261,1.0878 0,0.97255 0.06305,1.23528 0.06305,0.26273 0.302834,0.41944 0.23974,0.15211 0.81174,0.15211 1.63611,0 2.11138,-1.23528 0.0589,-0.15211 0.12198,-0.15211 0.0673,0 0.0673,0.10144 0,0.0553 -0.021,0.11984 -0.0252,0.0876 -0.12196,0.65451 -0.021,0.11985 -0.15984,0.71905 l -1.76228,-0.004 q -0.37854,0 -1.11458,-0.0368 -0.731831,-0.0323 -1.299639,-0.0369 -0.563596,0 -0.588824,-0.023 -0.02522,-0.023 -0.02522,-0.0507 0,-0.0922 0.138797,-0.0922 0.466858,0 0.614061,-0.27194 0.147213,-0.27195 0.147213,-1.32286 l -0.0038,-0.9449 0.01261,-0.88498 q 0,-0.26734 -0.02942,-1.00943 -0.02522,-0.74671 -0.05044,-0.85271 -0.02101,-0.10602 -0.130391,-0.20742 -0.105144,-0.10602 -0.471061,-0.21203 -0.109357,-0.0323 -0.109357,-0.10144 0,-0.083 0.147213,-0.083 l 0.858013,0.0507 q 0.454239,0.023 2.233355,0.023 1.16925,0 1.19448,0.004 z" />
			<path d="m 107.09973,226.52097 q 0.58042,0.27656 0.80754,0.58076 0.22712,0.29961 0.33647,0.93108 0.143,0.82967 0.39536,1.11544 0.25236,0.28116 0.66033,0.29961 0.11356,0.009 0.11356,0.0922 0,0.083 -0.13038,0.083 -1.17767,0 -1.43002,-0.083 -0.24815,-0.0876 -0.37012,-0.94491 -0.11356,-0.83428 -0.23974,-1.21685 -0.12198,-0.38718 -0.39536,-0.58998 -0.26918,-0.20742 -0.84539,-0.20742 -0.21872,0 -0.4963,0.0507 -0.021,0.29039 -0.021,0.60381 0,1.18459 0.0294,1.5349 0.0294,0.34569 0.17665,0.50702 0.15142,0.15671 0.5005,0.16592 0.15142,0.004 0.15142,0.0783 0,0.0876 -0.18506,0.0876 h -2.08194 q -0.18086,0 -0.18086,-0.0876 0,-0.0783 0.143,-0.0783 0.31965,0 0.44163,-0.10601 0.12618,-0.10601 0.19768,-0.32726 0.0714,-0.22584 0.0714,-0.81122 l -0.009,-0.94029 0.004,-1.43349 q 0,-1.097 -0.0462,-1.45191 -0.042,-0.35492 -0.15562,-0.47476 -0.11356,-0.12445 -0.52574,-0.19359 -0.0884,-0.0138 -0.0884,-0.0783 0,-0.0737 0.17665,-0.0737 l 2.48991,-0.0599 q 1.03046,0 1.49311,0.43327 0.46686,0.43327 0.46686,1.06013 0,0.3964 -0.18926,0.72365 -0.18506,0.32726 -0.44162,0.47476 -0.25657,0.1475 -0.82437,0.33648 z m -1.59405,-0.11984 q 0.80754,-0.0184 1.21131,-0.12445 0.40376,-0.10602 0.68556,-0.46554 0.28601,-0.35952 0.28601,-0.85271 0,-0.52085 -0.31545,-0.90802 -0.31544,-0.38718 -1.00942,-0.38718 -0.37853,0 -0.83699,0.11062 -0.0504,1.26755 -0.0504,2.01886 0,0.25811 0.0294,0.60842 z" />
		</g>
		
		<path id="EXCEPT" d="m 70.501129,231.81643 c -1.916932,0 -3.600294,0.80083 -4.920263,2.30256 v 0.002 c -1.384477,1.58919 -1.964412,4.41995 -1.964412,8.55607 0,3.82022 0.571393,6.3949 1.99315,7.76255 l 0.0021,0.002 c 1.326669,1.26488 2.957839,1.92716 4.788895,1.92716 0.9317,0 1.86151,-0.20454 2.77112,-0.60026 l 0.29148,-0.12637 v -0.29362 -2.96601 l -0.71639,0.27504 c -0.76611,0.29454 -1.38809,0.42743 -1.83304,0.42743 -0.8182,0 -1.430268,-0.23602 -1.958253,-0.73964 -0.533965,-0.5192 -0.890637,-1.2188 -1.055076,-2.14274 v -0.002 c -0.158825,-0.96898 -0.242216,-2.34557 -0.242216,-4.10892 0,-2.94846 0.43425,-4.89074 1.079708,-5.72202 h 0.0021 v -0.002 c 0.718218,-0.93415 1.478067,-1.3269 2.405747,-1.3269 0.48498,0 1.02186,0.098 1.6134,0.31036 l 0.70407,0.2546 v -3.3953 l -0.40028,-0.0836 c -0.99517,-0.20476 -1.8428,-0.31035 -2.56175,-0.31035 z m -29.051537,0.32893 v 20.01313 h 8.65614 v -0.46647 -2.57759 h -4.813528 v -5.64211 h 4.333202 v -3.10539 h -4.333202 v -5.10131 h 4.682157 v -3.12026 z m 9.547002,0 4.04788,9.70644 -4.366045,10.30669 h 3.846717 l 2.457055,-5.7053 2.428318,5.7053 h 3.776926 l -0.26069,-0.63 -4.000669,-9.64325 4.136145,-9.73988 h -3.883665 l -2.190207,5.14963 -2.161469,-5.14963 z m 25.126825,0 v 20.01313 h 8.656145 v -0.46647 -2.57759 h -4.81353 v -5.64211 h 4.3332 v -3.10539 h -4.3332 v -5.10131 h 4.68011 v -3.12026 z m 10.817615,0 v 0.46647 19.54666 h 3.87545 v -8.42227 c 1.27187,-0.0397 2.39775,-0.11281 3.15291,-0.31222 l 0.002,-0.002 h 0.002 c 0.94366,-0.25748 1.72038,-0.87664 2.29694,-1.76734 l 0.002,-0.002 c 0.60581,-0.93015 0.8806,-2.14538 0.8806,-3.63503 0,-1.86121 -0.38233,-3.31526 -1.23777,-4.33564 -0.85543,-1.02038 -2.18576,-1.53691 -3.80977,-1.53691 z m 11.29793,0 v 3.12026 h 3.210386 v 16.89287 h 3.87546 v -16.89287 h 3.22475 v -0.46645 -2.65381 z m -7.42248,3.01991 c 0.79864,0.0792 1.54909,0.19326 1.77351,0.43115 0.2984,0.31627 0.55422,1.13113 0.55423,2.42149 0,1.27301 -0.28448,2.03278 -0.61375,2.31186 -0.28701,0.24326 -0.98631,0.33664 -1.71399,0.40885 z" />
		
		<g id="THROUGHME">
			<path d="m 36.811576,257.37495 v 7.23788 q 0,0.26567 0.08424,0.38231 0.08424,0.11015 0.330467,0.17495 v 0.20735 h -1.84673 v -0.20735 q 0.24623,-0.0648 0.330467,-0.17495 0.08424,-0.11016 0.08424,-0.38231 v -7.23788 h -2.993645 q -0.272149,0 -0.388785,0.0842 -0.110157,0.0778 -0.168473,0.32399 h -0.207353 v -1.67177 h 0.207353 q 0.05832,0.25271 0.168473,0.33694 0.116636,0.0842 0.388785,0.0842 h 7.004612 q 0.27215,0 0.382306,-0.0842 0.116635,-0.0842 0.174953,-0.33694 h 0.207352 v 1.67177 h -0.207352 q -0.05832,-0.24623 -0.174953,-0.32399 -0.110157,-0.0842 -0.382306,-0.0842 z" />
			<path d="m 47.593882,261.99501 h -4.782057 v 2.65022 q 0,0.26567 0.08424,0.3823 0.08424,0.11016 0.330467,0.17496 v 0.17495 H 41.47052 v -0.17495 q 0.24623,-0.0648 0.330467,-0.17496 0.08424,-0.11663 0.08424,-0.3823 v -5.7929 q 0,-0.27215 -0.08424,-0.3823 -0.08424,-0.11016 -0.330467,-0.17496 v -0.17495 h 1.756012 v 0.17495 q -0.24623,0.0648 -0.330467,0.17496 -0.08424,0.11015 -0.08424,0.3823 v 2.43639 h 4.782057 v -2.43639 q 0,-0.27215 -0.08424,-0.3823 -0.08424,-0.11016 -0.330468,-0.17496 v -0.17495 h 1.756013 v 0.17495 q -0.24623,0.0648 -0.330467,0.18144 -0.08424,0.11015 -0.08424,0.37582 v 5.7929 q 0,0.26567 0.08424,0.3823 0.08424,0.11016 0.330467,0.17496 v 0.17495 h -1.756013 v -0.17495 q 0.246231,-0.0648 0.330468,-0.17496 0.08424,-0.11663 0.08424,-0.3823 z" />
			<path d="m 51.83164,262.09221 v 2.55302 q 0,0.26567 0.08424,0.3823 0.08424,0.11016 0.330467,0.17496 v 0.17495 h -1.756013 v -0.17495 q 0.25271,-0.0648 0.330467,-0.17496 0.08424,-0.11663 0.08424,-0.3823 v -5.7929 q 0,-0.27215 -0.08424,-0.3823 -0.08424,-0.11016 -0.330467,-0.17496 v -0.17495 h 4.309035 q 0.732212,0 1.192275,0.10367 0.466542,0.10368 0.80997,0.34991 0.751651,0.53134 0.751651,1.55514 0,0.83589 -0.52486,1.32187 -0.52486,0.4795 -1.542181,0.5767 l 1.82081,2.88997 q 0.0972,0.15551 0.187913,0.21383 0.0972,0.0518 0.336947,0.0842 v 0.16199 h -1.794891 v -0.17495 q 0.25271,-0.0518 0.25271,-0.162 0,-0.0777 -0.149034,-0.31102 l -1.671776,-2.63726 z m 0,-0.7063 h 2.760374 q 0.667415,0 0.997882,-0.0454 0.336947,-0.0518 0.570218,-0.18144 0.511901,-0.28511 0.511901,-0.9914 0,-0.68037 -0.479502,-1.0238 -0.440623,-0.31751 -1.496823,-0.31751 h -2.86405 z" />
			<path d="m 63.048093,257.9646 q 1.937445,0 3.12324,1.01085 1.263552,1.06916 1.263552,2.82517 0,1.09508 -0.622057,2.00872 -1.172835,1.72362 -3.751775,1.72362 -1.924487,0 -3.110281,-1.01085 -1.263552,-1.07563 -1.263552,-2.77333 0,-1.14692 0.615577,-2.06056 0.654455,-0.96548 1.833769,-1.40611 0.80997,-0.30455 1.911527,-0.31751 z m 0,0.75166 q -1.58106,0 -2.546543,0.97196 -0.842368,0.84237 -0.842368,2.06056 0,1.21819 0.842368,2.06056 0.965483,0.97196 2.559503,0.97196 1.594018,0 2.559501,-0.97196 0.842368,-0.84237 0.842368,-2.02168 0,-1.27651 -0.842368,-2.09944 -0.971963,-0.959 -2.572461,-0.97196 z" />
			<path d="m 70.013827,258.85233 v 3.72586 q 0,0.86181 0.08424,1.19227 0.08424,0.32399 0.369346,0.5443 0.583178,0.46654 1.995764,0.46654 1.56162,0 2.112399,-0.57021 0.200872,-0.21384 0.26567,-0.52486 0.0648,-0.31751 0.0648,-1.10804 v -3.72586 q 0,-0.26567 -0.08424,-0.37582 -0.08424,-0.11664 -0.330468,-0.18144 v -0.17495 h 1.600499 v 0.17495 q -0.24623,0.0648 -0.330467,0.17496 -0.08424,0.11015 -0.08424,0.3823 v 3.91377 q 0,0.99788 -0.168474,1.40611 -0.285109,0.69981 -1.04324,1.03028 -0.758131,0.33047 -2.08648,0.33047 -1.905047,0 -2.669658,-0.7063 -0.369345,-0.33694 -0.498941,-0.75813 -0.123115,-0.42118 -0.123115,-1.30243 v -3.91377 q 0,-0.27215 -0.08424,-0.3823 -0.08424,-0.11016 -0.330467,-0.17496 v -0.17495 h 1.756012 v 0.17495 q -0.24623,0.0648 -0.330467,0.18144 -0.08424,0.11015 -0.08424,0.37582 z" />
			<path d="m 85.319001,258.80049 -0.887727,1.42555 -0.149034,-0.0907 q 0.0648,-0.22679 0.0648,-0.30455 0,-0.16847 -0.615577,-0.52486 -0.997883,-0.56373 -2.11888,-0.56373 -1.373707,0 -2.280873,0.79052 -1.010841,0.87477 -1.010841,2.26144 0,1.31539 0.926604,2.15128 0.913646,0.83588 2.410468,0.83588 0.751652,0 1.432026,-0.22031 0.680374,-0.22679 1.153395,-0.62205 v -1.33483 h -1.632897 q -0.272149,0 -0.388784,0.0842 -0.110157,0.0842 -0.168475,0.33047 h -0.174953 v -1.54218 h 0.174953 q 0.05832,0.25271 0.168475,0.33695 0.116635,0.0842 0.388784,0.0842 h 2.864051 v 0.17496 q -0.25271,0.0583 -0.336947,0.17495 -0.08424,0.11016 -0.08424,0.38231 v 0.75165 q 0,0.27215 0.08424,0.38878 0.08424,0.11016 0.336947,0.16848 v 0.14903 q -1.684735,1.44499 -3.92025,1.44499 -1.762492,0 -2.889969,-0.94605 -0.602617,-0.5119 -0.946044,-1.23115 -0.369346,-0.76461 -0.369346,-1.58754 0,-1.21819 0.738692,-2.19664 0.660935,-0.86828 1.756013,-1.27651 0.816448,-0.30455 1.749533,-0.30455 0.803489,0 1.464424,0.1944 0.667414,0.19439 1.594019,0.69333 0.149034,0.0778 0.213832,0.0778 0.07776,0 0.304548,-0.25919 z" />
			<path d="m 92.952148,261.99501 h -4.782057 v 2.65022 q 0,0.26567 0.08424,0.3823 0.08424,0.11016 0.330467,0.17496 v 0.17495 h -1.756013 v -0.17495 q 0.246231,-0.0648 0.330468,-0.17496 0.08424,-0.11663 0.08424,-0.3823 v -5.7929 q 0,-0.27215 -0.08424,-0.3823 -0.08424,-0.11016 -0.330468,-0.17496 v -0.17495 h 1.756013 v 0.17495 q -0.24623,0.0648 -0.330467,0.17496 -0.08424,0.11015 -0.08424,0.3823 v 2.43639 h 4.782057 v -2.43639 q 0,-0.27215 -0.08424,-0.3823 -0.08424,-0.11016 -0.330467,-0.17496 v -0.17495 h 1.756013 v 0.17495 q -0.246231,0.0648 -0.330467,0.18144 -0.08424,0.11015 -0.08424,0.37582 v 5.7929 q 0,0.26567 0.08424,0.3823 0.08424,0.11016 0.330467,0.17496 v 0.17495 h -1.756013 v -0.17495 q 0.246231,-0.0648 0.330467,-0.17496 0.08424,-0.11663 0.08424,-0.3823 z" />
			<path d="m 104.41484,265.37744 -3.7129,-7.43227 v 6.66766 q 0,0.26567 0.0842,0.38231 0.0842,0.11015 0.33046,0.17495 v 0.20735 h -1.756013 v -0.20735 q 0.24623,-0.0648 0.330467,-0.17495 0.08424,-0.11016 0.08424,-0.38231 v -7.31564 q 0,-0.27215 -0.08424,-0.38231 -0.08424,-0.11663 -0.330467,-0.17495 v -0.20735 h 2.293833 v 0.20735 q -0.3175,0.11016 -0.3175,0.27215 0,0.0778 0.21383,0.49894 l 2.9418,5.83826 2.95477,-5.8901 q 0.15552,-0.31102 0.15552,-0.44062 0,-0.16847 -0.31751,-0.27863 v -0.20735 h 2.31327 v 0.20735 q -0.24623,0.0648 -0.33047,0.17495 -0.0842,0.11016 -0.0842,0.38231 v 7.31564 q 0,0.26567 0.0842,0.38231 0.0842,0.11015 0.33047,0.17495 v 0.20735 h -1.84673 v -0.20735 q 0.25271,-0.0648 0.33047,-0.17495 0.0842,-0.11016 0.0842,-0.38231 v -6.66766 z" />
			<path d="m 112.74132,261.98205 v 2.6891 h 4.48399 q 0.27215,0 0.3823,-0.0842 0.11664,-0.0842 0.17496,-0.33695 h 0.18143 v 1.54219 h -0.18143 q -0.0583,-0.24624 -0.16848,-0.33047 -0.11015,-0.0842 -0.3823,-0.0842 h -5.83178 v -0.17495 q 0.25271,-0.0648 0.33047,-0.17496 0.0842,-0.11663 0.0842,-0.3823 v -5.7929 q 0,-0.27215 -0.0842,-0.3823 -0.0842,-0.11016 -0.33047,-0.17496 v -0.17495 h 5.78642 q 0.27215,0 0.3823,-0.0842 0.11016,-0.0842 0.17496,-0.33047 h 0.17495 v 1.54219 h -0.17495 q -0.0648,-0.25271 -0.17496,-0.33695 -0.11015,-0.0842 -0.3823,-0.0842 h -4.44511 v 2.44935 h 2.83165 q 0.27215,0 0.38231,-0.0842 0.11015,-0.0842 0.17495,-0.33047 h 0.17495 v 1.54219 h -0.17495 q -0.0648,-0.25272 -0.18143,-0.33695 -0.11016,-0.0842 -0.37583,-0.0842 z" />
		</g>
	
		<path id="JOHN" d="M 74.999789,271.20002 A 12.899999,12.899999 0 0 0 62.099803,284.10001 12.899999,12.899999 0 0 0 74.999789,297 12.899999,12.899999 0 0 0 87.899784,284.10001 12.899999,12.899999 0 0 0 74.999789,271.20002 Z m 5.492175,10.43399 h 0.73846 v 2.84168 h 0.25993 v 0.65061 0.0992 h -0.25993 v 1.28158 h -0.80874 v -1.28158 h -1.21439 v -0.69143 z m -3.6406,0.0563 h 1.20509 v 4.71702 0.0997 h -0.80047 v -4.11913 h -0.40462 z m 7.51168,0 h 0.91054 l -0.63097,1.26762 -0.21859,0.49247 c 0.0613,-0.0153 0.12832,-0.0491 0.18552,-0.0491 0.2939,-10e-6 0.54383,0.11341 0.7183,0.32815 0.18646,0.22948 0.25632,0.62107 0.25632,1.18752 0,0.58404 -0.0812,1.00291 -0.27957,1.26194 -0.19443,0.25383 -0.50507,0.37879 -0.89452,0.37879 -0.36995,0 -0.66382,-0.13415 -0.84181,-0.39842 -0.17525,-0.26416 -0.25166,-0.65802 -0.25166,-1.18185 0,-0.3314 0.0157,-0.61063 0.0506,-0.83974 0.0372,-0.23089 0.0993,-0.46749 0.18552,-0.709 0.0883,-0.24294 0.2043,-0.51242 0.34778,-0.80667 z m -16.577801,0.29507 c 0.495559,0 0.859108,0.1697 1.033013,0.51005 0.173858,0.33302 0.248047,0.88407 0.248047,1.67741 0,0.70711 -0.03305,1.19733 -0.109038,1.49035 v 0.002 c -0.07274,0.28732 -0.205996,0.51166 -0.400492,0.65629 -0.192733,0.14519 -0.448831,0.2129 -0.758094,0.2129 -0.316484,0 -0.569675,-0.0604 -0.75551,-0.19533 l -0.0021,-0.002 c -0.183919,-0.13605 -0.314494,-0.34912 -0.398425,-0.6289 v -0.002 c -0.08387,-0.28756 -0.119372,-0.75628 -0.119372,-1.42937 0,-0.92614 0.07686,-1.52632 0.285252,-1.8402 v -0.002 c 0.201346,-0.29956 0.540549,-0.44907 0.976686,-0.44907 z m -2.578137,0.0858 h 0.77153 v 3.57446 c 0,0.29013 -0.07395,0.52468 -0.232544,0.68523 -0.1586,0.16053 -0.392325,0.23668 -0.679546,0.23668 -0.136424,0 -0.323268,-0.0283 -0.572574,-0.0822 l -0.07803,-0.0176 v -0.7462 l 0.136941,0.0527 c 0.191762,0.0754 0.335293,0.11162 0.411863,0.11162 0.08275,0 0.128135,-0.0238 0.170014,-0.0765 0.04464,-0.0558 0.07235,-0.13632 0.07235,-0.25373 z m 4.472596,0 h 0.771527 v 1.65055 h 0.68162 v -1.65055 h 0.77152 v 4.43591 h -0.77152 v -2.10375 h -0.68162 v 2.10375 h -0.771527 v -4.33411 z m 2.793107,0 h 0.62477 l 0.92759,2.49029 v -2.49029 h 0.70125 v 4.33617 0.0997 h -0.61701 l -0.92604,-2.48461 v 2.48461 h -0.71056 z m -4.67413,0.56276 c -0.187264,0 -0.288917,0.0757 -0.361217,0.27698 -0.07331,0.2021 -0.117306,0.58022 -0.117306,1.11363 v 0.23254 c 0,0.59685 0.03502,1.0319 0.09767,1.29295 0.02984,0.12332 0.07694,0.2041 0.136943,0.2558 0.06,0.0517 0.135732,0.0801 0.243912,0.0801 0.121787,0 0.220358,-0.0546 0.318328,-0.19172 0.03465,-0.0485 0.08068,-0.18472 0.107487,-0.39223 0.02681,-0.20752 0.03927,-0.48752 0.03927,-0.83612 v -0.15607 c 3e-6,-0.40023 -0.0118,-0.72378 -0.03514,-0.96686 -0.02334,-0.24308 -0.0609,-0.40786 -0.0956,-0.47646 v -0.002 h -0.0021 c -0.0814,-0.16666 -0.177646,-0.23047 -0.33228,-0.23047 z m 12.631275,0.73019 -0.48834,1.11155 h 0.48834 z m 1.97611,0.51986 h 0.008 c 0.12526,0 0.24185,0.0511 0.32815,0.14263 0.0869,0.0899 0.1328,0.20782 0.1328,0.33589 0,0.12618 -0.0454,0.24437 -0.1328,0.33177 -0.0856,0.0857 -0.20274,0.13074 -0.32815,0.13074 -0.12618,0 -0.24484,-0.0463 -0.33434,-0.13281 l -0.002,-0.002 v -0.002 c -0.0865,-0.0895 -0.13281,-0.2061 -0.13281,-0.33228 0,-0.1243 0.0467,-0.24112 0.13281,-0.33021 0.0882,-0.0911 0.20407,-0.14212 0.32815,-0.14212 z m 2.0624,0.28887 c -0.12756,0 -0.18504,0.0341 -0.22634,0.11317 -0.04,0.0782 -0.0717,0.2564 -0.0724,0.51005 l 0.008,0.0646 v 0.12455 c 0,0.33389 0.0286,0.56963 0.0723,0.68781 0.042,0.11078 0.0925,0.14624 0.21084,0.14624 0.0904,0 0.13925,-0.0326 0.18966,-0.13487 0.0499,-0.10117 0.0835,-0.27555 0.0842,-0.51522 l -0.008,-0.0589 v -0.0837 l 0.008,-0.15658 v -0.0682 c 0,-0.29815 -0.0513,-0.48307 -0.0899,-0.52917 v -0.002 c -0.0587,-0.0724 -0.1101,-0.0977 -0.1757,-0.0977 z m -2.05413,1.42162 h 0.008 c 0.12326,0 0.23784,0.0509 0.32194,0.14108 0.0846,0.0884 0.13126,0.20244 0.13126,0.32401 0,0.12618 -0.0456,0.2443 -0.13126,0.33589 -0.0841,0.0901 -0.19868,0.14056 -0.32194,0.14056 -0.12618,0 -0.24485,-0.0463 -0.33435,-0.1328 l -0.002,-0.002 h -0.002 c -0.0857,-0.0887 -0.13281,-0.20569 -0.13281,-0.32815 0,-0.12618 0.0471,-0.24429 0.13281,-0.33589 h 0.002 c 0.0882,-0.0911 0.20407,-0.14263 0.32814,-0.14263 z" />
	
    </g>
  </g>
</svg>
