<?xml version="1.0" encoding="UTF-8" ?>
<!-- Created with Inkscape (http://www.inkscape.org/) -->
<!-- 
width="177.77173mm"
   height="43.169563mm"
   -->
<svg version="1.1" xmlns="http://www.w3.org/2000/svg" xmlns:xlink="http://www.w3.org/1999/xlink" x="0px" y="0px"
	width="629.89983px" height="152.96302px"
	viewBox="0 0 629.89983 152.96302"
	style="enable-background:new 0 0 629.89983 152.96302;" xml:space="preserve"
	preserveAspectRatio="xMinYMin meet"
	>

	<path id="castle" style="fill:#ffffff;" d="m 64.4,64.87711 4.836,-1.1e-4 0,-57.07699 C 69.30556,6.84983 69.974076,5.94087 71.5,5.95 c 1.525924,0.009 2.348716,0.73476 2.4,1.85001 l 0,2.80001 c 0.03314,0.84372 0.551212,1.97177 1.385712,2 l 11.495535,0 c 0.682134,0.008 1.111695,-1.23763 1.118753,-2 l 0,-2.80001 C 87.9049,6.9632 88.694778,5.93176 90.3,5.95 c 1.605222,0.0182 2.714442,0.88753 2.686609,1.85001 L 92.987,18.32503 c -0.06415,1.03264 0.45395,2.52984 1.346552,3.326 1.049758,0.93633 2.202428,1.06056 4.066448,1.12801 l 0,5.62101 9.6,0 0,-6.35001 5.6,0 0,6.35001 8.2,0 0,-6.35001 5.6,0 0,6.35001 8.1,0 0,-6.35001 5.6,0 0,6.35001 8.3,0 0,-6.35001 5.6,0 0,6.35001 6.1,0 c 1.59068,0 3.06803,1.32669 3.00285,3.70882 -0.0652,2.38214 -1.36448,3.89119 -3.00285,3.89119 l -3.7,0 0,26.26505 c 0.13326,0.76347 0.15081,1.7459 0.78766,2.18756 0.97833,0.67847 2.39656,0.14809 3.57143,-0.0446 2.55415,-0.41893 4.87022,-1.79007 7.38839,-2.38839 2.21963,-0.52738 4.48578,-0.91721 6.76339,-1.04911 3.50116,-0.20276 7.03694,-0.0602 10.5134,0.40179 2.92888,0.38923 5.78724,1.2115 8.63839,1.9866 2.41614,0.65684 4.83658,1.43518 7.16518,2.25448 1.49146,0.52475 3.12186,1.38356 4.6451,0.95982 0.89734,-0.24963 1.64828,-1.05764 2.05133,-1.89733 0.68427,-1.4256 -0.15315,-3.22799 0.33482,-4.73215 0.26503,-0.81698 0.66279,-1.68817 1.36161,-2.18751 0.96922,-0.69254 2.29097,-0.8144 3.48214,-0.80357 1.53383,0.0139 3.01164,0.62349 4.46429,1.11608 5.12215,1.73687 9.50181,5.9632 14.88839,6.45091 0.75314,0.0682 1.63063,-0.0272 2.20982,-0.51341 0.67095,-0.56326 1.05953,-1.54273 1.02909,-2.41824 -0.0359,-1.03236 -0.71997,-1.99033 -1.40855,-2.76034 -1.48566,-1.66134 -3.59614,-2.66808 -5.58036,-3.68303 -2.22436,-1.13778 -4.6214,-1.92004 -7.00893,-2.65626 -1.33823,-0.41266 -2.69571,-0.80456 -4.08482,-0.98215 -2.4138,-0.30859 -4.91368,-0.61497 -7.29911,-0.13391 -1.1723,0.2364 -2.35095,0.69939 -3.28125,1.45088 -0.67959,0.54897 -1.11514,1.3573 -1.54018,2.12054 -0.35533,0.63806 -0.55378,1.35161 -0.82906,2.02808 -0.21769,0.53493 -0.19296,1.3251 -0.65052,1.60583 -0.69383,0.50987 -3.79033,-0.97305 -5.70794,-1.35711 -1.85546,-0.37164 -3.72101,-0.71482 -5.60268,-0.91519 -3.68178,-0.39207 -7.39117,-0.56582 -11.09375,-0.55803 -4.52946,0.01 -9.10144,-0.011 -13.56826,0.73978 -1.30786,0.21981 -5.4658,1.12855 -7.90495,0.13075 -0.62819,-0.25698 -1.17127,-0.82284 -1.42857,-1.45089 -0.47113,-3.46905 -0.39455,-7.03956 0,-10.22324 0.0908,-0.97884 0.41087,-2.15815 2.0945,-2.34367 l 5.2,0 0,-19.70003 -6.87036,0 c -0.86645,0.0571 -1.31677,-0.67567 -1.66961,-1.28223 -0.52644,-1.31023 -0.38396,-2.76787 -0.38396,-2.76787 l -56.75707,9e-5 C 99.59285,18.68897 98.25036,18.53338 97.23776,17.5229 96.22358,16.51082 95.976018,14.76391 95.9,13.43803 L 95.9,0 83.8,0 l 0,6.00002 -5.545349,0 L 78.255,0 64.4,0 Z" />
	<path id="river" style="fill:#ffffff;" d="m 0,147.14901 c 0,0 8.544435,0.4256 13.488266,0.1896 3.527258,-0.1683 14.948673,0.205 24.938141,-6.6291 2.744628,-1.8777 3.65891,-2.7863 3.661803,-4.7982 0.0044,-3.0642 -3.056235,-5.5513 -5.555839,-7.3236 -2.017668,-1.4306 -6.797957,-3.2222 -10.922274,-4.7983 -2.769252,-1.0582 -5.437632,-2.5993 -7.197337,-5.0507 -1.119399,-1.5594 -1.440795,-3.6141 -1.262691,-5.5559 0.320009,-3.4889 0.721082,-5.3701 4.608821,-9.407 2.485749,-2.5811 8.088254,-4.82367 12.500638,-6.37661 6.04235,-2.12661 12.480095,-2.95886 18.814091,-3.91434 3.093541,-0.46666 7.75712,-0.28677 9.343911,-0.88389 0.975321,-0.36702 2.396206,-0.98071 2.462247,-2.46224 0.06352,-1.42506 -0.741577,-2.18115 -1.704633,-2.65165 -1.474679,-0.72045 -2.038776,-0.87015 -3.21986,-1.6415 -0.864996,-0.56492 -1.762245,-1.28267 -2.218419,-2.20963 -1.441848,-2.92989 -1.513569,-7.66345 0.252539,-10.48073 0.628882,-1.00319 1.953461,-1.41575 3.396409,-1.95522 1.49865,-0.56029 1.987498,-1.21078 2.579333,-2.33114 C 64.476677,67.90053 64.4,64.877 64.4,64.877 l 4.83606,0 0,6.316 c -0.04929,0.99555 -0.611842,1.72263 -1.288601,2.29737 -1.108089,0.94106 -2.676032,1.82169 -3.809636,2.2677 -0.826465,0.32516 -2.31244,0.60073 -2.919849,1.24867 -0.496922,0.53009 -0.532799,1.55504 -0.189404,2.20972 0.315247,0.60101 1.154083,0.99943 1.767767,1.45208 1.014613,0.74839 2.225452,1.2336 3.156727,2.08345 0.995365,0.90834 1.443936,1.72136 1.95717,2.96732 0.858784,2.61301 0.896436,4.74267 -0.06313,7.19734 -0.495011,1.26629 -1.022429,2.34459 -2.08344,3.09359 -1.058922,0.74752 -4.190059,1.83185 -6.376588,2.27284 -2.591113,0.52258 -5.451394,0.62504 -8.144355,1.13642 -4.232393,0.80372 -8.473028,1.67961 -12.563772,3.03051 -4.298062,1.4193 -8.272146,2.539 -11.995562,4.672 -2.002035,1.1468 -3.942219,2.1622 -5.366434,3.9774 -0.499906,0.6372 -1.133319,1.7177 -1.073288,2.5253 0.08005,1.077 0.923542,2.0415 1.767767,2.7149 1.998782,1.5943 7.057706,2.9055 9.407046,3.9143 3.147942,1.3516 4.722265,2.0941 7.449875,4.1669 2.112255,1.6052 3.014519,2.3583 4.419417,4.6088 0.649832,1.0409 1.476341,2.6472 1.712234,3.8514 0.315549,1.6109 0.40438,3.3331 0,4.924 -0.542851,2.1357 -1.541766,4.191 -3.038059,5.8087 -1.942165,2.0997 -4.609231,3.4543 -7.197337,4.6719 -2.674122,1.2581 -5.584853,1.9683 -8.460027,2.6517 -3.153912,0.7497 -6.369194,1.2717 -9.59645,1.5784 C 11.161785,153.04271 0,152.95801 0,152.95801 Z" />
	<g style="fill:#1f2653;">
		
		<path d="m 140.36775,104.60541 c 0,0.5107 -0.23196,0.9651 -0.69415,1.3641 -0.45526,0.3981 -1.01525,0.5885 -1.63755,0.5885 l -2.51,0 c -0.86206,0 -1.49475,-0.2804 -1.90068,-0.8352 l 0,0.074 -35.794318,-37.39724 0,36.20544 c 0,0.5107 -0.246672,0.9651 -0.731362,1.3641 -0.489017,0.3981 -1.036889,0.5885 -1.668716,0.5885 l -1.624576,0 c -0.621441,0 -1.176237,-0.1904 -1.660061,-0.5885 -0.478631,-0.399 -0.72011,-0.8534 -0.72011,-1.3641 l 0,-43.30441 c 0,-0.50979 0.247537,-0.96159 0.742613,-1.35886 0.482959,-0.39381 1.04641,-0.59288 1.674775,-0.59288 l 2.424313,0 c 0.5773,0 1.210859,0.27783 1.900676,0.83263 l 0,-0.0666 c 4.614936,4.97066 11.295866,11.95452 20.061816,20.96282 l 8.82308,9.05071 c 2.59482,2.69435 4.90056,5.10222 6.92068,7.23832 l 0,-36.0661 c 0,-1.28789 0.80493,-1.95174 2.41738,-1.95174 l 1.64535,0 c 0.62231,0 1.18143,0.19821 1.63756,0.59288 0.46219,0.39727 0.69414,0.84907 0.69414,1.35886 l 0,43.30437 z" />
		<path d="m 185.42829,88.99928 c 0,1.28962 -0.81445,1.93876 -2.43123,1.93876 l -32.42054,0 c 0.68982,7.20456 5.37919,10.79907 14.09148,10.79907 2.88477,0 5.50296,-0.5626 7.86842,-1.68864 2.59915,-1.17797 4.35788,-2.82072 5.27532,-4.92739 l -0.0839,0.14541 c 0.28043,-0.98063 1.03775,-1.47052 2.24688,-1.47052 l 1.64621,0 c 1.61073,0 2.41566,0.64568 2.41566,1.94742 l 0,0.28215 c -2.7108,7.05227 -9.22295,10.57917 -19.53472,10.57917 -6.75362,0 -11.82469,-1.6012 -15.22444,-4.8027 -3.40062,-3.19463 -5.10049,-7.49192 -5.10049,-12.88149 0,-5.15589 1.84528,-9.37875 5.53152,-12.67377 3.92166,-3.48024 8.9607,-5.21647 15.13443,-5.21647 6.22826,0 11.21104,1.49129 14.957,4.50848 3.74595,3.00594 5.62759,7.03579 5.62759,12.06963 l 0,1.39089 z m -6.84191,-2.92632 c -0.45959,-2.72378 -1.67218,-4.9646 -3.63603,-6.71641 -2.37412,-2.12311 -5.75742,-3.18164 -10.15079,-3.18164 -3.88098,0 -7.07214,0.89408 -9.58993,2.66666 -2.51259,1.7795 -4.0584,4.18737 -4.63484,7.23053 l 28.01159,0 z" />
		<path d="m 245.69164,74.34434 c 0,0.23023 -0.0762,0.5271 -0.251,0.91312 l 0.0831,-0.0796 -15.48583,30.21695 c -0.50546,0.6984 -1.25326,1.0498 -2.24861,1.0498 l -2.15946,0 c -0.97198,0 -1.71892,-0.3514 -2.23304,-1.0498 l -8.29857,-14.8748 -7.67368,14.8929 c -0.51844,0.6795 -1.24634,1.0309 -2.15773,1.0309 l -2.09282,0 c -1.03343,0 -1.81413,-0.3514 -2.33257,-1.0499 L 184.03655,75.25662 c -0.23542,-0.38516 -0.33755,-0.70194 -0.33755,-0.98063 0,-1.20653 0.82917,-1.8072 2.51173,-1.8072 l 1.97511,0 c 0.87417,0 1.61938,0.36525 2.25987,1.10267 l 13.48648,24.93814 7.43133,-14.6281 -4.8417,-8.62575 c -0.1809,-0.33409 -0.26052,-0.65692 -0.26052,-0.98063 0,-1.20653 0.83349,-1.8072 2.50221,-1.8072 l 2.08762,0 c 0.79541,0 1.51466,0.36525 2.14822,1.10267 l 13.48302,24.90006 12.44267,-24.48807 c 0.17397,-0.32024 0.51931,-0.65606 1.04468,-1.004 0.51845,-0.33842 0.98063,-0.51066 1.38656,-0.51066 l 1.82105,0 c 1.67737,0.002 2.51432,0.62404 2.51432,1.87644 z" />
		<path d="m 284.08684,95.40237 c 0.37564,3.67153 -3.25953,6.52684 -7.17167,8.70884 l -0.99275,0.4682 c -3.17125,1.5805 -6.42127,2.0236 -10.68394,2.0236 -6.33559,0 -11.37289,-1.6055 -15.08769,-4.8278 -3.71999,-3.23707 -5.58172,-7.33529 -5.58172,-12.29644 0,-5.42938 1.91712,-9.86343 5.75222,-13.30386 3.8429,-3.4335 9.09313,-5.1455 15.78357,-5.1455 4.14929,0 7.71782,0.80667 10.72549,2.43903 3.56247,1.89808 5.78858,4.43318 6.65063,7.5828 l 0,0.42323 c 0,0.8335 -0.30293,1.3831 -0.94947,1.66872 l -1.72065,0.76598 c -0.28216,0.14022 -0.65866,0.20426 -1.11392,0.20426 -1.26712,0 -2.04954,-0.48036 -2.34382,-1.44714 -1.19961,-4.32153 -4.96547,-6.49138 -11.29327,-6.49138 -4.94123,0 -8.69238,1.21692 -11.24999,3.65941 -2.555,2.43989 -3.84635,5.67433 -3.84635,9.71889 0,3.71047 1.20826,6.63765 3.62478,8.76509 2.52472,2.27717 6.06208,3.41791 10.60518,3.41791 2.98777,0 5.60422,-0.5626 7.85543,-1.68342 2.46413,-1.22211 3.98311,-2.94621 4.56388,-5.19137 0.51671,-1.36578 1.35193,-2.03829 2.49961,-2.03829 0.3462,0 1.03256,0.20599 1.03256,0.20599 l -0.084,-0.0675 c 0,0 1.51812,0.33842 1.9102,0.63529 0.44574,0.3315 1.06026,1.29482 1.11565,1.80547 z" />
		<path d="m 324.90549,104.09651 c 0,1.2576 -0.79108,1.8816 -2.36546,1.8816 l -1.6566,0 c -1.58476,0 -2.38104,-0.624 -2.38104,-1.866 l 0,-2.0271 c -3.50101,3.012 -8.24058,4.5189 -14.22304,4.5189 -6.31914,0 -11.29759,-1.7172 -14.9293,-5.1472 -3.39456,-3.20852 -5.0901,-7.38204 -5.0901,-12.53619 0,-5.15589 1.75873,-9.35884 5.27186,-12.60366 3.84376,-3.52612 8.84991,-5.28571 14.99768,-5.28571 5.81021,0 10.47275,1.50686 13.97377,4.52146 l 0,-2.51173 c 0,-0.5297 0.23802,-0.99275 0.71059,-1.39608 0.46651,-0.40939 1.01179,-0.61279 1.67045,-0.61279 l 1.6566,0 c 1.57437,0 2.36545,0.64914 2.36545,1.95088 l 0,31.11362 z m -6.40396,-15.10589 c 0,-3.94849 -1.13556,-7.01501 -3.43005,-9.18919 -2.41738,-2.41566 -5.98591,-3.62565 -10.75924,-3.62565 -4.33364,0 -7.74984,1.28269 -10.21396,3.8403 -2.2867,2.3594 -3.43264,5.35149 -3.43264,8.97541 0,3.66633 1.02737,6.62466 3.08643,8.83952 0.10992,0.0459 0.25879,0.14714 0.43016,0.27697 2.4122,2.41566 5.79637,3.62913 10.13088,3.62913 4.38038,0 7.81821,-1.20049 10.36629,-3.58066 2.55761,-2.39402 3.82213,-5.45189 3.82213,-9.16583 z" />
		<path d="m 362.08896,96.51456 c 0,3.56853 -1.67045,6.23955 -4.99663,8.00255 -2.80773,1.4913 -6.50263,2.2331 -11.09073,2.2331 -11.87576,0 -17.81148,-4.3865 -17.81148,-13.15331 0,-0.51758 0.23023,-0.95812 0.69675,-1.32943 0.45872,-0.37477 1.00313,-0.54874 1.64621,-0.54874 l 1.71805,0 c 1.56053,0 2.35248,0.605 2.35248,1.8574 0,5.34543 3.80481,8.00948 11.4404,8.00948 2.49788,0 4.60541,-0.3349 6.30875,-1.02908 2.22871,-0.92611 3.34176,-2.28064 3.34176,-4.08957 0,-2.1335 -2.17158,-3.62565 -6.50782,-4.51281 -0.17743,0 -1.57091,-0.19734 -4.19516,-0.61971 -0.68982,-0.0961 -1.7345,-0.23196 -3.17299,-0.40419 -7.98699,-1.11219 -11.98048,-4.28345 -11.98048,-9.5103 0,-3.37379 1.6341,-6.0266 4.9196,-7.97228 2.77225,-1.61246 6.1443,-2.41912 10.1326,-2.41912 11.46984,0 17.19869,3.89396 17.19869,11.70265 0,1.29741 -0.76598,1.9353 -2.30141,1.9353 l -1.79162,0 c -1.53542,0 -2.30141,-0.63789 -2.30141,-1.92404 0,-4.38298 -3.49063,-6.56928 -10.4615,-6.56928 -2.25208,0 -4.24276,0.41632 -5.96255,1.25067 -2.0305,0.96419 -3.0371,2.30055 -3.0371,4.01167 0,1.97598 2.09542,3.3184 6.31741,3.99956 l -0.25619,0 c 0.34188,0 0.6526,0.0459 0.94947,0.13848 l -0.17656,-0.0675 c 1.59774,0.27956 3.99089,0.66905 7.19331,1.18836 7.88313,1.11305 11.82815,4.3873 11.82815,9.82015 z" />
		<path d="m 381.9846,76.69076 c 0,0.50373 -0.2233,0.96505 -0.66558,1.39781 -0.41978,0.4042 -0.91918,0.62144 -1.49821,0.62144 l -4.59157,0 0,25.8954 c 0,0.47 -0.21897,0.9149 -0.65,1.332 -0.42843,0.4241 -0.93909,0.6206 -1.51033,0.6206 l -1.20566,0 c -0.63616,0 -1.17105,-0.1904 -1.60467,-0.5885 -0.4319,-0.399 -0.64481,-0.8534 -0.64481,-1.3641 l 0,-25.8954 -4.54656,0 c -0.59634,0 -1.09834,-0.21724 -1.54149,-0.62144 -0.43535,-0.43276 -0.65866,-0.89408 -0.65866,-1.39781 l 0,-1.18489 c 0,-1.29482 0.72531,-1.95261 2.20015,-1.95261 l 4.54742,0 0,-7.80177 c 0,-1.29308 0.70973,-1.9526 2.12917,-1.9526 l 1.35973,0 c 0.56865,0 1.06545,0.21464 1.49215,0.63702 0.42497,0.41718 0.63356,0.86032 0.63356,1.31558 l 0,7.80177 4.59157,0 c 1.43329,0 2.16379,0.65779 2.16379,1.95261 l 0,1.18489 z" />
		<path d="m 388.54782,104.68501 c 0,0.4562 -0.26139,0.8855 -0.7833,1.2845 -0.51844,0.3981 -1.06285,0.5885 -1.63842,0.5885 l -0.77723,0 c -1.61073,0 -2.41047,-0.6275 -2.41047,-1.873 l 0,-42.05977 c 0,-1.29567 0.79974,-1.9552 2.41047,-1.9552 l 0.77723,0 c 0.57557,0 1.11998,0.20859 1.63842,0.63096 0.52278,0.41545 0.7833,0.85167 0.7833,1.32424 l 0,42.05977 z" />
		<path d="m 432.98952,88.99928 c 0,1.28962 -0.79801,1.93876 -2.4148,1.93876 l -32.42486,0 c 0.69068,7.20456 5.39304,10.79907 14.09235,10.79907 2.88304,0 5.50209,-0.5626 7.8762,-1.68864 2.58703,-1.17797 4.35182,-2.82072 5.27793,-4.92739 l -0.0944,0.14541 c 0.28822,-0.98063 1.04555,-1.47052 2.24948,-1.47052 l 1.64622,0 c 1.60466,0 2.41998,0.64568 2.41998,1.94742 l 0,0.28215 c -2.7082,7.05227 -9.22035,10.57917 -19.54164,10.57917 -6.74411,0 -11.82469,-1.6012 -15.22618,-4.8027 -3.39542,-3.19463 -5.09962,-7.49192 -5.09962,-12.88149 0,-5.15589 1.84615,-9.37875 5.52892,-12.67377 3.93118,-3.48024 8.96416,-5.21647 15.13789,-5.21647 6.23086,0 11.21104,1.49129 14.96046,4.50848 3.74596,3.00594 5.61202,7.03579 5.61202,12.06963 l 0,1.39089 z m -6.82374,-2.92632 c -0.46219,-2.72378 -1.67564,-4.9646 -3.63604,-6.71641 -2.37411,-2.12311 -5.75482,-3.18164 -10.15943,-3.18164 -3.86454,0 -7.06349,0.89408 -9.58561,2.66666 -2.51086,1.7795 -4.06014,4.18737 -4.63397,7.23053 l 28.01505,0 z" />
		<path d="m 543.07895,61.25167 c 0,0.14194 -0.0762,0.38948 -0.24841,0.77117 l 0.0779,-0.0753 -22.39871,43.30527 c -0.40766,0.8015 -1.17538,1.1918 -2.33517,1.1918 l -1.88423,0 c -1.12517,0 -1.85653,-0.3903 -2.27458,-1.1918 l -11.49752,-21.44923 -10.95745,21.45613 c -0.41025,0.7946 -1.1771,1.1849 -2.32651,1.1849 l -1.91452,0 c -1.10007,0 -1.8375,-0.3903 -2.25121,-1.1918 l -23.0141,-43.22997 c -0.12636,-0.23455 -0.17137,-0.38082 -0.17137,-0.42323 l 0,-0.34708 c 0,-1.34934 0.84215,-2.01665 2.50394,-2.01665 l 1.64708,0 c 1.15546,0 1.92491,0.39208 2.33343,1.18057 l 19.79438,37.39552 10.64499,-20.82434 -7.7031,-14.96479 c -0.1757,-0.3263 -0.24927,-0.59028 -0.24927,-0.77117 0,-1.34934 0.82916,-2.01666 2.50307,-2.01666 l 1.64708,0 c 1.26885,0 2.04522,0.39208 2.32651,1.18057 l 19.88439,37.45265 19.28458,-37.45265 c 0.39901,-0.78849 1.17191,-1.18057 2.34123,-1.18057 l 1.64188,0 c 1.73709,0 2.59569,0.66732 2.59569,2.01666 z" />
		<path d="m 576.11573,88.99928 c 0,1.28962 -0.81445,1.93876 -2.41652,1.93876 l -32.42573,0 c 0.68895,7.20456 5.38871,10.79907 14.09321,10.79907 2.87265,0 5.49257,-0.5626 7.86409,-1.68864 2.59395,-1.17797 4.34576,-2.82072 5.27706,-4.92739 l -0.09,0.14541 c 0.28562,-0.98063 1.03862,-1.47052 2.24861,-1.47052 l 1.64535,0 c 1.60813,0 2.41047,0.64568 2.41047,1.94742 l 0,0.28215 c -2.71599,7.05227 -9.21343,10.57917 -19.53039,10.57917 -6.75796,0 -11.81258,-1.6012 -15.21146,-4.8027 -3.40322,-3.19463 -5.10136,-7.49192 -5.10136,-12.88149 0,-5.15589 1.83663,-9.37875 5.52546,-12.67377 3.91214,-3.48024 8.95897,-5.21647 15.13097,-5.21647 6.2248,0 11.21104,1.49129 14.96738,4.50848 3.7373,3.00594 5.61201,7.03579 5.61201,12.06963 l 0,1.39089 z m -6.82893,-2.92632 c -0.46305,-2.72378 -1.68083,-4.9646 -3.64469,-6.71641 -2.37498,-2.12311 -5.76088,-3.18164 -10.15684,-3.18164 -3.87059,0 -7.06781,0.89408 -9.57608,2.66666 -2.52645,1.7795 -4.06793,4.18737 -4.63485,7.23053 l 28.01246,0 z" />
		<path d="m 610.0163,96.39425 c 0,3.57372 -1.67391,6.23776 -4.99317,8.01466 -2.81033,1.474 -6.51215,2.2218 -11.09852,2.2218 -11.8749,0 -17.80888,-4.3959 -17.80888,-13.16277 0,-0.50719 0.23455,-0.94514 0.69761,-1.32164 0.46132,-0.37044 1.01005,-0.55393 1.6315,-0.55393 l 1.72411,0 c 1.55966,0 2.3542,0.6249 2.3542,1.86172 0,5.35582 3.81607,8.02332 11.44127,8.02332 2.50134,0 4.61494,-0.3444 6.30702,-1.03946 2.22352,-0.92437 3.33138,-2.28237 3.33138,-4.08957 0,-2.1283 -2.15514,-3.62478 -6.48878,-4.50501 -0.18522,0 -1.58044,-0.21119 -4.19863,-0.62231 -0.68116,-0.0909 -1.74401,-0.23802 -3.17038,-0.42064 -7.99305,-1.1018 -11.98915,-4.27046 -11.98915,-9.49213 0,-3.37292 1.65228,-6.03265 4.92826,-7.98093 2.77311,-1.61419 6.14257,-2.42085 10.12049,-2.42085 11.46637,0 17.21167,3.90348 17.21167,11.71131 0,1.28962 -0.77118,1.93789 -2.30141,1.93789 l -1.79595,0 c -1.53716,0 -2.31699,-0.63961 -2.31699,-1.92664 0,-4.37778 -3.47159,-6.56062 -10.45285,-6.56062 -2.24861,0 -4.23843,0.40939 -5.96514,1.2351 -2.01406,0.96764 -3.02844,2.30054 -3.02844,4.00994 0,1.97857 2.11619,3.32272 6.31221,4.01859 l -0.26312,0 c 0.35054,0 0.67511,0.0329 0.96592,0.12637 l -0.18089,-0.071 c 1.59342,0.28042 3.99436,0.68462 7.1985,1.19181 7.88227,1.10613 11.82816,4.39077 11.82816,9.81496 z" />
		<path d="m 629.89895,76.57911 c 0,0.50286 -0.21464,0.97024 -0.64827,1.38915 -0.4267,0.41112 -0.94428,0.6275 -1.51206,0.6275 l -4.58118,0 0,25.89105 c 0,0.47 -0.21551,0.908 -0.64221,1.3303 -0.44055,0.4146 -0.9512,0.6275 -1.52504,0.6275 l -1.20307,0 c -0.64135,0 -1.16845,-0.199 -1.6064,-0.5937 -0.42151,-0.3973 -0.64308,-0.8482 -0.64308,-1.3641 l 0,-25.89105 -4.55695,0 c -0.58595,0 -1.0992,-0.21638 -1.53456,-0.6275 -0.43016,-0.41891 -0.64654,-0.88629 -0.64654,-1.38915 l 0,-1.18489 c 0,-1.30174 0.72444,-1.96473 2.18197,-1.96473 l 4.55695,0 0,-7.79571 c 0,-1.29827 0.70626,-1.94655 2.12138,-1.94655 l 1.36492,0 c 0.56864,0 1.07497,0.20859 1.49128,0.62923 0.4267,0.41545 0.64222,0.86033 0.64222,1.31732 l 0,7.79571 4.58118,0 c 1.44368,0 2.16033,0.66299 2.16033,1.96473 l 0,1.18489 z" />
	</g>
	<g style="fill: #cc7e34;">
		<rect
			id="window"
			width="9"
			height="11"
			x="77"
			y="20"
		/>
		<path d="m 93.30786,136.47371 c 0,3.4266 -1.869516,6.005 -5.630188,7.7404 -3.227513,1.4644 -7.422673,2.1932 -12.594137,2.1932 l -20.423604,0 c -0.545276,0 -1.010924,-0.1532 -1.428103,-0.4423 -0.414583,-0.2796 -0.631827,-0.6119 -0.631827,-0.9841 l 0,-31.6658 c 0,-0.3774 0.217244,-0.7132 0.631827,-0.9953 0.417179,-0.2848 0.882827,-0.4397 1.428103,-0.4397 l 21.224207,0 c 4.591568,0 8.326273,0.7556 11.201521,2.2434 3.220588,1.6929 4.83045,4.0939 4.83045,7.1864 0,2.3343 -1.295679,4.2895 -3.878382,5.8474 -0.440548,0.238 -1.127768,0.5955 -2.04262,1.075 4.88065,1.493 7.312753,4.2367 7.312753,8.2414 z m -6.809022,-15.42 c 0,-1.7008 -0.997075,-3.0224 -2.979975,-3.9719 -1.986361,-0.9494 -4.543098,-1.4307 -7.684925,-1.4307 l -17.812339,0 0,10.9471 17.734443,0 c 3.141826,0 5.715874,-0.4579 7.728201,-1.4056 2.011461,-0.927 3.014595,-2.304 3.014595,-4.1389 z m 1.396945,15.4711 c 0,-2.201 -1.348476,-3.8213 -4.02552,-4.8867 -2.156003,-0.8387 -4.928254,-1.2628 -8.343583,-1.2628 l -17.504216,0 0,12.2661 17.722326,0 c 3.559006,0 6.383187,-0.476 8.493318,-1.4203 2.432968,-1.133 3.657675,-2.6892 3.657675,-4.6963 z" />
		<path d="m 98.722534,144.98181 c 0,0.9486 -0.680296,1.4255 -2.035696,1.4255 l -0.816182,0 c -1.708531,0 -2.563661,-0.4778 -2.563661,-1.4255 l 0,-31.6658 c 0,-0.9504 0.85513,-1.4351 2.563661,-1.4351 l 0.816182,0 c 1.3554,0 2.035696,0.4856 2.035696,1.4351 l 0,31.6658 z" />
		<path d="m 143.52602,136.47371 c 0,3.4266 -1.87904,6.005 -5.64663,7.7404 -3.20674,1.4644 -7.40796,2.1932 -12.57596,2.1932 l -20.42707,0 c -0.53922,0 -1.01698,-0.1532 -1.4307,-0.4423 -0.41372,-0.2796 -0.62317,-0.6119 -0.62317,-0.9841 l 0,-31.6658 c 0,-0.3774 0.21032,-0.7132 0.62317,-0.9953 0.41372,-0.2848 0.89148,-0.4397 1.4307,-0.4397 l 21.2294,0 c 4.58551,0 8.30637,0.7556 11.19806,2.2434 3.22145,1.6929 4.83218,4.0939 4.83218,7.1864 0,2.3343 -1.29481,4.2895 -3.88531,5.8474 -0.42843,0.238 -1.11478,0.5955 -2.04954,1.075 4.89104,1.493 7.32487,4.2367 7.32487,8.2414 z m -6.80729,-15.42 c 0,-1.7008 -0.99015,-3.0224 -2.97911,-3.9719 -1.98723,-0.9494 -4.55781,-1.4307 -7.69012,-1.4307 l -17.81061,0 0,10.9471 17.73531,0 c 3.14183,0 5.71761,-0.4579 7.72388,-1.4056 2.01492,-0.927 3.02065,-2.304 3.02065,-4.1389 z m 1.39781,15.4711 c 0,-2.201 -1.35021,-3.8213 -4.03158,-4.8867 -2.14215,-0.8387 -4.93085,-1.2628 -8.34878,-1.2628 l -17.49642,0 0,12.2661 17.72319,0 c 3.5616,0 6.38838,-0.476 8.48812,-1.4203 2.4399,-1.133 3.66547,-2.6892 3.66547,-4.6963 z" />
		<path d="m 178.44357,144.98181 c 0,0.9486 -0.68635,1.4255 -2.04435,1.4255 l -28.84335,0 c -1.32511,0 -1.97598,-0.4778 -1.97598,-1.4255 l 0,-31.6658 c 0,-0.9504 0.66818,-1.4351 2.00627,-1.4351 l 1.41166,0 c 1.3277,0 2.00021,0.4856 2.00021,1.4351 l 0,29.3245 25.40206,0 c 0.53229,0 1.01265,0.1351 1.42637,0.4354 0.41198,0.283 0.61798,0.6145 0.61798,0.9858 l 0,0.9201 z" />
		<path d="m 214.75374,144.98181 c 0,0.3721 -0.19474,0.7036 -0.59028,0.9841 -0.37997,0.289 -0.85254,0.4422 -1.38829,0.4422 l -31.98778,0 c -1.32251,0 -1.9777,-0.4777 -1.9777,-1.4255 l 0,-31.6658 c 0,-0.9503 0.65519,-1.435 1.9777,-1.435 l 31.62686,0 c 0.53575,0 0.99534,0.1549 1.39088,0.4397 0.39035,0.2821 0.5799,0.6188 0.5799,0.9953 l 0,0.9097 c 0,0.3903 -0.18955,0.7149 -0.5799,0.9988 -0.39554,0.2839 -0.85513,0.4258 -1.39088,0.4258 l -28.34136,0 0,10.9471 24.894,0 c 1.32338,0 1.97338,0.4847 1.97338,1.4385 l 0,0.83 c 0,0.3765 -0.18695,0.7201 -0.5773,1.043 -0.39467,0.3029 -0.8534,0.4647 -1.39608,0.4647 l -24.894,0 0,12.2661 28.70228,0 c 0.48815,0 0.93302,0.1558 1.3554,0.4596 0.42237,0.2995 0.6223,0.6206 0.6223,0.9608 l 0,0.9209 z" />
		<path d="m 274.26928,114.22561 c 0,0.9521 -0.68635,1.4247 -2.04868,1.4247 l -25.61843,0 0,10.947 21.66042,0 c 1.32857,0 1.97511,0.4847 1.97511,1.4385 l 0,0.83 c 0,1.0032 -0.64654,1.5078 -1.97511,1.5078 l -21.66042,0 0,14.6073 c 0,0.9564 -0.66126,1.4255 -1.97944,1.4255 l -1.31645,0 c -1.32078,0 -1.9829,-0.4778 -1.9829,-1.4255 l 0,-31.6658 c 0,-0.9503 0.66212,-1.435 1.9829,-1.435 l 28.91346,0 c 1.36146,0 2.04868,0.4855 2.04868,1.435 l 0,0.9105 z" />
		<path d="m 311.60768,144.98181 c 0,0.3721 -0.1982,0.7036 -0.59807,0.9841 -0.38602,0.289 -0.84907,0.4422 -1.37963,0.4422 l -31.98691,0 c -1.32165,0 -1.98463,-0.4777 -1.98463,-1.4255 l 0,-31.6658 c 0,-0.9503 0.66298,-1.435 1.98463,-1.435 l 31.61474,0 c 0.54527,0 0.99707,0.1549 1.38829,0.4397 0.3964,0.2821 0.59547,0.6188 0.59547,0.9953 l 0,0.9097 c 0,0.3903 -0.19907,0.7149 -0.59547,0.9988 -0.39122,0.2839 -0.84302,0.4258 -1.38829,0.4258 l -28.32318,0 0,10.9471 24.88361,0 c 1.31818,0 1.97684,0.4847 1.97684,1.4385 l 0,0.83 c 0,0.3765 -0.19128,0.7201 -0.58422,1.043 -0.39035,0.3029 -0.85513,0.4647 -1.39175,0.4647 l -24.88362,0 0,12.2661 28.69449,0 c 0.48902,0 0.93995,0.1558 1.34674,0.4596 0.42238,0.2995 0.63096,0.6206 0.63096,0.9608 l 0,0.9209 z" />
		<path d="m 346.95367,144.98181 c 0,0.9486 -0.6803,1.4255 -2.04782,1.4255 l -28.83469,0 c -1.31559,0 -1.97338,-0.4778 -1.97338,-1.4255 l 0,-31.6658 c 0,-0.9504 0.65866,-1.4351 2.00194,-1.4351 l 1.4004,0 c 1.33636,0 2.00973,0.4856 2.00973,1.4351 l 0,29.3245 25.39773,0 c 0.53922,0 1.01612,0.1351 1.4359,0.4354 0.41804,0.283 0.61019,0.6145 0.61019,0.9858 l 0,0.9201 z" />
		<path d="m 381.22295,144.98181 c 0,0.9486 -0.68809,1.4255 -2.05388,1.4255 l -28.83989,0 c -1.31991,0 -1.9829,-0.4778 -1.9829,-1.4255 l 0,-31.6658 c 0,-0.9504 0.67078,-1.4351 2.00368,-1.4351 l 1.41165,0 c 1.34242,0 2.00368,0.4856 2.00368,1.4351 l 0,29.3245 25.40811,0 c 0.54095,0 1.01525,0.1351 1.4281,0.4354 0.40939,0.283 0.62058,0.6145 0.62058,0.9858 l 0,0.9201 z" />
		<path d="m 429.96194,129.14371 c 0,2.7471 -0.54355,5.1792 -1.67737,7.2772 -1.26452,2.3153 -2.95142,4.1978 -5.04424,5.6588 -2.1032,1.4584 -4.78284,2.6121 -8.0545,3.4586 -3.01892,0.8127 -6.51561,1.2238 -10.46929,1.2238 -7.85024,0 -14.01272,-1.544 -18.47965,-4.6599 -4.46607,-3.1072 -6.7043,-7.4296 -6.7043,-12.9594 0,-5.4649 2.27371,-9.6704 6.81422,-12.621 l -0.0796,0 c 4.30421,-2.9869 10.44765,-4.4781 18.44849,-4.4781 7.81129,0 13.93915,1.4912 18.37839,4.4781 4.5959,3.0813 6.86788,7.2955 6.86788,12.6219 z m -5.55056,0.024 c 0,-6.4663 -3.75375,-10.6329 -11.28115,-12.4963 -2.43297,-0.5765 -5.24763,-0.8603 -8.41283,-0.8603 -6.2447,0 -11.10285,1.1459 -14.57184,3.4464 -3.45428,2.3058 -5.18791,5.6103 -5.18791,9.9093 0,4.1415 1.66093,7.453 4.97586,9.9621 0.0969,0 0.19214,0.035 0.29254,0.1065 3.61007,2.5005 8.44745,3.7563 14.49135,3.7563 6.10536,0 10.91937,-1.2411 14.41952,-3.7312 3.51659,-2.4953 5.27446,-5.8552 5.27446,-10.0928 z" />
		<path d="m 496.0156,113.36181 c 0,0.103 -0.0788,0.2857 -0.23023,0.5644 l 0.0666,-0.059 -18.94703,31.6719 c -0.34794,0.5755 -1.00746,0.8689 -1.98723,0.8689 l -1.61245,0 c -0.9287,0 -1.55447,-0.2934 -1.89029,-0.8689 l -9.75178,-15.6867 -9.27055,15.6936 c -0.34708,0.5686 -1.00314,0.862 -1.98031,0.862 l -1.60207,0 c -0.94341,0 -1.57611,-0.2934 -1.9076,-0.8689 l -19.48711,-31.6122 c -0.0969,-0.1705 -0.14628,-0.2787 -0.14628,-0.3072 l 0,-0.2571 c 0,-0.9824 0.70021,-1.4809 2.12139,-1.4809 l 1.39434,0 c 0.96419,0 1.62631,0.296 1.96732,0.8768 l 16.76853,27.3304 8.99965,-15.2192 -6.50696,-10.9436 c -0.14627,-0.2415 -0.21725,-0.4207 -0.21725,-0.5644 0,-0.9823 0.69675,-1.4809 2.12225,-1.4809 l 1.38137,0 c 1.0741,0 1.73276,0.296 1.9829,0.8768 l 16.82391,27.3677 16.32625,-27.3755 c 0.33409,-0.573 1.00227,-0.869 1.97425,-0.869 l 1.39521,0 c 1.46186,0 2.21313,0.4986 2.21313,1.4809 z" />
		<path d="m 535.97219,137.23801 c 0,3.3945 -2.362,5.9314 -7.09378,7.5897 -3.66027,1.287 -7.74638,1.9353 -12.2185,1.9353 -6.05689,0 -10.86397,-0.7833 -14.42731,-2.3395 -4.6859,-2.0383 -7.03146,-5.1749 -7.03146,-9.4237 l 0,-0.5124 c 0,-0.9504 0.66732,-1.4177 2.01666,-1.4177 l 1.37357,0 c 1.34935,0 2.02705,0.4673 2.02705,1.4177 l 0,0.3046 c 0,5.4718 5.33764,8.2008 15.99475,8.2008 3.9156,0 7.09464,-0.418 9.54579,-1.2654 2.93237,-1.0239 4.39942,-2.5515 4.39942,-4.5907 0,-1.4212 -0.57557,-2.5437 -1.74835,-3.3556 -0.94168,-0.6405 -2.46932,-1.2082 -4.62013,-1.6869 -0.87936,-0.2025 -1.88682,-0.3955 -2.99555,-0.5504 l -6.23605,-0.9712 c -5.70462,-0.8836 -9.62974,-1.7319 -11.77882,-2.5576 -4.34576,-1.6211 -6.51907,-4.0575 -6.51907,-7.3196 0,-6.1063 6.22306,-9.1676 18.67179,-9.1676 13.02777,0 19.62647,3.5521 19.76928,10.6441 0,0.914 -0.68549,1.3719 -2.02964,1.3719 l -1.36492,0 c -1.29828,0 -1.97338,-0.4284 -2.02964,-1.2732 -0.30033,-3.8715 -3.07431,-6.1097 -8.36262,-6.7112 -1.66353,-0.1757 -3.63864,-0.2588 -5.95043,-0.2588 -8.85251,0 -13.2779,1.7899 -13.2779,5.3939 0,1.7683 1.11998,3.096 3.37206,3.9779 1.41685,0.5687 4.36047,1.1408 8.84904,1.7207 8.15923,1.0836 13.62237,2.2399 16.39982,3.4586 3.51227,1.564 5.26494,4.0281 5.26494,7.3863 z" />
		<path d="m 580.34378,144.98181 c 0,0.3721 -0.20946,0.7036 -0.59721,0.9841 -0.38169,0.289 -0.85167,0.4422 -1.38396,0.4422 l -1.39608,0 c -1.36232,0 -2.04781,-0.4691 -2.04781,-1.4255 l 0,-14.6082 -30.59083,0 0,14.6074 c 0,0.3721 -0.21292,0.7036 -0.62231,0.9841 -0.40246,0.3055 -0.8785,0.4422 -1.40646,0.4422 l -1.37618,0 c -0.51411,0 -0.99794,-0.1532 -1.41252,-0.4422 -0.39814,-0.2796 -0.60586,-0.612 -0.60586,-0.9841 l 0,-31.6658 c 0,-0.3774 0.20772,-0.7132 0.60586,-0.9954 0.41458,-0.2847 0.89841,-0.4397 1.41252,-0.4397 l 1.37618,0 c 0.52796,0 1.004,0.155 1.40646,0.4397 0.40939,0.2822 0.62231,0.6189 0.62231,0.9954 l 0,13.2822 30.59083,0 0,-13.2822 c 0,-0.9504 0.68549,-1.4351 2.04781,-1.4351 l 1.39608,0 c 0.53143,0 1.0014,0.155 1.38396,0.4397 0.38775,0.2822 0.59721,0.6189 0.59721,0.9954 l 0,31.6658 z" />
		<path d="m 587.06971,144.98181 c 0,0.9486 -0.67337,1.4255 -2.04521,1.4255 l -0.81186,0 c -1.71199,0 -2.55068,-0.4778 -2.55068,-1.4255 l 0,-31.6658 c 0,-0.9504 0.83955,-1.4351 2.55068,-1.4351 l 0.81186,0 c 1.37184,0 2.04521,0.4856 2.04521,1.4351 l 0,31.6658 z"/>
		<path d="m 629.89982,122.02221 c 0,3.3608 -1.8574,5.9236 -5.57047,7.6867 -3.22751,1.5241 -7.33439,2.2918 -12.3717,2.2918 l -15.59229,0 0,12.9811 c 0,0.9486 -0.65433,1.4255 -1.97164,1.4255 l -1.39089,0 c -0.54614,0 -1.01871,-0.1532 -1.42724,-0.4423 -0.41285,-0.2796 -0.62144,-0.6119 -0.62144,-0.9841 l 0,-31.6658 c 0,-0.3774 0.20859,-0.7132 0.62144,-0.9953 0.40939,-0.2848 0.88197,-0.4397 1.42724,-0.4397 l 19.61521,0 c 11.5209,8e-4 17.28178,3.3937 17.28178,10.1421 z m -5.42333,0.052 c 0,-4.2851 -3.79183,-6.4238 -11.37635,-6.4238 l -16.73391,0 0,12.582 16.8118,0 c 3.12885,0 5.69857,-0.4795 7.71003,-1.435 2.38969,-1.1148 3.58843,-2.6875 3.58843,-4.7232 z" />
	</g>
</svg>
