<?xml version="1.0" encoding="UTF-8" standalone="no"?>
<!-- Created with Inkscape (http://www.inkscape.org/) -->

<svg
   xmlns:dc="http://purl.org/dc/elements/1.1/"
   xmlns:cc="http://creativecommons.org/ns#"
   xmlns:rdf="http://www.w3.org/1999/02/22-rdf-syntax-ns#"
   xmlns:svg="http://www.w3.org/2000/svg"
   xmlns="http://www.w3.org/2000/svg"
   xmlns:xlink="http://www.w3.org/1999/xlink"
   xmlns:sodipodi="http://sodipodi.sourceforge.net/DTD/sodipodi-0.dtd"
   xmlns:inkscape="http://www.inkscape.org/namespaces/inkscape"
   width="43.704025mm"
   height="43.703976mm"
   viewBox="0 0 43.704025 43.703976"
   version="1.1"
   id="svg8"
   inkscape:version="0.92.0 r15299"
   sodipodi:docname="ncwbf_icon.svg"
   inkscape:export-filename="C:\Users\lim_gre\Desktop\apple_ncwbf_icon64.png"
   inkscape:export-xdpi="37.200001"
   inkscape:export-ydpi="37.200001">
  <defs
     id="defs2">
    <linearGradient
       inkscape:collect="always"
       id="linearGradient1166">
      <stop
         style="stop-color:#ffffff;stop-opacity:1"
         offset="0"
         id="stop1162" />
      <stop
         style="stop-color:#e6e6e6;stop-opacity:1"
         offset="1"
         id="stop1164" />
    </linearGradient>
    <radialGradient
       inkscape:collect="always"
       xlink:href="#linearGradient1166"
       id="radialGradient1170"
       gradientUnits="userSpaceOnUse"
       gradientTransform="matrix(1,0,0,0.99999889,-83.147987,-126.64784)"
       cx="105"
       cy="148.5"
       fx="105"
       fy="148.5"
       r="21.751999" />
    <radialGradient
       inkscape:collect="always"
       xlink:href="#linearGradient1166"
       id="radialGradient1194"
       gradientUnits="userSpaceOnUse"
       gradientTransform="matrix(0.9842135,0,0,0.9842124,-81.490404,-124.30355)"
       cx="105"
       cy="148.5"
       fx="105"
       fy="148.5"
       r="21.751999" />
  </defs>
  <sodipodi:namedview
     id="base"
     pagecolor="#ffffff"
     bordercolor="#666666"
     borderopacity="1.0"
     inkscape:pageopacity="0.0"
     inkscape:pageshadow="2"
     inkscape:zoom="7.9195959"
     inkscape:cx="57.558297"
     inkscape:cy="-105.35198"
     inkscape:document-units="mm"
     inkscape:current-layer="svg8"
     showgrid="false"
     showguides="true"
     inkscape:guide-bbox="true"
     inkscape:measure-start="437.649,679.833"
     inkscape:measure-end="453.495,680.338"
     inkscape:window-width="1920"
     inkscape:window-height="1137"
     inkscape:window-x="-8"
     inkscape:window-y="-8"
     inkscape:window-maximized="1"
     fit-margin-top="0"
     fit-margin-left="0"
     fit-margin-right="0"
     fit-margin-bottom="0" />
  <metadata
     id="metadata5">
    <rdf:RDF>
      <cc:Work
         rdf:about="">
        <dc:format>image/svg+xml</dc:format>
        <dc:type
           rdf:resource="http://purl.org/dc/dcmitype/StillImage" />
        <dc:title />
      </cc:Work>
    </rdf:RDF>
  </metadata>
  <path
     inkscape:label="rounded-bg"
     sodipodi:nodetypes="ccccc"
     inkscape:connector-curvature="0"
     id="path1192"
     d="M 0.34496683,0.34494251 V 43.359009 H 43.359033 V 0.34494251 Z"
     style="fill:url(#radialGradient1194);fill-opacity:1;stroke:#d7d7d7;stroke-width:0.68993366;stroke-linecap:butt;stroke-linejoin:miter;stroke-miterlimit:4;stroke-dasharray:none;stroke-opacity:1" />
  <path
     style="fill:url(#radialGradient1170);fill-opacity:1;stroke:#d7d7d7;stroke-width:0.70099998;stroke-linecap:butt;stroke-linejoin:miter;stroke-miterlimit:4;stroke-dasharray:none;stroke-opacity:1"
     d="m 4.335902,4.33599 c -5.31387,6.10105 -5.31387,28.9309 0,35.0319 6.49474,5.31412 28.537411,5.31412 35.032121,0 5.314,-6.101 5.314,-28.93085 0,-35.0319 -6.49471,-5.31398 -28.537381,-5.31398 -35.032121,0 z"
     id="rounded-bg-0"
     inkscape:connector-curvature="0"
     sodipodi:nodetypes="ccccc"
     inkscape:label="rounded-bg" />
  <path
     style="fill:#0063d3;fill-opacity:1;stroke:none;stroke-width:0.13699904;stroke-linecap:butt;stroke-linejoin:miter;stroke-miterlimit:4;stroke-dasharray:none;stroke-opacity:0.90196078;paint-order:normal"
     d="m 8.900004,9.45167 c 0.0085,5.50482 -0.01709,11.01018 0.01302,16.51466 0.149566,4.43283 3.616256,8.46018 7.971999,9.28221 2.55146,0.53186 5.30249,0.0151 7.47812,-1.42265 v -5.8937 c -1.1765,2.75193 -4.57707,4.21959 -7.38716,3.20446 -2.802021,-0.88601 -4.607448,-4.02675 -3.953826,-6.89418 0.530965,-2.88044 3.412117,-5.05883 6.329676,-4.77413 2.14624,0.13788 4.14095,1.54223 5.01234,3.5055 0.0312,-1.91579 -0.13858,-3.85321 0.21963,-5.74849 -3.41593,-2.44308 -8.369528,-2.33523 -11.683524,0.24133 V 9.45167 H 8.900007 Z"
     id="path854"
     inkscape:connector-curvature="0"
     sodipodi:nodetypes="cccccccccccccc" />
  <path
     style="fill:#ff2a36;fill-opacity:1;stroke:none;stroke-width:1.70000005;stroke-linecap:butt;stroke-linejoin:miter;stroke-miterlimit:4;stroke-dasharray:none;stroke-opacity:1;paint-order:markers stroke fill"
     d="m 34.806063,9.45031 c -4.72476,0.37583 -8.81481,4.58627 -8.96478,9.34071 -0.0785,2.51824 -0.0172,5.03951 -0.0357,7.55932 0,3.03382 0,6.06765 0,9.10148 1.33343,0 2.66685,0 4.00027,0 0.003,-2.73334 1.5e-4,-5.46668 -10e-4,-8.20001 1.66691,0 3.33382,0 5.00073,0 0,-1.5 0,-3 0,-4.49999 -1.66502,0 -3.33003,0 -4.99505,0 0.0398,-1.47095 -0.0848,-2.95253 0.083,-4.41587 0.42204,-2.42061 2.47118,-4.48546 4.91258,-4.85075 5e-5,-1.34495 -7e-5,-2.68999 3e-5,-4.03489 z"
     id="path854-0"
     inkscape:connector-curvature="0" />
  <g
     id="g4520"
     transform="translate(-8.5712635,1.1033999)"
     style="stroke:none;stroke-opacity:1">
    <path
       sodipodi:nodetypes="cccccccccccccc"
       inkscape:connector-curvature="0"
       id="path854-8"
       d="m 9.3485821,56.595364 c 0.0085,5.50482 -0.01709,11.01018 0.01302,16.51466 0.149566,4.43283 3.6162559,8.46018 7.9719989,9.28221 2.55146,0.53186 5.30249,0.0151 7.47812,-1.42265 v -5.8937 c -1.1765,2.75193 -4.57707,4.21959 -7.38716,3.20446 -2.802021,-0.88601 -4.607448,-4.02675 -3.953826,-6.89418 0.530965,-2.88044 3.412117,-5.05883 6.329676,-4.77413 2.14624,0.13788 4.14095,1.54223 5.01234,3.5055 0.0312,-1.91579 -0.13858,-3.85321 0.21963,-5.74849 -3.41593,-2.44308 -8.369528,-2.33523 -11.683524,0.24133 v -8.01501 H 9.3485851 Z"
       style="fill:#0063d3;fill-opacity:1;stroke:none;stroke-width:0.13699904;stroke-linecap:butt;stroke-linejoin:miter;stroke-miterlimit:4;stroke-dasharray:none;stroke-opacity:1;paint-order:normal" />
    <path
       inkscape:connector-curvature="0"
       id="path854-0-9"
       d="m 33.805978,56.594466 c -4.72476,0.37583 -8.81481,4.58627 -8.96478,9.34071 -0.0785,2.51824 -0.0172,5.03951 -0.0357,7.55932 0,3.03382 0,6.06765 0,9.10148 1.33343,0 2.66685,0 4.00027,0 0.003,-2.73334 1.5e-4,-5.46668 -0.001,-8.20001 1.66691,0 3.33382,0 5.00073,0 0,-1.5 0,-3 0,-4.49999 -1.66502,0 -3.33003,0 -4.99505,0 0.03981,-1.47095 -0.08479,-2.95253 0.08301,-4.41587 0.42204,-2.42061 2.47118,-4.48546 4.91258,-4.85075 5e-5,-1.34495 -7e-5,-2.68999 3e-5,-4.03489 z"
       style="fill:#ff2a36;fill-opacity:1;stroke:none;stroke-width:1.70000005;stroke-linecap:butt;stroke-linejoin:miter;stroke-miterlimit:4;stroke-dasharray:none;stroke-opacity:1;paint-order:markers stroke fill" />
  </g>
</svg>
